<svg width="25" height="42" viewBox="0 0 25 42" fill="none" xmlns="http://www.w3.org/2000/svg">
<path d="M19.853 2.98047H4.95456C4.122 2.98047 3.4209 3.71078 3.4209 4.57803V22.3794C3.4209 23.2467 4.122 23.977 4.95456 23.977H19.853C20.6855 23.977 21.3866 23.2467 21.3866 22.3794V4.57803C21.3866 3.71078 20.6855 2.98047 19.853 2.98047ZM8.67915 17.1303H5.17365V15.761H8.67915V17.1303ZM14.3756 17.1303H10.4319V15.761H14.3756V17.1303ZM19.6339 17.1303H16.1284V15.761H19.6339V17.1303Z" fill="#E79B38"/>
<path d="M21.6059 0.241211H3.20203C1.88746 0.241211 0.791992 1.38233 0.791992 2.75166V25.0262C0.791992 26.3499 1.274 27.5823 2.10656 28.5409L4.34131 31.0969L4.38513 31.1426C5.91879 32.8771 6.09407 33.0597 6.48844 33.0597H9.99394V39.0848L10.6074 41.2757H14.2444L14.8578 39.0848V33.1053H18.3633C18.7577 33.1053 18.933 32.9227 20.4666 31.1882L22.7452 28.5409C23.5778 27.5823 24.0598 26.3043 24.0598 25.0262V2.75166C24.016 1.38233 22.9205 0.241211 21.6059 0.241211ZM7.36481 31.736V30.3666H9.99394V31.736H7.36481ZM13.0613 37.6698V34.9311H11.7467V37.6698H11.3085V30.3666H13.4994V37.6698H13.0613ZM11.5714 39.952L11.3085 39.0391H13.4556L13.1927 39.952H11.5714ZM14.814 30.3666H17.4431V31.736H14.814V30.3666ZM22.7014 25.0262C22.7014 25.9848 22.3508 26.8976 21.7374 27.628L19.5026 30.1841L19.4588 30.2297C19.2397 30.5036 18.9768 30.7774 18.7577 31.0057V29.6363C18.7577 29.2712 18.451 28.9517 18.1004 28.9517H6.70753C6.35698 28.9517 6.05025 29.2712 6.05025 29.6363V31.0057C5.83115 30.7318 5.56824 30.4579 5.34915 30.2297L3.07057 27.628C2.45711 26.8976 2.10656 25.9848 2.10656 25.0262V2.75166C2.10656 2.11264 2.58856 1.61055 3.20203 1.61055H21.6059C22.2194 1.61055 22.7014 2.11264 22.7014 2.75166V25.0262Z" fill="#E79B38"/>
<path d="M7.55837 25.5494C6.94233 26.1911 6.74812 27.0292 7.12459 27.4214C7.50106 27.8135 8.30564 27.6112 8.92168 26.9695C9.53771 26.3278 9.73192 25.4897 9.35546 25.0976C8.97899 24.7054 8.1744 24.9077 7.55837 25.5494Z" fill="#E79B38"/>
<path d="M15.447 25.5494C14.831 26.1911 14.6368 27.0292 15.0133 27.4214C15.3897 27.8135 16.1943 27.6112 16.8103 26.9695C17.4264 26.3278 17.6206 25.4897 17.2441 25.0976C16.8677 24.7054 16.0631 24.9077 15.447 25.5494Z" fill="#E79B38"/>
<path d="M11.5037 25.5494C10.8876 26.1911 10.6934 27.0292 11.0699 27.4214C11.4464 27.8135 12.251 27.6112 12.867 26.9695C13.483 26.3278 13.6772 25.4897 13.3008 25.0976C12.9243 24.7054 12.1197 24.9077 11.5037 25.5494Z" fill="#E79B38"/>
</svg>
