<svg width="36" height="36" viewBox="0 0 36 36" fill="none" xmlns="http://www.w3.org/2000/svg">
<path d="M17.9996 35.0436C8.59781 35.0436 0.956055 27.3977 0.956055 18.0001C0.956055 8.5983 8.60193 0.956543 17.9996 0.956543C27.3972 0.956543 35.0431 8.60242 35.0431 18.0001C35.0431 18.7667 34.9936 19.5375 34.8906 20.2918C34.7875 21.0625 34.0745 21.6025 33.3078 21.4994C32.537 21.3964 31.9971 20.6874 32.1001 19.9167C32.1826 19.286 32.2279 18.643 32.2279 18.0042C32.2279 10.1604 25.8433 3.77583 17.9996 3.77583C10.1558 3.77583 3.77534 10.1563 3.77534 18.0001C3.77534 25.8438 10.16 32.2284 18.0037 32.2284C19.6606 32.2284 21.2805 31.9481 22.822 31.3917C23.5516 31.1279 24.3594 31.5112 24.6232 32.2408C24.887 32.9703 24.5037 33.7782 23.7742 34.042C21.9235 34.7056 19.9821 35.0436 17.9996 35.0436Z" fill="#018FFB"/>
<path d="M28.0159 30.3775H31.2021C31.5195 30.3775 31.7626 30.46 31.9275 30.6248C32.0965 30.7938 32.1789 31.0164 32.1789 31.2967C32.1789 31.5522 32.113 31.7666 31.9811 31.9397C31.8492 32.1128 31.6513 32.2035 31.3793 32.2035H26.8907C26.5857 32.2035 26.3466 32.0963 26.1735 31.882C26.0004 31.6676 25.918 31.4121 25.918 31.1236C25.918 30.9381 25.9716 30.6908 26.0828 30.3817C26.1941 30.0725 26.3095 29.8335 26.4456 29.6562C26.9855 28.939 27.4719 28.3331 27.9088 27.822C28.3416 27.3109 28.6548 26.9771 28.8403 26.8163C29.1742 26.5154 29.4544 26.2145 29.6729 25.9137C29.8914 25.6128 30.0645 25.2995 30.1799 24.9821C30.2953 24.6606 30.353 24.3556 30.353 24.0465C30.353 23.7168 30.2912 23.42 30.1675 23.1603C30.0439 22.8965 29.8749 22.6946 29.6605 22.5503C29.4462 22.406 29.2154 22.3318 28.9598 22.3318C28.4281 22.3318 28.0077 22.6286 27.7027 23.2221C27.6615 23.2963 27.5914 23.5107 27.4966 23.8569C27.4018 24.2031 27.2946 24.471 27.1751 24.6565C27.0515 24.842 26.8783 24.9327 26.6475 24.9327C26.4456 24.9327 26.2766 24.8502 26.1405 24.6771C26.0086 24.504 25.9386 24.2732 25.9386 23.9805C25.9386 23.622 26.0045 23.251 26.1282 22.8677C26.2518 22.4802 26.4456 22.1299 26.6929 21.8125C26.9443 21.4951 27.2617 21.2437 27.645 21.0458C28.0283 20.8521 28.4776 20.7573 28.9969 20.7573C29.6193 20.7573 30.151 20.881 30.5921 21.1283C30.8765 21.2973 31.1279 21.5199 31.3422 21.8084C31.5607 22.0969 31.7255 22.4308 31.8451 22.8141C31.9687 23.1933 32.0223 23.5849 32.0223 23.997C32.0223 24.64 31.8987 25.2212 31.6472 25.7488C31.3958 26.2722 31.1402 26.6844 30.8806 26.9812C30.6209 27.278 30.184 27.7478 29.5699 28.3826C28.9557 29.0173 28.5394 29.512 28.3086 29.8623C28.2179 30.0148 28.1149 30.1797 28.0159 30.3775Z" fill="#018FFB"/>
</svg>
