<svg width="29" height="39" viewBox="0 0 29 39" fill="none" xmlns="http://www.w3.org/2000/svg">
<path d="M24.3668 7.98043C23.5199 7.98043 22.6921 8.24521 21.9879 8.74127C21.2838 9.23734 20.735 9.94241 20.4109 10.7673C20.0868 11.5923 20.002 12.5 20.1672 13.3757C20.3324 14.2515 20.7403 15.0559 21.3391 15.6872C21.9379 16.3186 22.7009 16.7486 23.5315 16.9228C24.3621 17.097 25.223 17.0076 26.0054 16.6659C26.7878 16.3242 27.4566 15.7455 27.927 15.0031C28.3975 14.2607 28.6487 13.3879 28.6487 12.495C28.6487 11.2976 28.1976 10.1494 27.3945 9.30271C26.5915 8.45607 25.5024 7.98043 24.3668 7.98043ZM24.3668 14.4298C24.0039 14.4298 23.6491 14.3163 23.3473 14.1037C23.0455 13.8911 22.8103 13.5889 22.6714 13.2354C22.5325 12.8819 22.4962 12.4928 22.567 12.1175C22.6378 11.7422 22.8126 11.3975 23.0692 11.1269C23.3259 10.8563 23.6528 10.672 24.0088 10.5974C24.3648 10.5227 24.7338 10.561 25.0691 10.7075C25.4044 10.8539 25.691 11.1019 25.8926 11.4201C26.0943 11.7382 26.2019 12.1123 26.2019 12.495C26.2019 13.0081 26.0086 13.5002 25.6644 13.8631C25.3203 14.2259 24.8535 14.4298 24.3668 14.4298ZM11.5212 23.6201V13.1399C11.5212 12.7978 11.3923 12.4697 11.1629 12.2278C10.9335 11.9859 10.6223 11.85 10.2978 11.85C9.97339 11.85 9.66221 11.9859 9.43278 12.2278C9.20335 12.4697 9.07446 12.7978 9.07446 13.1399V23.6201C7.92122 23.9341 6.91617 24.6807 6.2477 25.72C5.57922 26.7594 5.29322 28.0201 5.4433 29.2659C5.59338 30.5117 6.16923 31.657 7.06293 32.4871C7.95662 33.3172 9.10679 33.7752 10.2978 33.7752C11.4889 33.7752 12.6391 33.3172 13.5328 32.4871C14.4265 31.657 15.0023 30.5117 15.1524 29.2659C15.3025 28.0201 15.0165 26.7594 14.348 25.72C13.6795 24.6807 12.6745 23.9341 11.5212 23.6201ZM10.2978 31.1981C9.81392 31.1981 9.34086 31.0468 8.93849 30.7633C8.53612 30.4799 8.22251 30.077 8.03732 29.6056C7.85213 29.1342 7.80368 28.6155 7.89809 28.1151C7.9925 27.6147 8.22553 27.155 8.56772 26.7942C8.90991 26.4334 9.34588 26.1877 9.82051 26.0882C10.2951 25.9886 10.7871 26.0397 11.2342 26.235C11.6813 26.4302 12.0634 26.7609 12.3323 27.1851C12.6011 27.6094 12.7446 28.1081 12.7446 28.6184C12.7446 29.3025 12.4868 29.9587 12.028 30.4425C11.5691 30.9263 10.9468 31.1981 10.2978 31.1981ZM16.4148 20.5567V6.69056C16.4148 4.98009 15.7703 3.33967 14.6232 2.13018C13.476 0.920694 11.9202 0.241211 10.2978 0.241211C8.67554 0.241211 7.11967 0.920694 5.97252 2.13018C4.82537 3.33967 4.18091 4.98009 4.18091 6.69056V20.5567C2.59802 21.8929 1.44785 23.7144 0.889331 25.7696C0.330813 27.8248 0.39153 30.0122 1.06309 32.0295C1.73465 34.0467 2.9839 35.7942 4.63819 37.0305C6.29248 38.2668 8.27013 38.9309 10.2978 38.9309C12.3256 38.9309 14.3032 38.2668 15.9575 37.0305C17.6118 35.7942 18.861 34.0467 19.5326 32.0295C20.2042 30.0122 20.2649 27.8248 19.7064 25.7696C19.1479 23.7144 17.9977 21.8929 16.4148 20.5567ZM10.2978 36.3576C8.73488 36.3577 7.21268 35.8318 5.95286 34.8565C4.69303 33.8812 3.76137 32.5074 3.2935 30.935C2.82564 29.3627 2.846 27.674 3.35163 26.1147C3.85726 24.5554 4.82175 23.207 6.10469 22.2657C6.26703 22.1462 6.39943 21.987 6.49053 21.8016C6.58163 21.6163 6.62869 21.4104 6.62768 21.2016V6.69056C6.62768 5.66428 7.01436 4.68003 7.70265 3.95433C8.39094 3.22864 9.32446 2.82095 10.2978 2.82095C11.2712 2.82095 12.2048 3.22864 12.893 3.95433C13.5813 4.68003 13.968 5.66428 13.968 6.69056V21.2016C13.968 21.4093 14.0155 21.6139 14.1066 21.798C14.1976 21.9822 14.3295 22.1404 14.491 22.2593C15.7766 23.1996 16.7436 24.5483 17.251 26.1089C17.7583 27.6694 17.7795 29.36 17.3113 30.9341C16.8431 32.5082 15.9102 33.8833 14.6485 34.859C13.3868 35.8346 11.8625 36.3597 10.2978 36.3576Z" fill="#FF6666"/>
</svg>
