<svg width="37" height="37" viewBox="0 0 37 37" fill="none" xmlns="http://www.w3.org/2000/svg">
<g clip-path="url(#clip0_821_2291)">
<path d="M23.7342 2.43652C22.5014 2.43652 21.502 3.43596 21.502 4.66879C21.502 5.90161 22.5014 6.90105 23.7342 6.90105C24.967 6.90105 25.9665 5.90161 25.9665 4.66879C25.9725 3.43587 24.9731 2.43652 23.7342 2.43652Z" fill="#3346D3"/>
<path d="M23.7345 0.419434C21.3885 0.419434 19.4854 2.32852 19.4854 4.66854C19.4854 7.01449 21.3944 8.92367 23.7405 8.92367C26.0865 8.92367 27.9956 7.01458 27.9956 4.66854C27.9955 2.32852 26.0804 0.419434 23.7345 0.419434ZM23.7345 6.90673C22.5016 6.90673 21.5022 5.90729 21.5022 4.67447C21.5022 3.44164 22.5016 2.4422 23.7345 2.4422C24.9673 2.4422 25.9667 3.44164 25.9667 4.67447C25.9727 5.90729 24.9733 6.90673 23.7345 6.90673Z" fill="#3346D3"/>
<path d="M28.6411 13.3165C28.6411 12.5565 28.0247 11.94 27.2646 11.94H26.7559L24.6613 17.027C24.3022 17.8828 23.1352 17.829 22.7941 17.027L20.6995 11.9341H20.1968C19.4368 11.9341 18.8203 12.5505 18.8203 13.3046V24.3342H28.6351V13.3165H28.6411Z" fill="#3346D3"/>
<path d="M20.4005 34.7418H22.7226V30.0498C22.7226 29.4932 23.1714 29.0384 23.734 29.0384C24.2906 29.0384 24.7454 29.4872 24.7454 30.0498V34.7418H27.0674V26.3633H20.3945V34.7418H20.4005Z" fill="#3346D3"/>
<path d="M27.2707 9.91748H26.0916C25.6847 9.91748 25.3136 10.1688 25.164 10.5399L23.7457 13.987L22.3213 10.5399C22.1657 10.1628 21.8007 9.91748 21.3937 9.91748H20.2088C18.3356 9.91748 16.8154 11.4436 16.8154 13.3108V25.352C16.8154 25.9085 17.2642 26.3634 17.8268 26.3634H18.3894V35.7473C18.3894 36.3039 18.8382 36.7587 19.4008 36.7587H28.0905C28.6471 36.7587 29.1019 36.3099 29.1019 35.7473V26.3633H29.6585C30.215 26.3633 30.6699 25.9145 30.6699 25.3519V13.3167C30.67 11.4435 29.1439 9.91748 27.2707 9.91748ZM27.0791 34.7418H24.7571V30.0498C24.7571 29.4932 24.3083 29.0384 23.7457 29.0384C23.1891 29.0384 22.7343 29.4872 22.7343 30.0498V34.7418H20.4123V26.3633H27.0852V34.7418H27.0791ZM18.8263 24.3464V13.3167C18.8263 12.5567 19.4428 11.9402 20.2028 11.9402H20.7115L22.8062 17.0332C23.1473 17.8352 24.3143 17.8889 24.6734 17.0332L26.768 11.9462H27.2767C28.0367 11.9462 28.6532 12.5626 28.6532 13.3227V24.3524H18.8263V24.3464Z" fill="#3346D3"/>
<path d="M12.5488 2.43643C13.1054 2.43643 13.5602 1.98763 13.5602 1.42505C13.5602 0.862471 13.0994 0.413574 12.5488 0.413574H7.16861C6.61205 0.413574 6.15723 0.862379 6.15723 1.42496V35.7469C6.15723 36.3035 6.60603 36.7583 7.16861 36.7583H12.5488C13.1054 36.7583 13.5602 36.3095 13.5602 35.7469C13.5602 35.1904 13.1114 34.7355 12.5488 34.7355H8.18601V31.9049H12.5488C13.1054 31.9049 13.5602 31.4561 13.5602 30.8935C13.5602 30.3309 13.1114 29.8821 12.5488 29.8821H8.18601V26.9137H10.2687C10.8252 26.9137 11.2801 26.4648 11.2801 25.9023C11.2801 25.3398 10.8313 24.8909 10.2687 24.8909H8.18601V22.078H12.5488C13.1054 22.078 13.5602 21.6292 13.5602 21.0666C13.5602 20.5101 13.1114 20.0552 12.5488 20.0552H8.18601V17.0868H10.2687C10.8252 17.0868 11.2801 16.638 11.2801 16.0754C11.2801 15.5189 10.8313 15.0641 10.2687 15.0641H8.18601V12.2573H12.5488C13.1054 12.2573 13.5602 11.8085 13.5602 11.2459C13.5602 10.6893 13.1114 10.2345 12.5488 10.2345H8.18601V7.26006H10.2687C10.8252 7.26006 11.2801 6.81126 11.2801 6.24868C11.2801 5.6861 10.8313 5.2373 10.2687 5.2373H8.18601V2.3945H12.5488V2.43643Z" fill="#3346D3"/>
</g>
<defs>
<clipPath id="clip0_821_2291">
<rect width="36.3448" height="36.3448" fill="white" transform="translate(0.241211 0.413574)"/>
</clipPath>
</defs>
</svg>
