<svg width="35" height="34" viewBox="0 0 35 34" fill="none" xmlns="http://www.w3.org/2000/svg">
<path fill-rule="evenodd" clip-rule="evenodd" d="M17.5783 3.03174C25.7378 -1.31917 30.7276 1.17964 32.819 5.46371C33.9367 7.75342 34.8368 11.8153 34.3027 16.0537H26.7415L25.7543 13.9113C25.3459 12.8992 23.9789 12.793 23.4469 13.7699L22.6413 15.248L20.9912 8.41143C20.7259 7.03489 18.8352 6.95315 18.4783 8.32336L16.7112 15.0959L16.1259 12.84C15.8657 11.8221 14.605 11.4892 13.9182 12.2976L10.7186 16.0537H0.853474C0.319334 11.8153 1.21939 7.75342 2.33753 5.46371C4.42857 1.17964 9.41835 -1.31917 17.5783 3.03174ZM33.7612 18.7449C32.0126 24.9597 22.9999 32.2131 17.5783 33.2135C12.1567 32.2127 3.14394 24.9601 1.39542 18.7454H11.293C11.7179 18.7454 12.0947 18.5313 12.3301 18.2021L14.2573 15.9399L15.4586 20.5952C15.7994 21.923 17.6082 21.9094 17.9507 20.5997L19.6771 13.988L20.9227 19.1496C21.2145 20.3663 22.7992 20.5261 23.3285 19.4246L24.4727 17.3241L24.774 17.9776C24.9947 18.4586 25.4547 18.7395 25.9346 18.74L33.7612 18.7449Z" fill="#CA6B6E"/>
</svg>
