<svg width="39" height="39" viewBox="0 0 39 39" fill="none" xmlns="http://www.w3.org/2000/svg">
<g clip-path="url(#clip0_821_2254)">
<path d="M12.8004 34.3706H2.81026C1.29834 34.3706 0.0683594 33.1406 0.0683594 31.6286V25.5519C0.0683594 17.7678 6.40107 11.4351 14.1852 11.4351C14.9347 11.4351 15.5423 12.0427 15.5423 12.7921V31.6286C15.5423 33.1406 14.3123 34.3706 12.8004 34.3706Z" fill="#E971FD"/>
<path d="M36.0162 34.3706H26.0261C24.5142 34.3706 23.2842 33.1406 23.2842 31.6287V12.7921C23.2842 12.0426 23.8918 11.4351 24.6412 11.4351C32.4253 11.4351 38.7581 17.7679 38.7581 25.5519V31.6286C38.7581 33.1406 37.5281 34.3706 36.0162 34.3706Z" fill="#E971FD"/>
<path d="M32.1112 25.6956L30.4342 24.427L32.1112 23.1583C33.5438 22.0745 31.9031 19.9123 30.4738 20.9937L28.1847 22.7253L20.7701 17.1163V6.15828C20.7701 5.40882 20.1625 4.80127 19.4131 4.80127C18.6637 4.80127 18.0561 5.40889 18.0561 6.15828V17.1164L10.6415 22.7255L8.35257 20.9939C6.92287 19.9122 5.28324 22.0751 6.71514 23.1585L8.39217 24.4271L6.71514 25.6957C5.28248 26.7796 6.92309 28.9416 8.35257 27.8603L19.4132 19.4932L30.4738 27.8603C31.9073 28.9447 33.5367 26.774 32.1112 25.6956Z" fill="#D23EEB"/>
<path d="M32.1112 25.6956L30.4341 24.427L32.1112 23.1583C33.5437 22.0745 31.903 19.9123 30.4737 20.9937L28.1847 22.7253L20.7701 17.1163V6.15828C20.7701 5.40882 20.1625 4.80127 19.4131 4.80127V19.4931L30.4737 27.8602C31.9073 28.9447 33.5366 26.774 32.1112 25.6956Z" fill="#D23EEB"/>
</g>
<defs>
<clipPath id="clip0_821_2254">
<rect width="38.6897" height="38.6897" fill="white" transform="translate(0.0683594 0.241211)"/>
</clipPath>
</defs>
</svg>
