<svg width="34" height="34" viewBox="0 0 34 34" fill="none" xmlns="http://www.w3.org/2000/svg">
<path d="M30.2867 1.36768H3.71202C2.41701 1.36768 1.36719 2.41749 1.36719 3.7125V30.2872C1.36719 31.5823 2.41701 32.632 3.71202 32.632H30.2867C31.5818 32.632 32.6316 31.5823 32.6316 30.2872V3.7125C32.6316 2.41749 31.5818 1.36768 30.2867 1.36768Z" stroke="#2EAF4A" stroke-width="2" stroke-linejoin="round"/>
<path d="M7.62012 13.134C10.2189 10.0076 13.3453 8.44434 16.9994 8.44434C20.6535 8.44434 23.78 10.0076 26.3787 13.134" stroke="#2EAF4A" stroke-width="2" stroke-linecap="round"/>
<path d="M18.3449 20.1261C18.3449 20.8688 17.7429 21.4709 17.0001 21.4709C16.2573 21.4709 15.6553 20.8688 15.6553 20.1261C15.6553 19.3833 16.2573 18.7812 17.0001 18.7812C17.7429 18.7812 18.3449 19.3833 18.3449 20.1261Z" fill="white" stroke="#2EAF4A" stroke-width="2"/>
<path d="M13.0918 14.6548L17.0063 20.126" stroke="#2EAF4A" stroke-width="2" stroke-linecap="round"/>
</svg>
