<svg width="238" height="166" viewBox="0 0 238 166" fill="none" xmlns="http://www.w3.org/2000/svg">
<g clip-path="url(#clip0_821_2082)">
<path d="M198.857 25.525L180.498 25.7042C179.635 21.4471 176.735 10.2773 179.346 7.23056C179.465 6.08386 180.021 5.02734 180.898 4.28093C181.775 3.53453 182.905 3.15575 184.054 3.22345C186.899 -1.24001 191.639 -0.569846 194.843 2.21778C198.067 3.33252 199.282 5.31291 198.857 8.00039C201.245 10.0946 201.686 12.6426 200.614 15.5429L198.857 25.525Z" fill="#2F2E41"/>
<path d="M197.091 36.8582L183.845 35.0204L181.195 31.1406C184.845 28.715 186.136 25.3271 184.456 20.7264L193.626 20.5222C193.197 24.6192 194.549 27.7913 198.313 29.7112L197.091 36.8582Z" fill="#FFB9B9"/>
<path d="M180.713 156.577L180.206 163.515C180.183 163.829 180.227 164.145 180.336 164.44C180.445 164.736 180.615 165.004 180.836 165.228C181.057 165.453 181.323 165.627 181.616 165.739C181.91 165.852 182.224 165.9 182.538 165.881L186.094 165.665C186.259 165.655 186.42 165.609 186.565 165.53C186.71 165.451 186.835 165.34 186.933 165.207C187.031 165.073 187.098 164.92 187.129 164.758C187.161 164.595 187.157 164.428 187.117 164.268L185.143 156.355L180.713 156.577Z" fill="black"/>
<path d="M192.226 156.355L190.252 164.268C190.212 164.428 190.208 164.595 190.24 164.758C190.272 164.92 190.339 165.073 190.436 165.207C190.534 165.34 190.66 165.451 190.805 165.53C190.95 165.609 191.11 165.655 191.275 165.665L194.831 165.881C195.145 165.9 195.459 165.852 195.753 165.739C196.046 165.627 196.312 165.453 196.533 165.228C196.754 165.004 196.924 164.736 197.033 164.44C197.142 164.145 197.186 163.829 197.163 163.515L196.657 156.577L192.226 156.355Z" fill="black"/>
<path d="M196.887 157.54L192.087 157.058L187.309 105.878L185.503 156.893L180.787 156.724L172.84 86.0703H203.204L196.887 157.54Z" fill="#293688"/>
<path d="M189.55 23.9935C194.615 23.9935 198.721 19.8794 198.721 14.8045C198.721 9.72954 194.615 5.61548 189.55 5.61548C184.486 5.61548 180.38 9.72954 180.38 14.8045C180.38 19.8794 184.486 23.9935 189.55 23.9935Z" fill="#FFB9B9"/>
<path d="M207.687 87.7039L170.598 88.1123C176.102 67.1159 179.394 47.6119 173.654 34.2035L182.825 29.7111C187.247 34.3325 192.171 33.8561 197.497 29.3027L206.26 31.5489C204.759 49.132 205.432 67.9636 207.687 87.7039Z" fill="#0082C0"/>
<path d="M160.409 66.0586L183.437 75.2476L188.585 76.765C188.816 76.8328 189.057 76.8534 189.296 76.8253C189.534 76.7972 189.764 76.7212 189.973 76.6017C190.181 76.4822 190.363 76.3218 190.508 76.13C190.653 75.9382 190.758 75.719 190.816 75.4857C190.918 75.0765 190.872 74.6444 190.686 74.2659C190.501 73.8873 190.187 73.5869 189.802 73.4179L184.456 71.7762L168.357 62.383L171.719 53.5003L164.689 49.7227L160.409 66.0586Z" fill="#FFB9B9"/>
<path d="M160.612 49.3144C164.994 51.0271 168.478 53.9502 171.209 57.8908L179.768 45.4346L173.655 34.2036L160.612 49.3144Z" fill="#006DA0"/>
<path d="M199.886 13.3153C196.164 12.3544 192.504 12.2224 188.947 13.4413C186.681 14.541 183.96 14.4397 180.934 13.5336V4.36572L197.272 4.80229L199.886 13.3153Z" fill="#2F2E41"/>
<path d="M183.361 55.3523C182.64 55.3531 181.95 55.6401 181.441 56.1503C180.932 56.6605 180.645 57.3523 180.645 58.0738L181.717 80.5612C181.717 81.2828 182.004 81.9745 182.513 82.4848C183.022 82.995 183.713 83.282 184.433 83.2828H196.69C197.41 83.282 198.1 82.995 198.609 82.4848C199.119 81.9745 199.405 81.2828 199.406 80.5612L200.478 58.0738C200.477 57.3523 200.191 56.6605 199.681 56.1503C199.172 55.6401 198.482 55.3531 197.762 55.3523H183.361Z" fill="#FF6584"/>
<path d="M218.137 64.3598L198.065 72.3683L196.551 72.9726C196.503 72.9914 196.455 73.0075 196.404 73.0236L191.33 74.5195C190.682 74.7102 189.784 73.8347 189.258 73.2304C188.998 72.9392 188.851 72.5643 188.843 72.1735C188.835 71.7828 188.967 71.4022 189.216 71.1007C189.286 71.0197 189.363 70.9452 189.446 70.8778C189.642 70.7253 189.872 70.6238 190.116 70.5824L195.184 69.5834C195.366 69.5476 195.541 69.4823 195.702 69.39L198.066 68.0096L210.338 60.8497C210.679 60.6509 210.939 60.3372 211.071 59.9644C211.203 59.5916 211.199 59.1839 211.059 58.814L208.717 52.6236C208.573 52.2449 208.572 51.8267 208.713 51.4471C208.855 51.0676 209.129 50.7526 209.486 50.5611L213.367 48.477C213.588 48.3578 213.834 48.2904 214.086 48.2802C214.337 48.2699 214.588 48.317 214.818 48.4178C215.049 48.5187 215.254 48.6707 215.418 48.8624C215.581 49.054 215.699 49.2804 215.763 49.5244L219.132 62.3832C219.235 62.7775 219.191 63.1962 219.008 63.5603C218.825 63.9244 218.515 64.2087 218.137 64.3598Z" fill="#FFB9B9"/>
<path d="M219.303 47.068C214.922 48.7807 211.437 51.7038 208.706 55.6444L200.147 43.1882L206.261 31.5488L219.303 47.068Z" fill="#006DA0"/>
<path d="M195.653 22.9833C191.641 24.6554 187.435 24.5875 183.056 22.9833C184.33 20.8042 182.426 19.0975 181.448 16.8977L197.797 16.4109C196.547 18.3219 194.702 20.5797 195.653 22.9833Z" fill="white"/>
<path d="M197.624 16.7745L197.435 16.5846L197.703 16.316L199.304 14.4436L199.507 14.6182L197.899 16.4981L197.624 16.7745Z" fill="white"/>
<path d="M180.328 15.6361L180.156 15.8425L181.764 17.1853L181.936 16.9789L180.328 15.6361Z" fill="white"/>
<path d="M198.086 18.3533L195.271 22.7842L195.498 22.9284L198.312 18.4976L198.086 18.3533Z" fill="white"/>
<path d="M180.624 18.3529L180.397 18.4971L183.212 22.9284L183.438 22.7841L180.624 18.3529Z" fill="white"/>
<path d="M198.601 67.6299V72.4953L196.911 73.1698C196.857 73.1908 196.803 73.2088 196.747 73.2268L191.083 74.8965C190.359 75.1093 189.357 74.1321 188.771 73.4576C188.48 73.1325 188.316 72.714 188.307 72.2779C188.298 71.8417 188.446 71.4169 188.723 71.0803C188.801 70.9899 188.887 70.9067 188.98 70.8315C189.198 70.6613 189.455 70.548 189.728 70.5017L195.385 69.3866C195.588 69.3467 195.783 69.2738 195.963 69.1707L198.601 67.6299Z" fill="#FFE8E8"/>
<path d="M201.051 50.2753H200.083C200.083 36.5489 197.262 26.9832 194.514 26.9832L194.271 26.0127C196.736 26.0127 198.308 29.9939 199.192 33.3338C200.391 37.8616 201.051 43.8782 201.051 50.2753Z" fill="#3F3D56"/>
<path d="M178.774 46.8786H177.806C177.806 34.3075 180.646 26.498 184.828 26.498L184.585 27.4686C181.693 27.4686 178.774 33.4703 178.774 46.8786Z" fill="#3F3D56"/>
<path d="M200.567 52.9443C201.904 52.9443 202.988 51.858 202.988 50.5181C202.988 49.1781 201.904 48.0918 200.567 48.0918C199.23 48.0918 198.146 49.1781 198.146 50.5181C198.146 51.858 199.23 52.9443 200.567 52.9443Z" fill="#3F3D56"/>
<path d="M174.9 52.7016H173.932C173.932 49.2232 175.887 46.3933 178.29 46.3933V47.3638C176.421 47.3638 174.9 49.7583 174.9 52.7016Z" fill="#3F3D56"/>
<path d="M182.648 52.7016H181.68C181.68 49.7583 180.159 47.3638 178.29 47.3638V46.3933C180.693 46.3933 182.648 49.2232 182.648 52.7016Z" fill="#3F3D56"/>
<path d="M182.165 53.9149C182.7 53.9149 183.133 53.4804 183.133 52.9444C183.133 52.4084 182.7 51.9739 182.165 51.9739C181.63 51.9739 181.196 52.4084 181.196 52.9444C181.196 53.4804 181.63 53.9149 182.165 53.9149Z" fill="#3F3D56"/>
<path d="M174.416 53.9149C174.951 53.9149 175.384 53.4804 175.384 52.9444C175.384 52.4084 174.951 51.9739 174.416 51.9739C173.881 51.9739 173.447 52.4084 173.447 52.9444C173.447 53.4804 173.881 53.9149 174.416 53.9149Z" fill="#3F3D56"/>
<path d="M57.6962 20.3295L40.6861 23.2159C40.2659 23.2878 39.834 23.2009 39.4741 22.972C39.1142 22.7432 38.8517 22.3887 38.7376 21.9772C37.5086 17.5326 34.9392 11.7345 37.4339 8.82387C37.561 7.59939 38.1545 6.47119 39.0908 5.67415C40.0271 4.87711 41.2342 4.47263 42.4607 4.54492C45.4994 -0.221347 50.5608 0.494278 53.9817 3.47102C57.4245 4.66138 58.7225 6.77613 58.2686 9.64594C59.7559 10.9505 60.5356 12.4198 60.7 14.0326C60.778 14.9301 60.664 15.8339 60.3658 16.6837C60.0675 17.5336 59.5918 18.3099 58.9703 18.9609L57.6962 20.3295Z" fill="#2F2E41"/>
<path d="M55.0518 33.7482L41.8652 32.971C43.1576 29.9988 43.6738 27.1368 43.158 24.4211H52.9834C52.9611 26.5062 53.9966 30.113 55.0518 33.7482Z" fill="#9F616A"/>
<path d="M39.179 155.844L38.6381 163.253C38.6136 163.588 38.661 163.925 38.777 164.24C38.8931 164.556 39.0751 164.843 39.3109 165.082C39.5467 165.321 39.8308 165.507 40.1442 165.628C40.4576 165.748 40.7931 165.799 41.128 165.779L44.9259 165.549C45.1019 165.538 45.2733 165.488 45.4281 165.404C45.5828 165.319 45.7171 165.202 45.8213 165.059C45.9256 164.917 45.9972 164.753 46.0312 164.58C46.0651 164.406 46.0606 164.227 46.0178 164.056L43.9097 155.607L39.179 155.844Z" fill="black"/>
<path d="M51.474 155.607L49.3659 164.056C49.3232 164.227 49.3186 164.406 49.3526 164.58C49.3865 164.753 49.4582 164.917 49.5624 165.059C49.6666 165.202 49.8009 165.319 49.9557 165.404C50.1104 165.488 50.2819 165.538 50.4579 165.549L54.2557 165.779C54.5907 165.799 54.9261 165.748 55.2395 165.628C55.5529 165.507 55.8371 165.321 56.0729 165.082C56.3087 164.843 56.4907 164.556 56.6067 164.24C56.7228 163.925 56.7701 163.588 56.7456 163.253L56.2048 155.844L51.474 155.607Z" fill="black"/>
<path d="M56.4495 156.872L51.3244 156.357L46.2219 101.705L44.2935 156.181L39.2583 156L30.7715 80.5537H63.1955L56.4495 156.872Z" fill="#293688"/>
<path d="M48.3296 27.5662C53.7379 27.5662 58.1221 23.173 58.1221 17.7538C58.1221 12.3346 53.7379 7.94141 48.3296 7.94141C42.9214 7.94141 38.5371 12.3346 38.5371 17.7538C38.5371 23.173 42.9214 27.5662 48.3296 27.5662Z" fill="#9F616A"/>
<path d="M59.3668 13.0665C55.3923 12.3729 51.4847 12.2776 47.6861 13.1574C45.2664 13.9511 42.3605 13.878 39.1289 13.224V6.60693L56.5753 6.92203L59.3668 13.0665Z" fill="#2F2E41"/>
<path d="M54.8464 25.6272C50.5624 27.4127 46.0705 27.3402 41.3949 25.6272C42.7554 23.3002 40.7218 21.4778 39.6777 19.1288L57.136 18.6089C55.8009 20.6495 53.8309 23.0605 54.8464 25.6272Z" fill="white"/>
<path d="M38.4764 17.7887L38.3047 17.9951L40.0218 19.4289L40.1935 19.2225L38.4764 17.7887Z" fill="white"/>
<path d="M57.4531 20.6877L54.4473 25.4192L54.6734 25.5634L57.6792 20.8319L57.4531 20.6877Z" fill="white"/>
<path d="M38.7896 20.6876L38.5635 20.8318L41.5686 25.5637L41.7947 25.4195L38.7896 20.6876Z" fill="white"/>
<path d="M29.7131 62.5067L22.2148 57.8432L28.6095 39.0763C29.3228 37.1398 30.6888 35.5139 32.4716 34.4797L34.6258 33.23L34.8131 52.1622L29.7131 62.5067Z" fill="#006DA0"/>
<path d="M62.124 71.6214L61.0146 62.1002C60.9554 57.0746 61.8086 52.2159 63.8432 47.7389L64.8774 33.7483L53.5007 29.0847C53.4658 29.317 53.4362 29.5492 53.4029 29.7814L48.071 32.4528L42.8709 31.2686L42.8997 29.6029L32.5573 34.2665C35.9775 50.1997 34.1121 66.7457 28.2305 86.2894L41.8557 90.0226L41.969 83.4669L54.112 82.5978C54.2371 84.7247 54.3376 86.8138 54.3959 88.8567C61.2478 91.3844 61.4832 91.3425 67.7262 87.7233C65.24 82.4855 63.2715 77.0352 62.124 71.6214Z" fill="#0082C0"/>
<path d="M79.6146 60.1748L72.6335 57.8432L61.4668 44.8171L64.8765 33.7483L80.3902 55.5115L79.6146 60.1748Z" fill="#006DA0"/>
<path d="M57.7363 70.2595C57.8506 70.7618 58.1589 71.1982 58.5937 71.473C59.0286 71.7479 59.5545 71.8387 60.056 71.7256L65.9821 70.3808L65.1256 66.5906L59.1994 67.9351C58.6978 68.049 58.2619 68.3578 57.9875 68.7937C57.7132 69.2296 57.6228 69.7569 57.7363 70.2595Z" fill="#FFE8E8"/>
<path d="M63.0674 65.8749L66.4287 72.093C72.0823 70.5129 76.9821 65.5318 81.6838 59.6568L80.391 55.5115L72.3756 57.5842L63.0674 65.8749Z" fill="#006DA0"/>
<path d="M19.2412 46.3701L25.694 47.5247L40.4433 68.5389L32.6078 66.6914L19.2412 46.3701Z" fill="#E6E6E6"/>
<path d="M18.0962 46.113C17.9979 46.1145 17.9018 46.1425 17.8179 46.1939C17.734 46.2454 17.6655 46.3184 17.6195 46.4055C17.5735 46.4926 17.5516 46.5905 17.5563 46.6889C17.5609 46.7874 17.5919 46.8827 17.6459 46.9651L31.4326 67.9253C31.5095 68.0425 31.6283 68.1257 31.7646 68.1577L38.1792 69.67C38.2873 69.6955 38.4006 69.6875 38.5041 69.647C38.6076 69.6064 38.6964 69.5353 38.7586 69.4431C38.8208 69.3509 38.8536 69.2419 38.8526 69.1305C38.8515 69.0192 38.8168 68.9108 38.7528 68.8197L23.6159 47.2532C23.5749 47.1945 23.5227 47.1444 23.4623 47.1059C23.4019 47.0673 23.3345 47.0411 23.2641 47.0287L18.1996 46.1224C18.1655 46.1163 18.1309 46.1131 18.0962 46.113Z" fill="#FF6584"/>
<path d="M26.6963 61.0994L27.0795 64.9668L33.1258 64.3653C33.6376 64.3144 34.1083 64.0619 34.4343 63.6633C34.7603 63.2647 34.9149 62.7526 34.8641 62.2398C34.8133 61.7269 34.5612 61.2553 34.1634 60.9287C33.7656 60.602 33.2546 60.4471 32.7428 60.498L26.6963 61.0994Z" fill="#FFE8E8"/>
<path d="M21.4395 60.6515C21.4482 61.9702 21.9768 63.2319 22.9099 64.1618C23.8431 65.0917 25.1051 65.6144 26.4212 65.6159H27.4154L28.1392 59.5718L22.1462 57.4099L21.4395 60.6515Z" fill="#006DA0"/>
<path d="M56.6592 19.2775L56.4697 19.0876L56.756 18.8008L58.4662 16.8008L58.6696 16.9753L56.9524 18.9829L56.6592 19.2775Z" fill="white"/>
<path d="M238 165.463H0V166H238V165.463Z" fill="#3F3D56"/>
<path d="M90.8584 165.194H147.142V96.7872C147.142 93.1649 143.582 90.218 139.205 90.218H98.7956C94.4189 90.218 90.8584 93.1649 90.8584 96.7872V165.194Z" fill="#E6E6E6"/>
<path d="M95.1465 162.366H142.854V104.382C142.854 101.312 139.836 98.8142 136.126 98.8142H101.874C98.1645 98.8142 95.1465 101.312 95.1465 104.382V162.366Z" fill="white"/>
<path d="M90.4332 84.8943C89.042 84.8943 87.9102 85.8311 87.9102 86.9824V93.01C87.9102 94.1614 89.042 95.0982 90.4332 95.0982H147.567C148.959 95.0982 150.09 94.1614 150.09 93.01V86.9824C150.09 85.8311 148.959 84.8943 147.567 84.8943H90.4332Z" fill="#3C58BF"/>
<path d="M102.163 154.931C101.51 154.933 100.884 155.193 100.422 155.656C99.9605 156.119 99.7002 156.746 99.6982 157.401C99.7002 158.055 99.9604 158.682 100.422 159.145C100.884 159.608 101.51 159.868 102.163 159.87H106.777V154.931H102.163Z" fill="#3F3D56"/>
<path d="M111.012 154.931H106.524V159.87H111.012C111.665 159.869 112.291 159.608 112.753 159.145C113.214 158.682 113.475 158.055 113.477 157.401C113.475 156.746 113.214 156.119 112.753 155.656C112.291 155.193 111.665 154.933 111.012 154.931Z" fill="#0082C0"/>
<path opacity="0.2" d="M112.62 155.535C113.009 155.982 113.223 156.554 113.224 157.147C113.222 157.802 112.962 158.429 112.5 158.891C112.038 159.354 111.412 159.615 110.759 159.617H106.524V159.87H111.012C111.665 159.868 112.291 159.608 112.753 159.145C113.214 158.682 113.475 158.055 113.477 157.4C113.476 157.046 113.399 156.696 113.251 156.374C113.104 156.052 112.888 155.766 112.62 155.535Z" fill="black"/>
<path d="M122.983 117.728C122.534 117.253 121.915 116.975 121.262 116.956C120.609 116.937 119.975 117.177 119.499 117.624C119.025 118.075 118.748 118.695 118.729 119.349C118.709 120.003 118.949 120.638 119.396 121.116L122.561 124.48L126.148 121.092L122.983 117.728Z" fill="#3F3D56"/>
<path d="M129.053 124.179L125.975 120.907L122.388 124.296L125.466 127.568C125.915 128.043 126.534 128.32 127.187 128.339C127.84 128.359 128.473 128.118 128.95 127.671C129.424 127.22 129.701 126.601 129.72 125.946C129.739 125.292 129.5 124.657 129.053 124.179Z" fill="#0082C0"/>
<path opacity="0.2" d="M129.717 125.767C129.659 126.357 129.391 126.906 128.961 127.313C128.484 127.76 127.85 128.001 127.197 127.981C126.544 127.962 125.926 127.685 125.476 127.21L122.572 124.122L122.388 124.296L125.466 127.568C125.915 128.043 126.534 128.32 127.187 128.339C127.84 128.359 128.473 128.118 128.95 127.671C129.207 127.427 129.408 127.131 129.541 126.803C129.673 126.474 129.733 126.121 129.717 125.767Z" fill="black"/>
<path d="M109.85 125.516C109.401 125.041 108.782 124.764 108.129 124.744C107.476 124.725 106.842 124.965 106.366 125.413C105.892 125.863 105.615 126.483 105.596 127.137C105.577 127.791 105.816 128.427 106.263 128.904L109.428 132.268L113.015 128.88L109.85 125.516Z" fill="#3F3D56"/>
<path d="M115.919 131.968L112.841 128.696L109.254 132.084L112.332 135.356C112.781 135.831 113.4 136.108 114.053 136.128C114.706 136.147 115.34 135.907 115.816 135.459C116.29 135.009 116.567 134.389 116.586 133.735C116.606 133.081 116.366 132.445 115.919 131.968Z" fill="#0082C0"/>
<path opacity="0.2" d="M116.583 133.555C116.525 134.145 116.257 134.694 115.827 135.101C115.35 135.549 114.716 135.789 114.063 135.77C113.411 135.75 112.792 135.473 112.342 134.998L109.438 131.91L109.254 132.084L112.332 135.356C112.781 135.831 113.4 136.108 114.053 136.128C114.706 136.147 115.34 135.907 115.816 135.459C116.073 135.216 116.275 134.92 116.407 134.591C116.539 134.263 116.599 133.909 116.583 133.555Z" fill="black"/>
<path d="M122.983 132.767C122.534 132.292 121.915 132.015 121.262 131.995C120.609 131.976 119.975 132.217 119.499 132.664C119.025 133.114 118.748 133.734 118.729 134.388C118.709 135.043 118.949 135.678 119.396 136.155L122.561 139.52L126.148 136.131L122.983 132.767Z" fill="#3F3D56"/>
<path d="M129.053 139.219L125.975 135.947L122.388 139.335L125.466 142.607C125.915 143.082 126.534 143.36 127.187 143.379C127.84 143.398 128.473 143.158 128.95 142.71C129.424 142.26 129.701 141.64 129.72 140.986C129.739 140.332 129.5 139.696 129.053 139.219Z" fill="#0082C0"/>
<path opacity="0.2" d="M129.717 140.807C129.659 141.396 129.391 141.945 128.961 142.352C128.484 142.8 127.85 143.04 127.197 143.021C126.544 143.002 125.926 142.724 125.476 142.249L122.572 139.162L122.388 139.335L125.466 142.607C125.915 143.082 126.534 143.36 127.187 143.379C127.84 143.398 128.473 143.158 128.95 142.71C129.207 142.467 129.408 142.171 129.541 141.842C129.673 141.514 129.733 141.161 129.717 140.807Z" fill="black"/>
<path d="M130.995 148.201C131.464 147.745 131.733 147.121 131.744 146.467C131.756 145.813 131.508 145.18 131.056 144.708C130.601 144.239 129.979 143.969 129.326 143.958C128.673 143.946 128.042 144.194 127.571 144.648L124.252 147.859L127.677 151.412L130.995 148.201Z" fill="#3F3D56"/>
<path d="M124.63 154.36L127.858 151.236L124.433 147.683L121.206 150.807C120.737 151.263 120.468 151.886 120.456 152.541C120.445 153.195 120.693 153.827 121.145 154.3C121.6 154.769 122.222 155.039 122.875 155.05C123.528 155.062 124.159 154.813 124.63 154.36Z" fill="#0082C0"/>
<path opacity="0.2" d="M123.054 155.045C122.465 154.994 121.914 154.732 121.502 154.306C121.05 153.834 120.803 153.201 120.814 152.547C120.825 151.893 121.095 151.269 121.563 150.813L124.609 147.866L124.433 147.683L121.206 150.807C120.737 151.263 120.468 151.886 120.456 152.541C120.445 153.195 120.693 153.827 121.145 154.3C121.391 154.554 121.689 154.752 122.018 154.881C122.348 155.009 122.701 155.065 123.054 155.045Z" fill="black"/>
<path d="M113.306 140.412C113.774 139.956 114.044 139.333 114.055 138.679C114.066 138.024 113.819 137.392 113.366 136.92C112.911 136.451 112.289 136.181 111.636 136.169C110.983 136.158 110.352 136.406 109.881 136.859L106.562 140.071L109.987 143.624L113.306 140.412Z" fill="#3F3D56"/>
<path d="M106.941 146.572L110.169 143.448L106.744 139.895L103.516 143.019C103.048 143.475 102.778 144.098 102.767 144.753C102.756 145.407 103.003 146.039 103.456 146.511C103.911 146.981 104.533 147.25 105.186 147.262C105.839 147.273 106.47 147.025 106.941 146.572Z" fill="#0082C0"/>
<path opacity="0.2" d="M105.365 147.256C104.775 147.206 104.224 146.943 103.813 146.517C103.361 146.045 103.113 145.413 103.124 144.759C103.136 144.104 103.405 143.481 103.874 143.025L106.919 140.077L106.744 139.895L103.516 143.019C103.048 143.475 102.778 144.098 102.767 144.753C102.756 145.407 103.003 146.039 103.456 146.511C103.702 146.766 104 146.964 104.329 147.093C104.658 147.221 105.012 147.277 105.365 147.256Z" fill="black"/>
<path d="M138.499 131.013C138.968 130.557 139.237 129.933 139.248 129.279C139.26 128.625 139.012 127.992 138.56 127.52C138.105 127.051 137.483 126.781 136.83 126.77C136.177 126.758 135.546 127.006 135.074 127.46L131.756 130.671L135.181 134.224L138.499 131.013Z" fill="#3F3D56"/>
<path d="M132.135 137.172L135.363 134.048L131.938 130.495L128.71 133.619C128.242 134.075 127.973 134.698 127.961 135.353C127.95 136.007 128.198 136.639 128.65 137.112C129.105 137.581 129.727 137.851 130.38 137.862C131.033 137.874 131.664 137.625 132.135 137.172Z" fill="#0082C0"/>
<path opacity="0.2" d="M130.559 137.857C129.97 137.806 129.419 137.544 129.007 137.118C128.555 136.646 128.307 136.013 128.319 135.359C128.33 134.705 128.599 134.081 129.068 133.625L132.114 130.678L131.938 130.495L128.71 133.619C128.242 134.075 127.973 134.698 127.961 135.353C127.95 136.007 128.198 136.639 128.65 137.112C128.896 137.366 129.194 137.564 129.523 137.693C129.853 137.821 130.206 137.877 130.559 137.857Z" fill="black"/>
<path d="M132.9 150.492C132.451 150.017 131.832 149.74 131.179 149.721C130.526 149.701 129.892 149.942 129.416 150.389C128.942 150.839 128.665 151.459 128.646 152.114C128.626 152.768 128.866 153.403 129.313 153.881L132.478 157.245L136.065 153.856L132.9 150.492Z" fill="#3F3D56"/>
<path d="M138.969 156.944L135.891 153.672L132.304 157.06L135.382 160.332C135.831 160.807 136.45 161.085 137.103 161.104C137.756 161.123 138.389 160.883 138.866 160.435C139.34 159.985 139.617 159.365 139.636 158.711C139.655 158.057 139.416 157.422 138.969 156.944Z" fill="#0082C0"/>
<path opacity="0.2" d="M139.633 158.532C139.575 159.121 139.307 159.67 138.877 160.077C138.4 160.525 137.766 160.765 137.113 160.746C136.46 160.727 135.842 160.449 135.392 159.974L132.488 156.887L132.304 157.06L135.382 160.332C135.831 160.807 136.45 161.085 137.103 161.104C137.756 161.123 138.389 160.883 138.866 160.435C139.123 160.192 139.324 159.896 139.457 159.567C139.589 159.239 139.649 158.886 139.633 158.532Z" fill="black"/>
<path d="M115.478 150.224C115.029 149.749 114.41 149.471 113.757 149.452C113.104 149.433 112.47 149.673 111.994 150.121C111.52 150.571 111.243 151.191 111.224 151.845C111.204 152.499 111.444 153.134 111.891 153.612L115.056 156.976L118.643 153.588L115.478 150.224Z" fill="#3F3D56"/>
<path d="M121.548 156.675L118.47 153.404L114.883 156.792L117.961 160.064C118.41 160.539 119.029 160.816 119.682 160.835C120.335 160.855 120.969 160.614 121.445 160.167C121.919 159.717 122.196 159.097 122.215 158.442C122.235 157.788 121.995 157.153 121.548 156.675Z" fill="#0082C0"/>
<path opacity="0.2" d="M122.212 158.263C122.154 158.853 121.886 159.402 121.456 159.809C120.979 160.256 120.345 160.497 119.692 160.477C119.039 160.458 118.421 160.181 117.971 159.706L115.067 156.618L114.883 156.792L117.961 160.064C118.41 160.539 119.029 160.816 119.682 160.835C120.335 160.855 120.969 160.614 121.445 160.167C121.702 159.923 121.903 159.627 122.036 159.299C122.168 158.97 122.228 158.617 122.212 158.263Z" fill="#0082C0"/>
<path d="M120.382 141.363C120.382 142.184 120.099 142.98 119.581 143.616C119.063 144.252 118.341 144.69 117.538 144.854C117.069 144.949 116.586 144.949 116.116 144.854C115.313 144.689 114.592 144.252 114.074 143.616C113.555 142.98 113.272 142.184 113.272 141.363C113.272 140.542 113.555 139.746 114.074 139.11C114.592 138.474 115.313 138.037 116.116 137.872C116.586 137.777 117.069 137.777 117.538 137.872C118.341 138.036 119.063 138.474 119.581 139.11C120.099 139.746 120.382 140.542 120.382 141.363Z" fill="#0082C0"/>
<path opacity="0.2" d="M117.538 137.872V144.854C117.069 144.949 116.585 144.949 116.116 144.854V137.872C116.585 137.777 117.069 137.777 117.538 137.872Z" fill="black"/>
<path d="M121.99 127.129C121.991 127.95 121.708 128.746 121.189 129.382C120.671 130.018 119.949 130.456 119.147 130.62C118.677 130.715 118.194 130.715 117.725 130.62C116.922 130.455 116.2 130.018 115.682 129.382C115.164 128.746 114.881 127.95 114.881 127.129C114.881 126.308 115.164 125.512 115.682 124.876C116.2 124.24 116.922 123.803 117.725 123.638C118.194 123.543 118.677 123.543 119.147 123.638C119.95 123.803 120.671 124.24 121.189 124.876C121.708 125.512 121.991 126.308 121.99 127.129Z" fill="#0082C0"/>
<path opacity="0.2" d="M119.147 123.638V130.62C118.677 130.715 118.194 130.715 117.725 130.62V123.638C118.194 123.543 118.677 123.543 119.147 123.638Z" fill="black"/>
<path d="M121.99 147.54C121.991 148.361 121.708 149.157 121.189 149.793C120.671 150.429 119.949 150.866 119.147 151.031C118.677 151.125 118.194 151.125 117.725 151.031C116.922 150.866 116.2 150.429 115.682 149.793C115.164 149.157 114.881 148.361 114.881 147.54C114.881 146.719 115.164 145.923 115.682 145.287C116.2 144.651 116.922 144.213 117.725 144.049C118.194 143.954 118.677 143.954 119.147 144.049C119.95 144.213 120.671 144.65 121.189 145.287C121.708 145.923 121.991 146.719 121.99 147.54Z" fill="#0082C0"/>
<path opacity="0.2" d="M119.147 144.049V151.031C118.677 151.125 118.194 151.125 117.725 151.031V144.049C118.194 143.954 118.677 143.954 119.147 144.049Z" fill="black"/>
<path d="M130.835 157.477C130.835 158.298 130.552 159.094 130.034 159.73C129.516 160.366 128.794 160.803 127.991 160.968C127.522 161.063 127.039 161.063 126.569 160.968C125.767 160.803 125.045 160.366 124.527 159.73C124.009 159.094 123.726 158.298 123.726 157.477C123.726 156.656 124.009 155.86 124.527 155.224C125.045 154.588 125.767 154.15 126.569 153.986C127.039 153.891 127.522 153.891 127.991 153.986C128.794 154.15 129.516 154.587 130.034 155.224C130.552 155.86 130.835 156.656 130.835 157.477Z" fill="#0082C0"/>
<path opacity="0.2" d="M127.991 153.986V160.968C127.522 161.063 127.039 161.063 126.569 160.968V153.986C127.039 153.891 127.522 153.891 127.991 153.986Z" fill="black"/>
<path d="M138.648 139.194C139.238 139.764 139.614 140.52 139.711 141.336C139.809 142.151 139.622 142.975 139.183 143.668C138.925 144.073 138.59 144.422 138.196 144.694C137.521 145.159 136.706 145.377 135.889 145.309C135.072 145.241 134.304 144.893 133.714 144.323C133.124 143.754 132.749 142.997 132.651 142.182C132.554 141.367 132.74 140.543 133.179 139.849C133.437 139.445 133.772 139.096 134.166 138.823C134.841 138.358 135.656 138.141 136.473 138.208C137.29 138.276 138.058 138.624 138.648 139.194Z" fill="#0082C0"/>
<path opacity="0.2" d="M134.166 138.823L139.183 143.668C138.926 144.073 138.59 144.421 138.196 144.694L133.18 139.849C133.437 139.445 133.773 139.096 134.166 138.823Z" fill="black"/>
<path d="M139.72 146.983C140.31 147.552 140.686 148.309 140.783 149.124C140.881 149.939 140.694 150.763 140.255 151.457C139.998 151.861 139.662 152.21 139.268 152.483C138.593 152.948 137.778 153.165 136.961 153.097C136.145 153.03 135.376 152.682 134.786 152.112C134.196 151.542 133.821 150.785 133.723 149.97C133.626 149.155 133.813 148.331 134.252 147.638C134.509 147.233 134.845 146.884 135.238 146.612C135.914 146.146 136.729 145.929 137.545 145.997C138.362 146.064 139.13 146.413 139.72 146.983Z" fill="#0082C0"/>
<path opacity="0.2" d="M135.239 146.612L140.255 151.457C139.998 151.861 139.662 152.21 139.268 152.482L134.252 147.637C134.509 147.233 134.845 146.884 135.239 146.612Z" fill="black"/>
<path d="M107.827 148.862C108.417 149.432 108.792 150.189 108.89 151.004C108.987 151.819 108.801 152.643 108.361 153.337C108.104 153.741 107.768 154.09 107.375 154.362C106.699 154.828 105.884 155.045 105.068 154.977C104.251 154.91 103.483 154.561 102.893 153.992C102.303 153.422 101.927 152.665 101.83 151.85C101.732 151.035 101.919 150.211 102.358 149.517C102.615 149.113 102.951 148.764 103.345 148.492C104.02 148.026 104.835 147.809 105.652 147.877C106.468 147.944 107.237 148.292 107.827 148.862Z" fill="#0082C0"/>
<path opacity="0.2" d="M103.344 148.491L108.361 153.336C108.103 153.741 107.768 154.09 107.374 154.362L102.357 149.517C102.615 149.113 102.95 148.764 103.344 148.491Z" fill="black"/>
<path opacity="0.2" d="M96.3528 84.8943H95.0127V94.8311H96.3528V84.8943Z" fill="black"/>
<path opacity="0.2" d="M104.125 84.8943H102.785V94.8311H104.125V84.8943Z" fill="black"/>
<path opacity="0.2" d="M111.898 84.8943H110.558V94.8311H111.898V84.8943Z" fill="black"/>
<path opacity="0.2" d="M119.67 84.8943H118.33V94.8311H119.67V84.8943Z" fill="black"/>
<path opacity="0.2" d="M127.443 84.8943H126.103V94.8311H127.443V84.8943Z" fill="black"/>
<path opacity="0.2" d="M135.215 84.8943H133.875V94.8311H135.215V84.8943Z" fill="black"/>
<path opacity="0.2" d="M142.988 84.8943H141.647V94.8311H142.988V84.8943Z" fill="black"/>
</g>
<defs>
<clipPath id="clip0_821_2082">
<rect width="238" height="166" fill="white"/>
</clipPath>
</defs>
</svg>
