<svg xmlns="http://www.w3.org/2000/svg" id="Layer_1" viewBox="0 0 500 500"><defs><style>.cls-1{fill:#f8c694;}.cls-2{fill:#010000;}.cls-3{fill:#f77701;}.cls-4{fill:#fff;}.cls-5{fill:#e2edfd;}.cls-6{fill:#8bbdfa;}.cls-7{fill:#200200;}.cls-8{fill:#0a47d1;}.cls-9{fill:#102048;}.cls-10{fill:#0f2e6d;}.cls-11{stroke-width:.51px;}.cls-11,.cls-12,.cls-13,.cls-14,.cls-15,.cls-16,.cls-17,.cls-18{fill:none;}.cls-11,.cls-12,.cls-16{stroke:#000;}.cls-11,.cls-13,.cls-14,.cls-15,.cls-16,.cls-17{stroke-linecap:round;stroke-linejoin:round;}.cls-12{stroke-width:.75px;}.cls-12,.cls-18{stroke-miterlimit:10;}.cls-13{stroke-width:1.02px;}.cls-13,.cls-14,.cls-15,.cls-17,.cls-18{stroke:#fff;}.cls-14{stroke-width:2.14px;}.cls-15,.cls-16{stroke-width:1.3px;}.cls-17{stroke-width:.76px;}.cls-18{stroke-width:.5px;}</style></defs><g><path class="cls-5" d="M397.35,154.76s3.1-8.93,12.38-9.16c9.29-.23,5.95,5.5,15.72,4.58s6.19-11.91,21.43-14.2c15.24-2.29,21.67,18.78,21.67,18.78h-71.2Z"></path><path class="cls-5" d="M236.34,47.94s2.31-6.67,9.25-6.84,4.45,4.11,11.74,3.42c7.29-.68,4.62-8.9,16-10.61,11.38-1.71,16.18,14.03,16.18,14.03h-53.17Z"></path><path class="cls-5" d="M31.45,115.24s2.07-5.96,8.26-6.12c6.2-.15,3.97,3.67,10.49,3.06,6.52-.61,4.13-7.95,14.3-9.48,10.17-1.53,14.46,12.54,14.46,12.54H31.45Z"></path></g><g><g><g><rect class="cls-5" x="102.09" y="76.65" width="198.71" height="389.56" rx="28.47" ry="28.47"></rect><path class="cls-9" d="M272.34,86.4c10.32,0,18.72,8.4,18.72,18.72V437.75c0,10.32-8.4,18.72-18.72,18.72H130.56c-10.32,0-18.72-8.4-18.72-18.72V105.12c0-10.32,8.4-18.72,18.72-18.72h141.78m0-9.75H130.56c-15.72,0-28.47,12.75-28.47,28.47V437.75c0,15.72,12.75,28.47,28.47,28.47h141.78c15.72,0,28.47-12.75,28.47-28.47V105.12c0-15.72-12.75-28.47-28.47-28.47h0Z"></path><path class="cls-2" d="M245.8,77.64h-88.71v10.32c0,4.57,3.71,8.28,8.28,8.28h72.15c4.57,0,8.28-3.71,8.28-8.28v-10.32h0Z"></path><line class="cls-17" x1="184.93" y1="85.37" x2="218.95" y2="85.37"></line></g><g><g><rect class="cls-6" x="127.63" y="322.94" width="117.17" height="100.48" rx="7.93" ry="7.93"></rect><g><rect class="cls-4" x="144.02" y="337" width="29.59" height="29.59" rx="3.15" ry="3.15"></rect><line class="cls-16" x1="183.7" y1="346.33" x2="210.45" y2="346.33"></line><line class="cls-16" x1="183.7" y1="355.85" x2="226.83" y2="355.85"></line><line class="cls-15" x1="144.02" y1="378.9" x2="173.61" y2="378.9"></line><line class="cls-15" x1="144.02" y1="388.73" x2="226.83" y2="388.73"></line><line class="cls-15" x1="144.02" y1="399.57" x2="226.83" y2="399.57"></line></g></g><g><circle class="cls-9" cx="60.65" cy="173.02" r="23.73" transform="translate(-121.72 191.85) rotate(-76.58)"></circle><polyline class="cls-14" points="51.09 174.15 58.54 179.66 71.3 166.42"></polyline></g><g><rect class="cls-8" x="68.71" y="235.89" width="89.83" height="65.73" rx="5.19" ry="5.19"></rect><path class="cls-4" d="M127.47,263.4c0-7.84-6.35-14.19-14.19-14.19s-14.19,6.35-14.19,14.19c0,2.62,.72,5.06,1.96,7.17h0l.04,.05c.54,.92,1.18,1.77,1.91,2.54l10.29,13.62,10.27-13.61c.74-.78,1.39-1.64,1.93-2.56l.03-.04h0c1.24-2.11,1.96-4.55,1.96-7.17Zm-14.19,6.18c-3.45,0-6.25-2.8-6.25-6.25s2.8-6.25,6.25-6.25,6.25,2.8,6.25,6.25-2.8,6.25-6.25,6.25Z"></path></g><g><rect class="cls-4" x="124.98" y="125.73" width="152.88" height="100.48" rx="7.93" ry="7.93"></rect><g><g><rect class="cls-6" x="137.55" y="149.69" width="25.94" height="25.94" rx="2.76" ry="2.76"></rect><rect class="cls-6" x="170.6" y="149.69" width="25.94" height="25.94" rx="2.76" ry="2.76"></rect><rect class="cls-6" x="203.65" y="149.69" width="25.94" height="25.94" rx="2.76" ry="2.76"></rect><rect class="cls-3" x="236.7" y="149.69" width="25.94" height="25.94" rx="2.76" ry="2.76"></rect></g><g><rect class="cls-6" x="137.55" y="184.68" width="25.94" height="25.94" rx="2.76" ry="2.76"></rect><rect class="cls-6" x="170.6" y="184.68" width="25.94" height="25.94" rx="2.76" ry="2.76"></rect><rect class="cls-6" x="203.65" y="184.68" width="25.94" height="25.94" rx="2.76" ry="2.76"></rect><rect class="cls-6" x="236.7" y="184.68" width="25.94" height="25.94" rx="2.76" ry="2.76"></rect></g></g></g><g><rect class="cls-4" x="177.84" y="235.89" width="100.02" height="65.73" rx="5.19" ry="5.19"></rect><rect class="cls-6" x="190.44" y="243.34" width="76.58" height="14.94" rx="2.76" ry="2.76"></rect><g><line class="cls-16" x1="191.44" y1="268.07" x2="226.34" y2="268.07"></line><line class="cls-16" x1="191.44" y1="276.57" x2="266.02" y2="276.57"></line><line class="cls-16" x1="191.44" y1="285.94" x2="266.02" y2="285.94"></line></g></g><g><rect class="cls-9" x="262.47" y="344.33" width="64.59" height="57.69" rx="6.31" ry="6.31"></rect><path class="cls-4" d="M307.56,370.66l-2.12-.37c-.25-.92-.62-1.81-1.09-2.64l1.24-1.76c.45-.65,.38-1.53-.18-2.09l-1.27-1.27c-.57-.55-1.45-.61-2.09-.15l-1.76,1.24c-.83-.48-1.72-.85-2.64-1.09l-.36-2.17c-.13-.77-.79-1.34-1.57-1.35h-1.83c-.79,0-1.47,.57-1.61,1.35l-.37,2.12c-.92,.25-1.81,.62-2.64,1.09l-1.76-1.18c-.65-.45-1.53-.38-2.09,.18l-1.27,1.27c-.56,.56-.64,1.44-.18,2.09l1.24,1.76c-.48,.83-.85,1.72-1.09,2.64l-2.12,.37c-.78,.14-1.35,.81-1.35,1.61v1.8c0,.79,.57,1.47,1.35,1.61l2.12,.37c.25,.92,.62,1.81,1.09,2.64l-1.24,1.76c-.45,.65-.38,1.53,.18,2.09l1.27,1.27c.56,.56,1.44,.64,2.09,.18l1.76-1.24c.83,.48,1.72,.85,2.64,1.09l.37,2.12c.14,.78,.81,1.35,1.61,1.35h1.82c.79,0,1.47-.57,1.61-1.35l.37-2.12c.92-.25,1.81-.62,2.64-1.09l1.72,1.21c.65,.45,1.53,.38,2.09-.18l1.27-1.27c.56-.56,.64-1.44,.18-2.09l-1.24-1.78c.48-.83,.85-1.72,1.09-2.64l2.12-.37c.78-.14,1.35-.81,1.35-1.61v-1.8c0-.79-.57-1.47-1.35-1.6Zm-12.8,8.14c-3.11,0-5.64-2.52-5.64-5.64,0-3.11,2.52-5.64,5.64-5.64,3.11,0,5.64,2.52,5.64,5.64,0,.01,0,.02,0,.03-.02,3.1-2.54,5.6-5.64,5.6Z"></path></g></g></g><line class="cls-12" x1="46.17" y1="466.22" x2="456.11" y2="466.22"></line></g><g><g><g><path class="cls-6" d="M381.24,95.77h40.31c9.96,0,18.04-8.08,18.04-18.04h0c0-9.96-8.08-18.04-18.04-18.04h-40.31c-9.96,0-18.04,8.08-18.04,18.04h0c0,9.96,8.08,18.04,18.04,18.04Z"></path><polygon class="cls-6" points="395.42 91.79 382.34 104.64 379.96 90.84 395.42 91.79"></polygon></g><g><path class="cls-4" d="M395.34,72c-1.88-1.84-4.89-1.81-6.73,.07l-1.21,1.24-1.25-1.23c-1.87-1.85-4.89-1.82-6.73,.05-1.84,1.87-1.82,4.89,.05,6.73l4.63,4.56s.02,.02,.03,.03c.74,.72,1.65,1.16,2.6,1.3,1.47,.23,3.01-.24,4.13-1.37l4.56-4.65c1.84-1.88,1.81-4.89-.07-6.73Z"></path><line class="cls-13" x1="404.45" y1="73.6" x2="422.99" y2="73.6"></line><line class="cls-13" x1="404.45" y1="78.75" x2="414.23" y2="78.75"></line></g></g><g><g><g><g><g><path class="cls-7" d="M343.57,453.76l-11.86,6.53c-1.26,.69-2.02,2.28-1.63,3.78,.31,1.19,1.32,2.09,3.96,2.15,5.86,.12,31.81-4.21,31.81-4.21v3.73l12.12,.06s.76-17.63-2.91-19.88l-31.5,7.84Z"></path><path class="cls-1" d="M359.46,440.79l-15.89,12.97s2.04,5.86,11.1,1.95c9.05-3.91,20.4-9.8,20.4-9.8l-1.65-6.79-13.95,1.66Z"></path></g><polygon class="cls-1" points="373.41 439.13 375.07 392.05 359.32 390.77 359.32 445.92 373.41 439.13"></polygon></g><polygon class="cls-10" points="345.37 250.7 351.96 434.03 382.5 434.03 384.06 235.89 345.37 250.7"></polygon></g><g><path class="cls-9" d="M348.8,247.48l15.37,89.33c1.86,11.02,13.17,17.75,23.74,14.13h0c7.78-2.66,12.79-10.23,12.21-18.44l-2.94-40.57c-1.48-13.77,1.93-31.58-13.11-56.04l-35.26,11.6Z"></path><g><g><g><path class="cls-7" d="M429.57,449.26l-6.59,11.83c-.7,1.25-.5,3,.62,4.07,.89,.84,2.23,1.07,4.49-.28,5.03-3.01,24.73-20.44,24.73-20.44l1.98,3.16,10.31-6.38s-8.71-15.35-13.01-15.31l-22.54,23.36Z"></path><path class="cls-1" d="M436.16,429.84l-6.59,19.42s4.84,3.89,10.45-4.23,12.09-19.13,12.09-19.13l-5-4.88-10.95,8.81Z"></path></g><polygon class="cls-1" points="447.11 421.03 423.53 380.24 409.51 387.51 438.76 434.26 447.11 421.03"></polygon></g><polygon class="cls-9" points="366.45 343.05 423.22 427.71 449.68 410.75 394.81 318.64 366.45 343.05"></polygon></g></g></g><g><path class="cls-3" d="M324.1,102.4s-12.62-1.64-14.26,10.3c-1.22,8.89,2.87,13.26-.34,20.41s2.81,13.54,2.81,13.54c0,0,14.94,6.94,31.18-7.25l-19.39-36.99Z"></path><polygon class="cls-1" points="329 142.34 335.84 160.12 350.17 156.31 336.94 130.75 329 142.34"></polygon><polygon points="332.27 150.84 335.21 137.81 329.87 144.6 332.27 150.84"></polygon><path class="cls-1" d="M322.5,105.08s-8.5,1.79-8.51,12.58c0,0-.41,4.12,.13,15.36,.38,7.96,4.14,13.47,11.61,12.71,3.62-.37,7.42-2.58,10.81-5.44l4.76-4.85c11-13.43-.48-33.66-17.57-30.61-.41,.07-.82,.15-1.24,.25Z"></path><path class="cls-3" d="M334.76,123.61c.3-2.44,1.96-19.43-10.76-17.24-1.97,.34-2.98-2.29-1.28-3.35,4.55-2.84,11.77-4.8,22.21-.78,4.24,1.63,10.08,7.22,10.08,12.71,0,11.79-3.92,17.76-10.83,23.83-.35,.31-.91,.21-1.13-.21l-4.45-8.6s-.03-.06-.04-.09c-.49-1.56-2.97-4.84-3.66-5.75-.12-.15-.17-.33-.14-.52Z"></path><path class="cls-3" d="M326.24,102.2c-16,7.38,7.42,24.94,7.42,24.94h0l6.59-12.97s-11.33-13.2-14.01-11.97Z"></path><path class="cls-3" d="M335.95,130.82c1,7.12,.17,14.99,.17,14.99,0,0,20.2,6.49,29.37-16.49,0,0-5.86-2.26-7.66-7.3-1.8-5.04-.02-22.57-23.6-22.05,0,0,.59,22.83,1.72,30.85Z"></path><g><path class="cls-1" d="M343.71,127c.37,2.98-1.74,5.7-4.73,6.07-2.98,.37-5.7-1.74-6.07-4.73-.37-2.98,1.74-5.7,4.73-6.07,2.98-.37,5.7,1.74,6.07,4.73Z"></path><path class="cls-11" d="M335.95,129.97s.21-4.14,3.63-4.22"></path></g></g><g><g><g><path class="cls-1" d="M371.11,169.96l33.48,27.11c4.79,4.09,5.16,11.38,.8,15.93h0c-3.99,4.16-10.52,4.53-14.95,.84l-36.33-28.78,17.01-15.09Z"></path><path class="cls-8" d="M391.19,179.92s-1.43,10.79-20.24,23.18l-25.57-19.01c-7.14-5.31-8.18-15.6-2.25-22.23h0c4.91-5.49,13.07-6.65,19.32-2.74l28.75,20.79Z"></path></g><g><path class="cls-1" d="M390.57,214.23l33.21,42.66,8.14-9.55-24.82-47.38c-4.04-5.45-12-5.95-16.7-1.06h0c-4.13,4.3-4.05,11.12,.17,15.33Z"></path><path class="cls-1" d="M421.84,255.08l-.34,2.14c-.46,2.87-.24,5.81,.65,8.57l1.56,4.87c.37,1.16,1.69,1.71,2.77,1.15h0c.91-.47,1.45-1.45,1.35-2.47l-.51-5.41,10.8,15.29c.51,.76,1.57,.9,2.26,.3l.46-.4c.55-.48,.68-1.27,.32-1.9l-6.9-10.54,9.6,11.01c.56,.72,1.62,.8,2.27,.16l.32-.32c.55-.54,.61-1.4,.14-2.01l-7.93-10.21,7.73,6.43c.73,.64,1.87,.45,2.34-.4l.1-.17c.32-.58,.23-1.31-.23-1.79l-7.55-7.25,4.74,2.83c.87,.71,2.18,.26,2.44-.83h0c.12-.52-.04-1.07-.42-1.44l-19.26-18.03-3.94,4.5c-1.46,1.68-2.43,3.73-2.78,5.93Z"></path></g></g><path class="cls-8" d="M345.52,155.77s-13.16-1.28-13.33,22.49c-.17,23.83,7.35,35.06,13.18,72.44,0,0,22.31-2.74,38.69-14.81,0,0,1.02-87.54-38.54-80.12Z"></path><g><g><path class="cls-1" d="M342.86,187.61l-31.12,29.79c-4.67,4.24-11.94,3.68-15.9-1.22h0c-3.63-4.48-3.16-11.01,1.06-14.93l33.14-32.41,12.83,18.77Z"></path><g><path class="cls-8" d="M334.38,206.5s-10.85-.37-22.01-22.5l21.88-23.15c6.11-6.47,16.45-6.29,22.34,.38h0c4.88,5.52,5.07,13.76,.45,19.5l-22.66,25.78Z"></path><line class="cls-8" x1="337.38" y1="203.08" x2="352.34" y2="186.06"></line></g></g><g><path class="cls-1" d="M311.2,201.57l-44.34-33.55-5.82,9.13,35.04,39.35c4.27,5.03,12.04,5,16.28-.05h0c3.73-4.45,3.21-11.06-1.16-14.87Z"></path><g><path class="cls-1" d="M272.73,177.29c-1.67,5.62-7.09,5.39-17.75,2.41-5.64-1.58-7.69-5.58-6.02-11.2,1.67-5.62,7.58-8.82,13.2-7.15,5.62,1.67,12.25,10.32,10.58,15.94Z"></path><path class="cls-1" d="M264.11,162.14l-13.55-7.88c-.89-.6-2.14-.39-2.76,.48h0c-.53,.75-.41,1.75,.28,2.36l10.52,8.89,5.51-3.85Z"></path></g></g></g></g></g></g><line class="cls-18" x1="337.38" y1="203.08" x2="352.34" y2="186.06"></line></svg>