<svg version="1.2" xmlns="http://www.w3.org/2000/svg" viewBox="0 0 1000 1000" width="1000" height="1000"><style>.a{fill:#92e3a9}.b{opacity:.7;fill:#fff}.c{fill:none;stroke:#263238;stroke-miterlimit:10;stroke-width:2}.d{fill:#263238;stroke:#263238;stroke-linecap:round;stroke-linejoin:round;stroke-width:2}.e{fill:#92e3a9;stroke:#263238;stroke-linecap:round;stroke-linejoin:round;stroke-width:2}.f{fill:none;stroke:#263238;stroke-linecap:round;stroke-linejoin:round;stroke-width:2}.g{fill:#fff;stroke:#263238;stroke-linecap:round;stroke-linejoin:round;stroke-width:2}.h{fill:none;stroke:#263238;stroke-linecap:round;stroke-linejoin:round;stroke-width:8}.i{fill:none;stroke:#263238;stroke-linecap:round;stroke-linejoin:round;stroke-width:4}.j{fill:#263238}</style><path class="a" d="m876.4 245.2c-64.1-85.4-152.6-152.4-252.7-191.6-24.7-9.7-50.8-17-77.5-17.4-138.3-1.7-493.6 255.6-519.9 336.1-26.2 80.6 147.1 486.7 269.6 549.7 122.5 63 610.9-217.1 667-302.8 38.9-59.6 16.5-148.3-2.7-210.7-18.3-59.3-47.1-114.4-83.8-163.3z"/><path class="b" d="m876.4 245.2c-64.1-85.4-152.6-152.4-252.7-191.6-24.7-9.7-50.8-17-77.5-17.4-138.3-1.7-493.6 255.6-519.9 336.1-26.2 80.6 147.1 486.7 269.6 549.7 122.5 63 610.9-217.1 667-302.8 38.9-59.6 16.5-148.3-2.7-210.7-18.3-59.3-47.1-114.4-83.8-163.3z"/><path class="c" d="m763.8 89.5c-26.2 9.3-33.2 36.6-41.1 45.9-10.7 12.4-24.9-24.8-58.5-16-33.7 8.9-30.2 28.4-44.4 37.3-14.2 8.8-21.2-12.5-37.2-5.4-16 7.1-24.8 16-28.4 23.1-3.5 7.1-23 1.8-30.1 5.3-7.1 3.5-16 8.9-16 8.9h446.8c0 0-5.3-39-28.4-47.9-23-8.9-44.3 16-58.5 3.5 0 0-15.9-47.8-70.9-56.7q-5.5-0.9-10.4-1.1"/><path class="c" d="m280.1 554.3c-4.8-10.9-14.6-23.7-34.5-26.9-36.2-5.8-49.7 29.5-56.8 37.7-7 8.2-16.3-16.4-38.5-10.5-22.2 5.8-19.9 18.7-29.2 24.5-9.4 5.9-14-8.2-24.6-3.5-10.5 4.7-16.3 10.5-18.7 15.2-2.3 4.7-15.1 1.2-19.8 3.5-4.7 2.4-10.5 5.9-10.5 5.9h294.4c0 0-3.5-25.7-18.7-31.6-15.2-5.8-29.2 10.5-38.5 2.3"/><path class="c" d="m102.7 453.1l22.2-11.4"/><path class="c" d="m82.5 463.6l13.5-7"/><path class="c" d="m100.8 315.6l-40.4-9"/><path class="c" d="m116.7 319.2l-10.2-2.3"/><path class="c" d="m162.1 212.6l19.6 33.3"/><path class="c" d="m153.6 198.1l4.9 8.3"/><path class="c" d="m124.6 258.5l23.2 19.7"/><path class="c" d="m83.3 392.2l31.7-6.8"/><path class="d" d="m274.9 685.5c0 0-2.4-11.3 6.6-21.3 9-10.1 32.5-23.6 32.5-23.6l-8.3 48.5c0 0-21.8 3.5-30.8-3.6z"/><path class="e" d="m554.4 638.6c0 0-48.5 35.2-49.2 46.2-0.7 11-3.7 19-3.7 19 0 0-65.2 42.6-77 47-11.7 4.4-18.3 0.7-27.1-1.5-8.8-2.2-22 3.7-22 3.7 0 0 2.2-39.6-3.7-64.6-5.9-24.9-7.3-35.2-7.3-35.2 0 0-14.7 17.6-40.4 27.9-25.7 10.3-49.1 4.4-49.1 4.4l5.8 47c0 0-13.2 28.6-8 71.8 5.1 43.3 11 70.5 29.3 80.7 18.4 10.3 55 10.3 55 10.3 0 0 93.2-13.2 126.9-24.9 33.8-11.8 33.8-67.5 55.8-122.5 22-55.1 46.9-96.1 40.3-102-6.6-5.9-17.6-9.5-25.6-7.3z"/><path class="f" d="m279.1 690.6c0 0 11.3 48.4 10.8 51.7-0.5 3.3-8.5 19.3-8 42.8 0.5 23.5 6.1 26.8 7.5 12.7 1.4-14.1 1.4-24.9 1.4-24.9"/><path class="f" d="m341 742.9c9.5-3.3 19.5-9 28.8-18.5"/><path class="f" d="m294.6 744.2c0 0 12.2 4.1 28.8 2.5"/><path class="f" d="m355.4 865.1c-4 3.1-7.7 5.3-10.5 6.5"/><path class="f" d="m375.9 757.3c0 0 10.8 25.9 8 57.4-1.6 17.7-10.1 32-19.3 42"/><path class="f" d="m386.7 787.4c0 0 10.4 34.3 1.5 64.4"/><path class="f" d="m505.2 684.8c0 0 5.2 26.9 10.8 36.3"/><path class="g" d="m393.4 449.4l-8.6 13.5 37.3 88.1 20.6-27.1c0 0 12-3.7 14.2-5.8 2.1-2.2 13.8-45.9 13.8-45.9z"/><path class="g" d="m295.2 543.9c0 0 2.1 17.6 6.1 32.7 4 15.1 9.9 34.8 10.5 38.2 0.6 3.4-4.9 11.1-4 16 0.9 4.9 0.9 6.5 1.2 8.6 0.3 2.2-9.8 45.9-9.8 46.8 0 0.9 7.7 4.9 14.5 4.9 6.7 0 43.7-24.3 46.5-27.4 2.7-3 4.3-11.4 6.4-17.8 2.2-6.5 7.7-84.4 7.7-98.3 0-13.8-37.9-22.4-37.9-22.4 0 0-21.2 4.6-30.1 10.1-9 5.6-11.1 8.6-11.1 8.6z"/><path class="g" d="m450.7 525.8c0 0-3.7-3.7-7.1-6.5-3.4-2.8-8.3-7.1-13.8-1.5-4.6 4.5-3.7 8.9-2.2 15.1l-1.5 7.7 3.7 23c0 0 13.5-16.9 14.7-18.7 1.3-1.9 8.7-4.7 10.2-9.6 1.5-4.9-4-9.5-4-9.5z"/><path class="g" d="m427.6 532.9c0 0 3.7 11 13.9 10.4"/><path class="g" d="m431.4 639.3c0 0-9.4-21.1-8.9-25.8 0.4-4.7 12.2-51.2 8.4-64.4-3.7-13.2-22.5-40-22.5-43.3 0-3.2-9.4-24.9-14.1-31.5-4.7-6.5-16.5-7.9-22.6-2.3-6.1 5.6-8 12.7-9.4 14.6-1.4 1.8-6.1 16.9-15.5 25.8-9.4 9-17.9 13.7-18.8 20.2-1 6.6-1 6.6-1 6.6 0 0-9.8 3.8-10.3 13.2-0.5 9.4 3.3 11.7 4.2 15 1 3.3 5.7 40.5 18.8 60.2 13.2 19.7 23.5 22.6 23.5 22.6l8.5 26.3z"/><path class="g" d="m331.7 540.6c0 0 8-0.9 10.9 3.8 2.8 4.7 3.2 7.5 3.2 7.5"/><path class="g" d="m346.9 488.8c0 0 0.6-19.7 5.2-24.3 4.7-4.6 29.9-2.8 32.7-1.6 2.8 1.3 12.6 5 11.7 9.9-0.9 4.9-5.9 7.4-10.2 7.7-4.3 0.3-15.1-0.9-16-0.9-0.9 0-7.1 3.1-7.1 3.1z"/><path class="g" d="m322.9 507c0 0 1.2-6.5 4-8.9 2.8-2.5 23.4-13 27.1-14.8 3.7-1.9 8.3-1.6 12.6 0.9 4.3 2.5 18.8 13.9 26.2 18.5 7.4 4.6 10.5 8.3 8.9 12.3-1.5 4-5.5 5.5-9.5 5.8-4 0.4-11.1-1.2-11.1-1.2 0 0-33.6-16.9-36.3-16.9-2.8 0-3.4-0.3-7.1 1.2-3.7 1.5-14.8 3.1-14.8 3.1z"/><path class="g" d="m307.2 529.2c0 0-2.8-8 0.3-13.9 3.1-5.9 17.2-9.5 25.6-16 8.3-6.5 8.6-4.6 21.2-0.9 12.6 3.7 32.3 15.7 33.3 20 0.9 4.3-0.7 8-6.8 9.2-6.2 1.2-21.3-4.3-24-4.9-2.8-0.6-26.2-4.6-30.8-4-4.6 0.6-18.8 10.5-18.8 10.5z"/><path class="g" d="m307.3 548.1c0 0 10.3-1.4 15-5.1 4.7-3.8 9-7.1 9-7.1 0 0 18.3 5.2 24.9 5.2 6.6 0 9.4-10.3 6.1-14.6-3.3-4.2-15-8.4-27.3-10.3-12.2-1.9-19.2 0-23 4.2-3.8 4.2-4.7 4.7-7 6.6-2.4 1.9-10.4 5.6-10.4 12.2 0 6.6 3.8 10.4 3.8 10.4"/><path class="g" d="m544.7 407.4c0 0-222.2-63.8-259.2-85.2-46.3-26.7-62.9-52.5-67.8-62-1.4 22.2-8.5 58.5-19.9 98.7-12 42.3-25.8 78.4-36.5 97.3 4.5-2 16.4-6.8 36.4-12.9 26.2-8.1 69.6-7 130.1 6.9 60.5 14 182.6 54.1 182.6 54.1 0 0 4.3 1.1 6.5 0 2.1-1.1 11.2-10.2 21.4-42.3 10.1-32.1 6.4-54.6 6.4-54.6z"/><path class="e" d="m671.5 616c0 0-52.6 11.6-71.7 13-19 1.5-38.1-3.6-45.4 9.6-7.4 13.2-31.6 73.3-48.5 124.7-16.8 51.3-24.9 235.4-24.9 235.4h338.2c0 0 38.1-93.9 70.4-151.8 32.3-58 33-100.5 23.5-145.3-9.6-44.7-33.8-66-53.6-81.4-19.8-15.4-39.2-21.8-39.2-21.8z"/><path class="e" d="m659.6 594.9c0 0-50.7 64.4-50.7 66.2 0 1.7 20.5-8 20.5-8l42.1-37.1z"/><path class="d" d="m670.8 598.2c-2.5-5.4-6.8 2.9-6.8 2.9 0 0-25.7 35.3-28.6 46.5-2.9 11.1-6.3 20.3-6.3 20.3 0 0-27.1 22.8-46.5 69.7-5.4 13.3-9.3 24.2-12.1 33.2-4 9.7-24.1 60.7-38.1 124.9-15.5 71.6-21.5 106.9-21.5 106.9h56.9c0 0 31.6-190.5 43.8-241.7 6.8-16.7 14.3-34.6 20.4-48.4 15.5-34.9 17-44.1 17-44.1l36.8-22.8c0 0-12.6-42.1-15-47.4z"/><path class="g" d="m663.7 357.9c-8.5 16.3-20.4 33.1-16.7 43.3 4.7 12.9-3.9 17.7-14.2 26.8-10.3 9.1-17.1 6.8-15.4 17.6 1.7 10.9 13.1 12 14.3 15.4 1.1 3.5-2.3 24.5-5.2 48.5-2.8 23.9 1.7 41.6 8 46.7 6.3 5.1 27.4 5.7 27.4 5.7 0 0-6.3 50.7 3.4 50.1 9.7-0.5 138.5-56.4 138.5-56.4 0 0-3.5-0.5 2.8-12.5 6.3-12 22.8-17.7 50.1-36.5 27.4-18.8 51.3-64.9 43.4-95.1-8-30.2-17.7-37.7-19.4-41.1-1.7-3.4 1.1-17.1-12-33-13.1-16-15.9-6.9-15.9-6.9 0 0-32-28.5-67.9-38.7-35.9-10.3-74-6.8-64.3-1.7 9.6 5.1 26.2 11.4 26.2 11.4 0 0-46.8-12.6-68.4 0-21.7 12.5-33.1 27.9-25.7 39.9 0 0 3.5 6.2 13.7 1.7 10.3-4.6 25.7-9.7 25.7-9.7 0 0-19.6 7.7-28.4 24.5z"/><path class="g" d="m632.7 455c0 0 8.2 3.8 11.4 5.6 3.1 1.9 11.3 0 12.6-6.3 1.2-6.3-3.2-10.7-3.2-10.7"/><path class="d" d="m880.7 370.4c-1.7-3.4 1.1-17.1-12-33-13.1-16-15.9-6.9-15.9-6.9 0 0-32-28.5-67.9-38.7-35.9-10.3-74-6.8-64.3-1.7 9.6 5.1 26.2 11.4 26.2 11.4 0 0-46.8-12.6-68.4 0-21.7 12.5-33.1 27.9-25.7 39.9 0 0 3.5 6.2 13.7 1.7 10.3-4.6 25.7-9.7 25.7-9.7 0 0 19.9-2.3 35.3-1.7 15.4 0.6 34.2 6.8 34.2 6.8 0 0-33.6 20-31.9 34.8 1.7 14.8 14.2 7.4 14.2 7.4 0 0-5.1 29-2.3 40.4 2.9 11.4 11.4 21.7 11.4 21.7 0 0-10.2 25.6-3.4 29.1 6.9 3.4 16.5-13.7 16.5-13.7 0 0 13.1-12.6 28.5-13.1 15.4-0.6 25.1 9.7 24 30.8-1.2 21-16.6 44.4-14.3 55.8 0.8 3.9 2.7 6.1 5 7.3 7.7-9.4 23.4-15.8 47.4-32.4 27.4-18.8 51.3-64.9 43.4-95.1-8-30.2-17.7-37.7-19.4-41.1z"/><path class="f" d="m762.7 498.6c0 0-1.1 14.3 14.3 12.6 15.4-1.7 34.7-9.7 41.6-35.3"/><path class="f" d="m765.6 507.2c0 0-10.9 20.5-27.4 28.5"/><path class="d" d="m661.9 561.9c0 0 11.4 0.6 25.6-2.9 14.2-3.4 28.5-10.8 28.5-10.8 0 0-17.7 20-26.8 24.5-9.1 4.6-29.6 22.2-29.6 22.2z"/><path class="d" d="m676.1 416.6c0 0 0-9.7 6.3-9.1 6.2 0.5 14.2 13.6 14.2 13.6 0 0-12.5-9.6-20.5-4.5z"/><path class="f" d="m676.1 416.6c0 0 4 6.8 14.3 8"/><path class="d" d="m665.8 399.5c0 0 6.3-8 23.4-9.1 17.1-1.2 27.4 16.5 26.8 19.3-0.6 2.9-12-11.9-18.2-12.5-6.3-0.6-24.5 5.7-28.5 6.9-4 1.1-12-10.9-8.6-10.9 3.4 0 5.1 6.3 5.1 6.3z"/><path class="d" d="m659 496.9c0 14.5-4.7 26.2-10.5 26.2-5.9 0-10.6-11.7-10.6-26.2 0-14.4 4.7-26.2 10.6-26.2 5.8 0 10.5 11.8 10.5 26.2z"/><path class="e" d="m808.3 547.1l-144.2 59.8 19.4 66.7 136.8-75.2z"/><path class="f" d="m799.4 863c0 0 23.4 17.6 60.1 11.8"/><path class="f" d="m830.2 833c0 0 28.6 14.6 49.9 13.2"/><path class="f" d="m723.2 967.1c6.9 11.1 14 20.7 19.7 25"/><path class="f" d="m695.2 915.1c0 0 9 19.1 20 38.5"/><path class="e" d="m473.7 695.8c0 0-38.9-63.1-43.3-65.3-4.4-2.2-30.8 11-47.7 23.5-16.9 12.4-29.3 31.5-27.9 40.3 1.5 8.8 44 66.8 44 66.8l82.2-58z"/><path class="e" d="m847.8 661.3c0 0-27.9-15.4-54.3-11.7-26.4 3.6-93.2 63.8-96.1 71.1-2.9 7.4-13.9 0.7-16.9 4.4-2.9 3.7-8 14.7-8 16.9 0 2.2-92.5 52.1-92.5 52.1 0 0 0-7.4-8.8-11-8.8-3.7-24.9-8.1-24.9-8.1l-13.9-14.7c0 0 3.6-9.5-0.8-16.1-4.4-6.6-48.4-44.8-57.9-48.4-9.6-3.7-69 37.4-76.3 53.5-7.4 16.2-3 34.5 15.4 58 18.3 23.4 79.2 88 90.2 107.1 11 19 33.8 27.9 47.7 26.4 13.9-1.5 140.1-26.4 204.7-62.4 64.5-35.9 74.8-45.4 74.8-45.4 0 0 44-4.5 66.7-25.7"/><path class="f" d="m507.9 796.2q-2.4 6.4-4.9 14"/><path class="f" d="m530.2 755.2c0 0-7.3 6.5-16.8 27.5"/><path class="f" d="m739.4 741.3c34.5 9.2 89.2 23.2 112.8 16.8"/><path class="f" d="m682 741.3c0 0 9.5-11.8 34.5-5.9 2.3 0.5 5.1 1.2 8.2 2.1"/><path class="f" d="m824 782.3c4.6 0.9 9.1 1.6 13.5 2.2"/><path class="f" d="m738.5 754.5c0 0 34.5 15.1 70.7 24.4"/><path class="f" d="m578.4 842.2c-2.3 12.3-5.3 25.9-9.4 38.4-11.7 36.7-3.6 27.9 0 16.9"/><path class="f" d="m584.4 799.2c0 0-0.8 10.7-3.1 26"/><path class="f" d="m321.7 628.8c0 0 11.9 4.5 18-1.2"/><path class="g" d="m403.9 484.5c0 0 36 31.4 41.6 32.3 5.5 1 8.6 0.3 8.6 0.3"/><path class="g" d="m431.5 478.5l-10.2-2.9 1.5-5.3 10.3 3z"/><path class="g" d="m431.5 478.5l-5.4-1.6 1.5-5.3 5.5 1.7z"/><path class="h" d="m277.8 418.3c27.4 5 70.6 15.8 116.4 28.3"/><path class="h" d="m164.7 439c20.5-13.2 48.4-24.8 83.2-24.1"/><path class="e" d="m544.7 407.4c0 0-76-21.8-146.5-44.2-0.7 14.3-3.1 45.3-11.5 66.1-5.4 13.4-11 24.4-15.4 32.2 62 17.5 139.1 42.8 139.1 42.8 0 0 4.3 1.1 6.5 0 2.1-1.1 11.2-10.2 21.4-42.3 10.1-32.1 6.4-54.6 6.4-54.6z"/><path class="e" d="m197.8 358.9c-18.2 64.2-40.6 114.1-50 111.4-9.3-2.6-2.1-56.8 16.1-121 18.2-64.1 40.5-114 49.9-111.3 9.4 2.6 2.2 56.8-16 120.9z"/><path class="d" d="m187.3 356c-15.3 53.9-32.1 96.4-37.5 94.9-5.4-1.6 2.6-46.6 17.9-100.5 15.3-53.9 32.1-96.4 37.6-94.9 5.4 1.6-2.6 46.6-18 100.5z"/><path class="i" d="m512.8 397.6c0.2 8 0 26.2-4.9 44.5-5.8 21.8-14.1 39.5-24.7 53.5"/><path class="e" d="m574.7 430c-1.2-2.1-7.9-3.6-7.9-3.6 0 0-1.2-1.8-2.7-4.5-1-2-12.3-6.6-18.9-9.1 0.5 8.4 0.3 26.4-6.9 49.2-7.1 22.5-13.7 33.7-17.8 38.7 4.2 0.6 16.9 2.6 18.6 2.6 1.8 0 1.8-0.6 3.9-2.1 2.1-1.5 8.2 1.2 10.3-0.3 2.1-1.5 10.2-12.7 15.4-26.8 5.1-14.2 7.2-42 6-44.1z"/><path class="j" d="m556.5 482.1c-0.1 0.1-0.4 0.2-0.8 0.1l1.2-3.6c-1.4-0.4-2.4 0.4-3.1 0.8-0.5 0.4-0.8 0.6-1.1 0.6-1.3 0-11.4-2.6-19.1-4.6q-0.7 1.8-1.4 3.5c6.4 1.7 18.7 4.9 20.5 4.9 1.6 0 2.7-0.9 3.4-1.4q0.2-0.1 0.4-0.3z"/><path class="j" d="m551.8 491l0.5-3.7c-1.5-0.2-2.3 0.1-3.1 0.5-0.4 0.2-0.7 0.4-1.7 0.4-1.6 0-10.9-1.9-17.8-3.4q-0.9 1.9-1.7 3.5c4.8 1 17.1 3.6 19.5 3.6 1.8 0 2.8-0.4 3.4-0.8 0.4-0.2 0.4-0.2 0.9-0.1z"/><path class="j" d="m547.3 494.7c-0.9 0.5-3.1 1-6.1 1-2.2 0-10.7-1.4-15.9-2.2q-1.1 1.9-2 3.4c3.7 0.7 14.9 2.6 17.9 2.6 3.1 0 6-0.6 7.8-1.4l1.2-0.7-1.7-3.3z"/><path class="j" d="m563.2 462.9l0.7-3.7c-3.9-0.6-17-5.1-22.9-7.1q-0.4 1.8-0.9 3.7c6.1 2 19.1 6.4 23.1 7.1z"/><path class="j" d="m563.5 437.9c-2.2-2.8-12.8-5.3-18.8-6.5q-0.2 1.8-0.4 3.8c7.5 1.5 15.2 3.7 16.3 5 2.4 3.1 4.1 4.9 6.5 4.9v-3.7c-0.7 0-1.8-1.3-3.6-3.5z"/><path class="j" d="m571.2 435.2l-4.1-1.8c-0.5-0.9-1.3-2.3-2.9-3.8-1.9-2-13-5.5-18.9-7.3q0 1.8-0.2 3.8c7.6 2.4 15.4 5.1 16.5 6.1 1.7 1.8 2.3 3.2 2.3 3.2l0.2 0.8 5.6 2.4z"/><path class="j" d="m565.4 453.7l1.7-3.3c0 0-1-0.6-2.5-2.3-1.6-2-12.9-5-21.2-7.1q-0.3 1.8-0.7 3.7c8.8 2.2 17.9 4.8 19.1 5.8 2 2.3 3.3 3.1 3.6 3.2z"/><path class="j" d="m559.5 474.1l0.2-3.7c-4.6-0.2-16.7-4.3-22.1-6.2q-0.6 1.8-1.2 3.5c5.5 2 18 6.2 23.1 6.4z"/></svg>