<svg version="1.2" xmlns="http://www.w3.org/2000/svg" viewBox="0 0 663 424" width="663" height="424"><style>.a{fill:#9f92ff}.b{fill:#fff}.c{fill:#693eff}.d{opacity:.1;fill:#220c56}.e{fill:#8f78ff}.f{fill:#ff47a4}.g{fill:#2e1556}.h{fill:#c5c5ff}.i{fill:#0fb5b5}.j{fill:none;stroke:#13888e;stroke-linecap:round;stroke-linejoin:round;stroke-width:1.8}.k{fill:#1bd1c2}.l{fill:#22efab}.m{fill:#ebebff}.n{fill:#fafaff}.o{fill:none;stroke:#fff;stroke-linecap:round;stroke-linejoin:round;stroke-width:3.5}.p{fill:#46218e}.q{fill:none;stroke:#2e1556;stroke-linecap:round;stroke-linejoin:round;stroke-width:2}.r{fill:#ffc5da}.s{fill:#ffa4c9}.t{fill:#1be7c2}.u{fill:none;stroke:#ffa4c9;stroke-linecap:round;stroke-linejoin:round;stroke-width:.9}.v{fill:#c6287f}.w{fill:none;stroke:#c6287f;stroke-linecap:round;stroke-linejoin:round;stroke-width:2}.x{fill:#ffb077}.y{fill:none;stroke:#2e1556;stroke-linecap:round;stroke-linejoin:round;stroke-width:.9}.z{fill:none;stroke:#fff;stroke-linecap:round;stroke-linejoin:round;stroke-width:.9}</style><g style="display:none"><path class="a" d="m871 696h-1500v-1000h1500z"/></g><g style="display:none"><path class="b" d="m717.3-148v688c0 20.8-16.9 37.7-37.8 37.7h-1117c-20.9 0-37.8-16.9-37.8-37.7v-688c0-20.8 16.9-37.7 37.8-37.7h1117c10.1 0 19.3 4 26 10.4 7.3 6.9 11.8 16.6 11.8 27.3z"/><path class="c" d="m-203.5-154.3c0 97.3-78.9 176.2-176.2 176.2-35.2 0-68-10.4-95.6-28.2v-141.7c0-20.8 16.9-37.7 37.8-37.7h231.2c1.8 10.2 2.8 20.7 2.8 31.4z"/><path class="c" d="m717.3-148v688c0 20.8-16.9 37.7-37.8 37.7h-433.9c-10.9-33.7-18.7-71-22.3-112.5-25.3-291.7 202.4-505.1 290.6-650.9h165.6c10.1 0 19.3 4 26 10.4 7.3 6.9 11.8 16.6 11.8 27.3z"/><path class="d" d="m717.3-19.4v242.2c-61.7-6-109.9-57.9-109.9-121.1 0-63.2 48.2-115.2 109.9-121.1z"/><path class="d" d="m341.9 577.7h-181.3c0-50.1 40.6-90.6 90.6-90.6 50.1 0 90.7 40.5 90.7 90.6z"/></g><g style="display:none"><path class="e" d="m82.8-109h1.6v-9.7h-1.6v4.1h-4.5v-4.1h-1.6v9.7h1.6v-4.3h4.5zm11.1-3.8c0-2.4-1.7-4-3.9-4-2.2 0-4 1.6-4 4 0 2.4 1.7 4 3.9 4 2.2 0 4-1.6 4-4zm-6.3 0c0-1.8 1.1-2.6 2.3-2.6 1.2 0 2.3 0.8 2.3 2.6 0 1.7-1.1 2.6-2.3 2.6-1.2 0-2.3-0.9-2.3-2.6zm18.8 3.8h1.6v-4.5c0-2.2-1.4-3.3-3.2-3.3-1.1 0-2.2 0.6-2.7 1.5-0.5-1-1.5-1.5-2.8-1.5-0.9 0-1.7 0.4-2.2 1v-0.9h-1.6v7.7h1.6v-4.3c0-1.4 0.7-2.1 1.9-2.1 1.2 0 1.9 0.7 1.9 2.1v4.3h1.6v-4.3c0-1.4 0.8-2.1 2-2.1 1.1 0 1.9 0.7 1.9 2.1zm6.9-6.5c1.2 0 2.1 0.8 2.1 2h-4.3c0.2-1.2 1.1-2 2.2-2zm3.6 4.2h-1.7c-0.3 0.6-0.9 1.1-1.9 1.1-1.1 0-2.1-0.8-2.2-2h5.9c0.1-0.3 0.1-0.5 0.1-0.8 0-2.3-1.6-3.8-3.8-3.8-2.2 0-3.8 1.5-3.8 4 0 2.4 1.6 4 3.8 4 1.9 0 3.1-1.1 3.6-2.5z"/><path class="e" d="m180.8-109h1.6l-3.4-9.7h-1.9l-3.5 9.7h1.7l0.7-2h4.1zm-1.2-3.3h-3.2l1.6-4.5zm6-3.3v-3.8h-1.6v10.4h1.6v-1.1c0.5 0.6 1.4 1.2 2.7 1.2 2 0 3.6-1.6 3.6-4 0-2.4-1.6-3.9-3.6-3.9-1.3 0-2.2 0.5-2.7 1.2zm4.7 2.7c0 1.7-1.2 2.6-2.4 2.6-1.2 0-2.3-0.9-2.3-2.6 0-1.6 1.1-2.6 2.3-2.6 1.2 0 2.4 0.9 2.4 2.6zm10.5 0c0-2.4-1.7-3.9-3.9-3.9-2.2 0-4 1.5-4 3.9 0 2.4 1.7 4 3.9 4 2.2 0 4-1.6 4-4zm-6.2 0c0-1.7 1-2.6 2.2-2.6 1.2 0 2.4 0.9 2.4 2.6 0 1.8-1.2 2.6-2.4 2.6-1.2 0-2.2-0.8-2.2-2.6zm14.8-3.8h-1.6v4.3c0 1.4-0.8 2.1-2 2.1-1.1 0-1.9-0.7-1.9-2.1v-4.3h-1.6v4.5c0 2.2 1.4 3.3 3.2 3.3 0.9 0 1.8-0.4 2.3-1v0.9h1.6zm2.3 5.6c0 1.5 0.9 2.1 2.3 2.1h1.2v-1.3h-1c-0.6 0-0.9-0.3-0.9-0.8v-4.3h1.9v-1.3h-1.9v-1.9h-1.6v1.9h-0.9v1.3h0.9z"/><path class="e" d="m278-111.8c0-3.5-5.1-2.1-5.1-4.3 0-1 0.7-1.4 1.6-1.4 1 0 1.6 0.6 1.7 1.3h1.7c-0.1-1.7-1.4-2.7-3.3-2.7-2 0-3.3 1.1-3.3 2.8 0 3.6 5.1 2.1 5.1 4.4 0 0.9-0.6 1.5-1.7 1.5-1.1 0-1.7-0.7-1.8-1.5h-1.7c0 1.7 1.5 2.8 3.5 2.8 2.1 0 3.3-1.4 3.3-2.9zm5.2-3.7c1.2 0 2.1 0.8 2.1 1.9l-4.2 0.1c0.1-1.3 1-2 2.1-2zm3.6 4.2h-1.7c-0.3 0.6-0.9 1.1-1.9 1.1-1.1 0-2-0.8-2.2-2.1h5.9c0.1-0.2 0.1-0.5 0.1-0.7 0-2.3-1.6-3.8-3.8-3.8-2.2 0-3.8 1.5-3.8 3.9 0 2.5 1.6 4 3.8 4 1.9 0 3.1-1.1 3.6-2.4zm3.4-1.8c0-1.6 0.7-2.1 1.9-2.1h0.4v-1.6c-1.1 0-1.9 0.4-2.3 1.2v-1.1h-1.6v7.7h1.6zm2.8-3.7l2.9 7.8h2l2.9-7.8h-1.7l-2.2 6.3-2.2-6.3zm9 7.8h1.6v-7.8h-1.6zm0.8-8.7c0.6 0 1-0.4 1-1 0-0.6-0.4-1-1-1-0.6 0-1 0.4-1 1 0 0.6 0.4 1 1 1zm2.4 4.9c0 2.4 1.5 4 3.7 4 1.9 0 3.2-1.1 3.6-2.6h-1.7c-0.3 0.8-0.9 1.2-1.9 1.2-1.2 0-2.1-0.9-2.1-2.6 0-1.7 0.9-2.6 2.1-2.6 1 0 1.6 0.4 1.9 1.2h1.7c-0.4-1.7-1.7-2.6-3.6-2.6-2.2 0-3.7 1.6-3.7 4zm12.1-2.6c1.2 0 2.2 0.7 2.2 1.9h-4.3c0.2-1.2 1.1-1.9 2.1-1.9zm3.7 4.1h-1.8c-0.3 0.7-0.8 1.1-1.8 1.1-1.2 0-2.1-0.7-2.2-2h5.9c0.1-0.3 0.1-0.5 0.1-0.8 0-2.3-1.6-3.8-3.8-3.8-2.3 0-3.8 1.6-3.8 4 0 2.4 1.6 4 3.8 4 1.9 0 3.1-1.1 3.6-2.5zm7.5 0.2c-0.1-2.8-4.4-1.9-4.4-3.5 0-0.5 0.4-0.8 1.3-0.8 0.8 0 1.3 0.4 1.4 1.1h1.6c-0.1-1.6-1.2-2.5-3-2.5-1.8 0-3 1-3 2.2 0 2.9 4.5 2 4.5 3.5 0 0.5-0.5 0.9-1.4 0.9-0.9 0-1.5-0.5-1.5-1.1h-1.7c0.1 1.4 1.4 2.5 3.2 2.5 1.9 0 3-1 3-2.3z"/><path class="e" d="m384.1-113.9c0 2.9 2.2 5 5 5 2 0 3.8-1 4.5-2.9h-1.9c-0.5 1-1.4 1.5-2.6 1.5-1.9 0-3.3-1.4-3.3-3.6 0-2.2 1.4-3.6 3.3-3.6 1.2 0 2.1 0.5 2.6 1.6h1.9c-0.7-1.9-2.5-3-4.5-3-2.8 0-5 2.1-5 5zm18.7 1c0-2.4-1.7-3.9-3.9-3.9-2.2 0-3.9 1.5-3.9 3.9 0 2.5 1.6 4 3.8 4 2.2 0 4-1.5 4-4zm-6.2 0c0-1.7 1.1-2.6 2.3-2.6 1.2 0 2.3 0.9 2.3 2.6 0 1.8-1.2 2.6-2.4 2.6-1.2 0-2.2-0.8-2.2-2.6zm13.3 3.9h1.6v-4.5c0-2.2-1.4-3.3-3.2-3.3-0.9 0-1.8 0.3-2.3 1v-0.9h-1.6v7.7h1.6v-4.3c0-1.4 0.8-2.2 1.9-2.2 1.2 0 2 0.8 2 2.2zm3.8-2.2c0 1.6 0.9 2.2 2.3 2.2h1.2v-1.3h-1c-0.6 0-0.8-0.3-0.8-0.9v-4.2h1.8v-1.3h-1.8v-1.9h-1.7v1.9h-0.9v1.3h0.9zm4.5-1.8c0 2.4 1.6 4 3.6 4 1.3 0 2.2-0.6 2.7-1.2v1.1h1.6v-7.7h-1.6v1.1c-0.5-0.6-1.4-1.2-2.7-1.2-2 0-3.6 1.5-3.6 3.9zm6.3 0.1c0 1.6-1.2 2.6-2.4 2.6-1.1 0-2.3-1-2.3-2.7 0-1.6 1.2-2.5 2.3-2.5 1.2 0 2.4 0.9 2.4 2.6zm3.2 0c0 2.4 1.5 3.9 3.7 3.9 1.9 0 3.2-1 3.6-2.5h-1.7c-0.3 0.8-0.9 1.2-1.9 1.2-1.2 0-2.1-1-2.1-2.6 0-1.7 0.9-2.7 2.1-2.7 1 0 1.6 0.5 1.9 1.2h1.7c-0.4-1.6-1.7-2.5-3.6-2.5-2.2 0-3.7 1.5-3.7 4zm9.1 1.7c0 1.5 0.9 2.1 2.3 2.1h1.2v-1.3h-1c-0.6 0-0.8-0.2-0.8-0.8v-4.3h1.8v-1.3h-1.8v-1.9h-1.7v1.9h-0.9v1.3h0.9z"/><path class="b" d="m-335-125.2v0.5q-1 0.1-1.5 0.2-0.4 0.2-0.6 0.7-0.1 0.5-0.1 1.5v13.7q0 0.9 0.1 1.3 0.1 0.4 0.5 0.5 0.3 0.2 1.1 0.2h1.3q0.9 0 1.7-0.5 0.8-0.4 1.5-1.2 0.6-0.8 1.1-1.9 0.4-1.1 0.6-2.5h0.7q-0.1 0.9-0.1 2.4 0 0.6 0 1.8 0 1.2 0.2 2.5-1.4-0.1-3.2-0.1-1.7 0-3 0-0.7 0-1.8 0-1 0-2.3 0-1.2 0-2.4 0.1-1.3 0-2.4 0v-0.5q0.9-0.1 1.3-0.3 0.4-0.1 0.6-0.6 0.1-0.5 0.1-1.5v-13.4q0-1-0.1-1.5-0.2-0.5-0.6-0.7-0.5-0.1-1.3-0.2v-0.5q0.7 0 1.8 0 1.2 0.1 2.5 0.1 1.2 0 2.3-0.1 1.2 0 2 0zm14.7 4.8q2 0 3.5 0.7 1.5 0.8 2.3 2.4 0.9 1.6 0.9 4.3 0 2.7-0.9 4.3-0.8 1.6-2.3 2.3-1.5 0.8-3.5 0.8-1.9 0-3.4-0.8-1.5-0.7-2.4-2.3-0.8-1.6-0.8-4.3 0-2.7 0.8-4.3 0.9-1.6 2.4-2.4 1.5-0.7 3.4-0.7zm0 0.5q-1.1 0-1.8 1.7-0.7 1.6-0.7 5.2 0 3.6 0.7 5.2 0.7 1.6 1.8 1.6 1.1 0 1.8-1.6 0.8-1.6 0.8-5.2 0-3.6-0.8-5.2-0.7-1.7-1.8-1.7zm13.6 19q-1.7 0-3-0.3-1.3-0.3-2.1-0.8-0.7-0.6-0.7-1.5 0-0.8 0.8-1.5 0.7-0.6 2.2-1l0.3 0.4q-0.6 0.4-0.8 0.9-0.2 0.5-0.2 1 0 1.1 1 1.7 1.1 0.6 2.9 0.6 1.2 0 2.1-0.3 1-0.3 1.6-1 0.5-0.6 0.5-1.6 0-0.8-0.6-1.3-0.6-0.6-2.4-0.6h-1.6q-1.2 0-2-0.2-0.8-0.3-1.3-0.8-0.4-0.5-0.4-1.4 0-1.1 0.9-2 0.9-0.8 2.6-1.6l0.3 0.2q-0.5 0.4-1 0.7-0.4 0.4-0.4 1 0 0.8 1.1 0.8h2.9q1.5 0 2.7 0.4 1.2 0.3 1.9 1.1 0.7 0.8 0.7 2.1 0 1.3-0.9 2.5-0.8 1.1-2.6 1.8-1.8 0.7-4.5 0.7zm0.3-10.9q-1.6 0-2.8-0.4-1.2-0.5-1.9-1.5-0.7-0.9-0.7-2.4 0-1.5 0.7-2.4 0.7-1 1.9-1.4 1.2-0.5 2.8-0.5 1.5 0 2.7 0.5 1.3 0.4 2 1.4 0.7 0.9 0.7 2.4 0 1.5-0.7 2.4-0.7 1-2 1.5-1.2 0.4-2.7 0.4zm0-0.5q0.7 0 1.1-0.8 0.4-0.8 0.4-3 0-2.2-0.4-3-0.4-0.8-1.1-0.8-0.7 0-1.2 0.8-0.4 0.8-0.4 3 0 2.2 0.4 3 0.5 0.8 1.2 0.8zm4.2-5.8l-0.5-0.2q0.4-1 1.3-1.7 0.9-0.7 2-0.7 0.8 0 1.3 0.5 0.4 0.4 0.4 1.2 0 0.8-0.4 1.2-0.4 0.4-1 0.4-0.5 0-0.9-0.4-0.3-0.3-0.4-0.9 0-0.7 0.5-1.8l0.2 0.2q-1.1 0.4-1.6 0.9-0.5 0.5-0.9 1.3zm11.8-2.3q2 0 3.5 0.7 1.5 0.8 2.3 2.4 0.9 1.6 0.9 4.3 0 2.7-0.9 4.3-0.8 1.6-2.3 2.3-1.5 0.8-3.5 0.8-1.9 0-3.4-0.8-1.5-0.7-2.4-2.3-0.8-1.6-0.8-4.3 0-2.7 0.8-4.3 0.9-1.6 2.4-2.4 1.5-0.7 3.4-0.7zm0 0.5q-1.1 0-1.8 1.7-0.7 1.6-0.7 5.2 0 3.6 0.7 5.2 0.7 1.6 1.8 1.6 1.1 0 1.8-1.6 0.8-1.6 0.8-5.2 0-3.6-0.8-5.2-0.7-1.7-1.8-1.7z"/><path class="f" d="m575.8-97h-57.9c-9 0-16.2-7.2-16.2-16.1 0-9 7.2-16.2 16.2-16.2h57.9c9 0 16.2 7.2 16.2 16.2 0 8.9-7.2 16.1-16.2 16.1z"/><path class="b" d="m530.1-111.9c0-3.3-4.9-2.5-4.9-4.3 0-0.6 0.5-0.9 1-0.8 0.7 0 1.1 0.3 1.2 1h2.6c-0.1-1.9-1.6-3-3.7-3-2.1 0-3.6 1.1-3.6 2.9 0 3.5 4.9 2.5 4.9 4.4 0 0.5-0.5 0.9-1.2 0.9-0.6 0-1.1-0.4-1.2-1.1h-2.5c0 1.9 1.7 3 3.8 3 2.3 0 3.6-1.4 3.6-3zm1.5 2.9h2.4v-7.8h-2.4zm1.2-8.6c0.8 0 1.4-0.6 1.4-1.3 0-0.8-0.6-1.3-1.4-1.3-0.9 0-1.5 0.5-1.5 1.3 0 0.7 0.6 1.3 1.5 1.3zm2.4 4.7c0 2.4 1.5 4 3.5 4 1.1 0 1.9-0.5 2.4-1.2v1.1c0 1.3-0.7 1.8-1.6 1.8-0.9 0-1.5-0.4-1.6-1h-2.4c0.2 1.9 1.7 3 4.1 3 2.7 0 3.9-1.7 3.9-3.8v-7.8h-2.4v1.1c-0.4-0.7-1.3-1.2-2.4-1.2-2 0-3.5 1.5-3.5 4zm5.9 0c0 1.2-0.8 1.9-1.7 1.9-0.9 0-1.7-0.7-1.7-1.9 0-1.3 0.8-1.9 1.7-1.9 0.9 0 1.7 0.6 1.7 1.9zm9.5 3.9h2.4v-4.6c0-2.1-1.2-3.3-3-3.3-1.1 0-1.9 0.5-2.4 1.1v-1h-2.4v7.8h2.4v-4.3c0-1 0.6-1.6 1.5-1.6 0.9 0 1.5 0.6 1.5 1.6zm7-3.9c0 2.7 1.7 4 4 4 2.3 0 4.2-1.3 4.2-4v-5.9h-2.4v5.9c0 1.2-0.6 1.8-1.7 1.8-1.2 0-1.7-0.6-1.7-1.8v-5.9h-2.4zm12.3-2.7v-1.1h-2.4v11.5h2.4v-4.8c0.4 0.6 1.2 1.2 2.4 1.2 1.9 0 3.4-1.6 3.4-4 0-2.5-1.5-4-3.4-4-1.2 0-2 0.5-2.4 1.2zm3.4 2.8c0 1.2-0.8 1.9-1.7 1.9-0.9 0-1.7-0.7-1.7-1.9 0-1.3 0.8-2 1.7-2 0.9 0 1.7 0.7 1.7 2z"/><path class="g" d="m-324.4 58.2l13.3 34.2q0.7 2 1.7 2.7 0.9 0.8 1.7 0.8v1.1q-1.6-0.1-3.9-0.1-2.2-0.1-4.4-0.1-2.5 0-4.8 0.1-2.2 0-3.5 0.1v-1.1q2.8-0.1 3.5-0.9 0.8-0.9-0.3-3.7l-9.3-25.4 1-1.4-8.3 21.6q-1.2 3-1.5 4.9-0.2 2 0.3 3 0.5 1 1.6 1.5 1.2 0.4 2.9 0.4v1.1q-1.8-0.1-3.5-0.1-1.6-0.1-3.3-0.1-1.2 0-2.3 0.1-1 0-1.8 0.1v-1.1q1.1-0.2 2.3-1.5 1.2-1.2 2.4-4.2l12.4-32q0.9 0.1 1.9 0.1 1 0 1.9-0.1zm-11.9 23.1h15.7v1.1h-16.3zm40.7-13.2v33.4q0 2.5 1.3 3.4 1.4 0.8 3.6 0.8v1.2q-1.4-0.1-3.9-0.1-2.4-0.1-5.2-0.1-2.1 0-4 0.1-1.9 0-2.9 0.1v-1.2q1.8 0 2.5-0.7 0.8-0.8 0.8-3v-27.3q0-2.5-0.8-3.6-0.8-1.2-2.7-1.2v-1.2q1.7 0.2 3.4 0.2 2.2 0 4.2-0.2 2-0.2 3.7-0.6zm8.5-0.1q2.8 0 5 1.5 2.2 1.5 3.5 4.5 1.3 3.1 1.3 7.6 0 4-1 7-0.8 3-2.5 5.1-1.7 2-4 3-2.3 1.1-5.2 1.1-2.1 0-3.9-0.8-1.7-0.7-2.7-2.1l0.6-0.7q0.5 1 1.5 1.5 1.1 0.6 2.4 0.6 2.4 0 3.8-1.7 1.5-1.7 2.1-4.7 0.6-3 0.6-7.2 0-4.7-0.6-7.4-0.6-2.7-1.6-3.8-1.1-1.2-2.5-1.2-2 0-3.6 1.6-1.6 1.5-1.8 4.3l-0.3-1.9q1-3.1 3.3-4.7 2.4-1.6 5.6-1.6zm24.3 0.1v33.4q0 2.5 1.3 3.4 1.3 0.8 3.6 0.8v1.2q-1.4-0.1-3.9-0.1-2.5-0.1-5.3-0.1-2 0-3.9 0.1-2 0-2.9 0.1v-1.2q1.8 0 2.5-0.7 0.7-0.8 0.7-3v-27.3q0-2.5-0.7-3.6-0.8-1.2-2.8-1.2v-1.2q1.8 0.2 3.4 0.2 2.3 0 4.3-0.2 2-0.2 3.7-0.6zm8.5-0.1q2.8 0 4.9 1.5 2.2 1.5 3.5 4.5 1.4 3.1 1.4 7.6 0 4-1 7-0.8 3-2.5 5.1-1.7 2-4 3-2.3 1.1-5.2 1.1-2.2 0-3.9-0.8-1.7-0.7-2.7-2.1l0.6-0.7q0.5 1 1.5 1.5 1 0.6 2.3 0.6 2.5 0 3.9-1.7 1.4-1.7 2-4.7 0.7-3 0.7-7.2 0-4.7-0.6-7.4-0.6-2.7-1.6-3.8-1.1-1.2-2.5-1.2-2 0-3.7 1.6-1.5 1.5-1.8 4.3l-0.2-1.9q1-3.1 3.3-4.7 2.4-1.6 5.6-1.6zm27.2 0q4 0 7 1.5 3 1.4 4.7 4.7 1.7 3.3 1.7 8.7 0 5.4-1.7 8.7-1.7 3.2-4.7 4.7-3 1.5-7 1.5-3.8 0-6.9-1.5-3-1.5-4.8-4.7-1.6-3.3-1.6-8.7 0-5.4 1.6-8.7 1.8-3.3 4.8-4.7 3.1-1.5 6.9-1.5zm0 1.1q-2.2 0-3.6 3.3-1.5 3.2-1.5 10.5 0 7.3 1.5 10.5 1.4 3.3 3.6 3.3 2.3 0 3.7-3.3 1.5-3.2 1.5-10.5 0-7.3-1.5-10.5-1.4-3.3-3.7-3.3zm23.9-14.4q2.3 0 3.6 1.1 1.4 1.1 1.4 3.1 0 1.9-1.4 3.1-1.3 1.1-3.6 1.1-2.3 0-3.7-1.1-1.3-1.2-1.3-3.1 0-2 1.3-3.1 1.4-1.1 3.7-1.1zm4.3 13.4v23.8q0 2.3 0.7 3.1 0.9 0.8 2.8 0.8v1.2q-1-0.1-3.1-0.1-2.1-0.1-4.2-0.1-2.1 0-4.3 0.1-2.2 0-3.3 0.1v-1.2q1.9 0 2.7-0.8 0.8-0.8 0.8-3.1v-17.2q0-2.5-0.8-3.6-0.7-1.2-2.7-1.2v-1.2q1.8 0.2 3.4 0.2 2.3 0 4.3-0.2 2-0.2 3.7-0.6zm26.1-0.1q2.3 0 3.8 0.6 1.4 0.5 2.2 1.5 0.9 1.1 1.3 2.7 0.4 1.6 0.4 4.4v14.7q0 2.3 0.8 3.1 0.8 0.8 2.7 0.8v1.2q-1-0.1-3.1-0.1-2.1-0.1-4.1-0.1-2.1 0-4.1 0.1-1.9 0-3 0.1v-1.2q1.7 0 2.3-0.8 0.7-0.8 0.7-3.1v-17q0-1.3-0.3-2.3-0.3-1.1-1-1.6-0.7-0.6-2.1-0.6-1.5 0-2.7 0.8-1.2 0.8-2 2.3-0.7 1.4-0.7 3.2v15.2q0 2.3 0.6 3.1 0.7 0.8 2.3 0.8v1.2q-1-0.1-2.9-0.1-1.8-0.1-3.8-0.1-2.1 0-4.3 0.1-2.2 0-3.3 0.1v-1.2q1.9 0 2.7-0.8 0.8-0.8 0.8-3.1v-17.2q0-2.5-0.8-3.6-0.7-1.2-2.7-1.2v-1.2q1.8 0.2 3.4 0.2 2.3 0 4.3-0.2 2-0.2 3.7-0.6v5q1.3-2.8 3.7-4 2.3-1.1 5.2-1.1zm24.3-8.2v8.9h6.5v1.1h-6.5v22.1q0 1.7 0.6 2.4 0.6 0.6 1.9 0.6 0.9 0 1.9-0.7 1-0.8 1.8-2.6l0.9 0.5q-0.9 2.5-2.7 4.1-1.7 1.6-4.8 1.6-1.8 0-3.2-0.5-1.3-0.5-2.3-1.4-1.2-1.2-1.5-3-0.4-1.8-0.4-4.6v-18.5h-4.6v-1.1h4.6v-7.2q2.3 0 4.2-0.3 2-0.5 3.6-1.4zm28 8.2q2.3 0 3.7 0.6 1.5 0.5 2.3 1.5 0.9 1.1 1.3 2.7 0.4 1.7 0.4 4.4v14.7q0 2.3 0.7 3.1 0.7 0.8 2.4 0.8v1.2q-0.9-0.1-3-0.1-1.9-0.1-3.8-0.1-2 0-3.9 0.1-1.9 0-2.9 0.1v-1.2q1.5 0 2-0.8 0.6-0.8 0.6-3.1v-17q0-1.3-0.2-2.3-0.2-1.1-0.9-1.6-0.6-0.6-1.9-0.6-1.4 0-2.6 0.8-1.2 0.8-1.9 2.3-0.7 1.4-0.7 3.2v15.2q0 2.3 0.6 3.1 0.6 0.8 2 0.8v1.2q-0.9-0.1-2.8-0.1-1.8-0.1-3.7-0.1-2 0-4.2 0.1-2.2 0-3.3 0.1v-1.2q1.9 0 2.7-0.8 0.8-0.8 0.8-3.1v-17.2q0-2.5-0.8-3.6-0.7-1.2-2.7-1.2v-1.2q1.7 0.2 3.4 0.2 2.3 0 4.2-0.2 2.1-0.2 3.8-0.6v5q1.3-2.8 3.5-3.9 2.2-1.2 4.9-1.2zm16.5 0q2.3 0 3.7 0.6 1.4 0.5 2.3 1.5 0.8 1.1 1.2 2.7 0.4 1.7 0.4 4.4v14.7q0 2.3 0.8 3.1 0.8 0.8 2.7 0.8v1.2q-1-0.1-3.1-0.1-2.1-0.1-4.1-0.1-2 0-3.9 0.1-1.9 0-2.9 0.1v-1.2q1.5 0 2-0.8 0.6-0.8 0.6-3.1v-17q0-1.3-0.2-2.3-0.2-1.1-1-1.6-0.6-0.6-2-0.6-1.5 0-2.7 0.9-1.2 0.8-1.9 2.3-0.7 1.5-0.8 3.3l-0.3-3.3q1.5-3.3 3.9-4.5 2.5-1.1 5.3-1.1zm27.2 0q4.8 0 7.6 2.8 2.7 2.9 2.7 9.3h-18l-0.1-1h11.2q0.1-2.7-0.3-4.9-0.4-2.3-1.2-3.7-0.8-1.4-2.2-1.4-1.9 0-3.3 2.4-1.3 2.4-1.6 8l0.2 0.3q-0.1 0.7-0.1 1.4 0 0.7 0 1.5 0 3.7 1 6.1 1.1 2.3 2.8 3.4 1.6 1.1 3.3 1.1 1.1 0 2.3-0.4 1.3-0.3 2.6-1.3 1.2-0.9 2.3-2.7l1 0.3q-0.7 2.1-2.1 4.1-1.4 1.9-3.6 3.2-2.2 1.3-5.2 1.3-3.8 0-6.6-1.6-2.8-1.6-4.5-4.8-1.6-3.3-1.6-8.2 0-5.1 1.7-8.5 1.8-3.4 4.8-5 3-1.7 6.9-1.7zm33.5 0q2.3 0 3.7 0.6 1.4 0.5 2.3 1.5 0.8 1.1 1.2 2.7 0.5 1.6 0.5 4.4v14.7q0 2.3 0.7 3.1 0.8 0.8 2.8 0.8v1.2q-1.1-0.1-3.2-0.1-2-0.1-4.1-0.1-2 0-4.1 0.1-1.9 0-3 0.1v-1.2q1.7 0 2.3-0.8 0.7-0.8 0.7-3.1v-17q0-1.3-0.3-2.3-0.3-1.1-1-1.6-0.7-0.6-2.1-0.6-1.5 0-2.7 0.8-1.2 0.8-2 2.3-0.7 1.4-0.7 3.2v15.2q0 2.3 0.7 3.1 0.7 0.8 2.2 0.8v1.2q-0.9-0.1-2.8-0.1-1.9-0.1-3.9-0.1-2.1 0-4.3 0.1-2.2 0-3.3 0.1v-1.2q1.9 0 2.7-0.8 0.8-0.8 0.8-3.1v-17.2q0-2.5-0.7-3.6-0.7-1.2-2.8-1.2v-1.2q1.8 0.2 3.4 0.2 2.3 0 4.3-0.2 2-0.2 3.7-0.6v5q1.4-2.8 3.7-4 2.4-1.1 5.3-1.1zm24.3-8.2v8.9h6.4v1.1h-6.4v22.1q0 1.7 0.6 2.4 0.6 0.6 1.8 0.6 1 0 1.9-0.7 1-0.8 1.8-2.6l0.9 0.5q-0.9 2.5-2.7 4.1-1.7 1.6-4.8 1.6-1.8 0-3.1-0.5-1.4-0.5-2.3-1.4-1.2-1.2-1.6-3-0.4-1.8-0.4-4.6v-18.5h-4.6v-1.1h4.6v-7.2q2.3 0 4.2-0.3 2-0.5 3.7-1.4zm-323.6 65.6v-1.1q1.4 0.1 3.7 0.1 2.3 0.1 4.6 0.1 2.6 0 5.1-0.1 2.4 0 3.5 0 6.7 0 10.1 2.4 3.4 2.4 3.4 6.1 0 2-1.2 3.9-1.1 2-3.5 3.5-2.4 1.6-6.3 2.3v0.1q5.2 0.4 8.2 1.8 3 1.5 4.3 3.6 1.3 2.1 1.3 4.3 0 3.4-1.8 5.8-1.8 2.3-5.2 3.6-3.4 1.2-8.1 1.2-1.3 0-3.7-0.1-2.5-0.1-6-0.1-2.4 0-4.7 0.1-2.3 0-3.7 0.1v-1.1q1.7-0.1 2.6-0.4 0.9-0.4 1.2-1.3 0.3-1 0.3-3v-27.1q0-2-0.3-2.9-0.3-1-1.2-1.4-0.9-0.3-2.6-0.4zm16.2 0q-2.2 0-2.8 0.9-0.6 1-0.6 3.8v27.1q0 1.9 0.2 2.9 0.4 1 1.1 1.3 0.9 0.3 2.4 0.3 4 0 5.8-2.4 1.8-2.5 1.8-7.1 0-4.2-2.1-6.5-2.1-2.3-6.9-2.3h-4.7q0 0 0-0.5 0-0.4 0-0.4h4.7q2.6 0 4-1.3 1.3-1.2 1.9-3.2 0.5-2.1 0.5-4.5 0-4-1.2-6-1.3-2.1-4.1-2.1zm34.1 8.6q3.9 0 6.9 1.5 3 1.4 4.7 4.7 1.7 3.3 1.7 8.7 0 5.4-1.7 8.7-1.7 3.2-4.7 4.7-3 1.5-6.9 1.5-3.9 0-7-1.5-3-1.5-4.7-4.7-1.7-3.3-1.7-8.7 0-5.4 1.7-8.7 1.7-3.3 4.7-4.7 3.1-1.5 7-1.5zm0 1.1q-2.2 0-3.7 3.3-1.5 3.2-1.5 10.5 0 7.3 1.5 10.5 1.5 3.3 3.7 3.3 2.2 0 3.6-3.3 1.5-3.2 1.5-10.5 0-7.3-1.5-10.5-1.4-3.3-3.6-3.3zm30.8-1.1q4 0 7 1.5 3 1.4 4.7 4.7 1.7 3.3 1.7 8.7 0 5.4-1.7 8.7-1.7 3.2-4.7 4.7-3 1.5-7 1.5-3.9 0-6.9-1.5-3-1.5-4.8-4.7-1.7-3.3-1.7-8.7 0-5.4 1.7-8.7 1.8-3.3 4.8-4.7 3-1.5 6.9-1.5zm0 1.1q-2.2 0-3.6 3.3-1.5 3.2-1.5 10.5 0 7.3 1.5 10.5 1.4 3.3 3.6 3.3 2.3 0 3.7-3.3 1.5-3.2 1.5-10.5 0-7.3-1.5-10.5-1.4-3.3-3.7-3.3zm27.3-14.9v37.7q0 2.3 0.7 3.1 0.8 0.8 2.6 0.8v1.2q-1-0.1-3-0.1-2-0.1-4.1-0.1-2.1 0-4.3 0.1-2.1 0-3.2 0.1v-1.2q1.9 0 2.6-0.8 0.9-0.8 0.9-3.1v-31.1q0-2.5-0.8-3.6-0.7-1.2-2.7-1.2v-1.2q1.7 0.2 3.4 0.2 2.2 0 4.2-0.2 2-0.2 3.7-0.6zm17.8 14.5v1.1q-1.7 0.4-3.3 1.5-1.7 1.1-3.5 2.7l-4.2 4.4 0.6-1 9.3 15.6q0.6 1 1.3 1.8 0.6 0.7 1.5 1v1.2q-0.8-0.1-2.4-0.1-1.7-0.1-3.3-0.1-2 0-4 0.1-2.1 0-3 0.1v-1.2q1 0 1.4-0.4 0.4-0.6-0.1-1.4l-5.4-9.8q-0.6-1-1.3-1.3-0.6-0.3-1.6-0.4v-1q1.1-0.1 1.9-0.4 0.9-0.3 1.6-1l4.2-4.1q1.8-1.7 1.8-3.1 0-1.4-1.2-2.2-1.1-0.8-3-0.9v-1.1q1.5 0.1 3.3 0.2 1.8 0 3.1 0 1 0 2.2 0 1.3 0 2.4 0 1.1-0.1 1.7-0.2zm10.2-14q2.3 0 3.6 1.1 1.4 1.1 1.4 3.1 0 1.9-1.4 3.1-1.3 1.1-3.6 1.1-2.3 0-3.7-1.1-1.3-1.2-1.3-3.1 0-2 1.3-3.1 1.4-1.1 3.7-1.1zm4.3 13.4v23.8q0 2.3 0.7 3.1 0.8 0.8 2.8 0.8v1.2q-1-0.1-3.1-0.1-2.1-0.1-4.2-0.1-2.1 0-4.3 0.1-2.2 0-3.3 0.1v-1.2q1.9 0 2.7-0.8 0.8-0.8 0.8-3.1v-17.2q0-2.5-0.8-3.6-0.7-1.2-2.7-1.2v-1.2q1.7 0.2 3.4 0.2 2.3 0 4.2-0.2 2.1-0.2 3.8-0.6zm26.1-0.1q2.3 0 3.7 0.6 1.5 0.5 2.3 1.5 0.9 1.1 1.3 2.7 0.4 1.6 0.4 4.4v14.7q0 2.3 0.8 3.1 0.8 0.8 2.7 0.8v1.2q-1-0.1-3.1-0.1-2.1-0.1-4.1-0.1-2.1 0-4.1 0.1-1.9 0-3 0.1v-1.2q1.7 0 2.3-0.8 0.7-0.8 0.7-3.1v-17q0-1.3-0.3-2.3-0.3-1.1-1-1.6-0.7-0.6-2.1-0.6-1.5 0-2.8 0.8-1.2 0.8-1.9 2.3-0.7 1.4-0.7 3.2v15.2q0 2.3 0.6 3.1 0.7 0.8 2.3 0.8v1.2q-1-0.1-2.9-0.1-1.8-0.1-3.9-0.1-2 0-4.2 0.1-2.2 0-3.3 0.1v-1.2q1.9 0 2.7-0.8 0.8-0.8 0.8-3.1v-17.2q0-2.5-0.8-3.6-0.7-1.2-2.7-1.2v-1.2q1.8 0.2 3.4 0.2 2.3 0 4.3-0.2 2-0.2 3.7-0.6v5q1.3-2.8 3.7-4 2.3-1.1 5.2-1.1zm23.5 39.3q-3.4 0-6.1-0.6-2.6-0.6-4.1-1.7-1.5-1.2-1.5-2.9 0-1.7 1.5-3 1.5-1.4 4.5-2.2l0.5 0.9q-1 0.8-1.5 1.8-0.4 0.9-0.4 2 0 2.3 2 3.5 2.2 1.2 5.8 1.2 2.4 0 4.3-0.6 2-0.7 3.1-2 1.2-1.3 1.2-3.2 0-1.6-1.2-2.7-1.2-1.2-4.9-1.2h-3.3q-2.3 0-4-0.5-1.6-0.5-2.5-1.5-1-1.1-1-2.7 0-2.3 1.8-4.1 1.8-1.7 5.4-3.3l0.5 0.5q-1 0.6-1.9 1.4-0.9 0.7-0.9 1.9 0 1.7 2.2 1.7h5.9q3 0 5.4 0.7 2.4 0.7 3.8 2.4 1.4 1.5 1.4 4.1 0 2.7-1.8 5-1.7 2.3-5.2 3.7-3.6 1.4-9 1.4zm0.5-21.9q-3.1 0-5.6-1-2.4-0.9-3.8-2.8-1.5-1.9-1.5-4.9 0-3 1.5-4.9 1.4-2 3.8-2.9 2.5-0.9 5.6-0.9 3.1 0 5.6 0.9 2.4 0.9 3.9 2.9 1.4 1.9 1.4 4.9 0 3-1.4 4.9-1.5 1.9-3.9 2.8-2.5 1-5.6 1zm0-1q1.5 0 2.3-1.7 0.8-1.7 0.8-6 0-4.4-0.8-6-0.8-1.7-2.3-1.7-1.4 0-2.3 1.7-0.8 1.6-0.8 6 0 4.3 0.8 6 0.9 1.7 2.3 1.7zm8.5-11.7l-1.1-0.4q0.9-2.1 2.7-3.6 1.8-1.4 4-1.4 1.7 0 2.6 1 0.9 0.9 0.9 2.5 0 1.6-0.9 2.4-0.8 0.8-1.9 0.8-1 0-1.8-0.7-0.7-0.6-0.9-1.9-0.1-1.4 1-3.5l0.4 0.3q-2.1 0.8-3.2 1.8-1 1-1.8 2.7z"/><path class="h" d="m-343.6 203.6v8.4h3.9v-0.7h-3v-7.7zm11.2 5.1c0-2.1-1.4-3.3-3.3-3.3-1.8 0-3.3 1.2-3.3 3.3 0 2.1 1.5 3.4 3.3 3.4 1.8 0 3.3-1.3 3.3-3.4zm-5.7 0c0-1.8 1.2-2.6 2.4-2.6 1.3 0 2.4 0.8 2.4 2.6 0 1.8-1.2 2.7-2.4 2.7-1.2 0-2.4-0.9-2.4-2.7zm8.1-0.4c0-1.6 0.9-2.1 2-2.1h0.2v-0.9c-1.1 0-1.9 0.5-2.2 1.3v-1.2h-0.9v6.6h0.9zm6.3-2.3c1.2 0 2.3 0.8 2.3 2.3h-4.7c0.1-1.5 1.2-2.3 2.4-2.3zm3 3.9h-0.9c-0.2 0.9-1 1.4-2.1 1.4-1.2 0-2.3-0.8-2.4-2.3h5.5c0-0.2 0-0.4 0-0.7 0-1.6-1.2-3-3.1-3-1.9 0-3.2 1.3-3.2 3.4 0 2.1 1.4 3.4 3.2 3.4 1.7 0 2.7-1 3-2.2zm11.2 2.1h0.8v-3.9c0-1.9-1.1-2.8-2.6-2.8-1 0-2 0.5-2.3 1.6-0.4-1.1-1.4-1.6-2.4-1.6-1 0-1.8 0.4-2.2 1.2v-1.1h-0.9v6.6h0.9v-3.6c0-1.6 0.8-2.4 2-2.4 1.2 0 1.9 0.8 1.9 2.2v3.8h0.9v-3.6c0-1.6 0.8-2.4 2-2.4 1.2 0 1.9 0.8 1.9 2.2zm6 0h0.8v-6.5h-0.8zm0.4-7.8c0.4 0 0.6-0.3 0.6-0.6 0-0.4-0.2-0.7-0.6-0.7-0.3 0-0.6 0.3-0.6 0.7 0 0.3 0.3 0.6 0.6 0.6zm3.2 2.7v-1.5h-0.9v9.7h0.9v-4.6c0.4 0.8 1.3 1.6 2.6 1.6 1.8 0 3.1-1.4 3.1-3.4 0-2.1-1.3-3.4-3.1-3.4-1.3 0-2.2 0.7-2.6 1.6zm4.8 1.8c0 1.6-1 2.6-2.4 2.6-1.3 0-2.4-1-2.4-2.6 0-1.6 1.1-2.7 2.4-2.7 1.4 0 2.4 1 2.4 2.7zm7 1.5c-0.1-2.3-3.9-1.3-3.9-3.1 0-0.6 0.5-1.1 1.4-1.1 1 0 1.5 0.6 1.6 1.3h0.8c-0.1-1.2-1-2-2.4-2-1.4 0-2.3 0.8-2.3 1.8 0 2.5 4 1.5 4 3.1 0 0.6-0.6 1.2-1.5 1.2-1.1 0-1.7-0.6-1.8-1.3h-0.8c0.1 1.2 1.1 2 2.6 2 1.4 0 2.3-0.8 2.3-1.9zm7.2-4.8h-0.8v3.6c0 1.6-0.9 2.3-2.1 2.3-1.2 0-2-0.7-2-2.2v-3.7h-0.8v3.8c0 2 1.2 2.9 2.7 2.9 0.9 0 1.8-0.5 2.2-1.3v1.2h0.8zm11.5 6.5h0.9v-3.8c0-1.9-1.2-2.9-2.6-2.9-1.1 0-2 0.6-2.4 1.7-0.4-1.1-1.3-1.7-2.4-1.7-1 0-1.8 0.5-2.2 1.3v-1.1h-0.8v6.5h0.8v-3.5c0-1.6 0.8-2.4 2-2.4 1.2 0 2 0.7 2 2.2v3.7h0.8v-3.5c0-1.6 0.8-2.4 2-2.4 1.2 0 1.9 0.7 1.9 2.2zm5.6-3.3c0 2 1.4 3.4 3.2 3.4 1.3 0 2.2-0.7 2.6-1.6v1.5h0.8v-8.9h-0.8v3.7c-0.5-0.8-1.5-1.5-2.6-1.5-1.8 0-3.2 1.3-3.2 3.4zm5.8 0c0 1.6-1.1 2.6-2.5 2.6-1.4 0-2.4-1-2.4-2.6 0-1.7 1-2.6 2.4-2.6 1.4 0 2.5 1 2.5 2.6zm8.9 0c0-2.1-1.4-3.4-3.3-3.4-1.8 0-3.3 1.3-3.3 3.4 0 2.1 1.4 3.4 3.3 3.4 1.8 0 3.3-1.3 3.3-3.4zm-5.7 0c0-1.8 1.1-2.6 2.4-2.6 1.2 0 2.4 0.8 2.4 2.6 0 1.8-1.2 2.6-2.4 2.6-1.3 0-2.4-0.8-2.4-2.6zm7.2 3.3h0.9v-8.9h-0.9zm8.9-3.3c0-2.1-1.4-3.4-3.2-3.4-1.9 0-3.3 1.3-3.3 3.4 0 2.1 1.4 3.4 3.2 3.4 1.9 0 3.3-1.3 3.3-3.4zm-5.7 0c0-1.8 1.2-2.6 2.4-2.6 1.3 0 2.5 0.8 2.5 2.6 0 1.8-1.2 2.7-2.5 2.7-1.2 0-2.4-0.9-2.4-2.7zm8.1-0.4c0-1.6 0.9-2.1 2-2.1h0.3v-0.9c-1.2 0-1.9 0.5-2.3 1.3v-1.2h-0.8v6.6h0.8zm11.3 1.9c0-2.3-3.9-1.4-3.9-3.1 0-0.6 0.6-1.1 1.5-1.1 0.9 0 1.5 0.6 1.5 1.3h0.9c-0.1-1.3-1-2-2.4-2-1.4 0-2.3 0.8-2.3 1.8 0 2.4 3.9 1.5 3.9 3.1 0 0.6-0.5 1.1-1.5 1.1-1 0-1.6-0.5-1.7-1.2h-0.9c0.1 1.2 1.2 1.9 2.7 1.9 1.3 0 2.2-0.7 2.2-1.8zm1.6 1.8h0.9v-6.6h-0.9zm0.4-7.8c0.4 0 0.7-0.3 0.7-0.6 0-0.4-0.3-0.6-0.7-0.6-0.3 0-0.6 0.2-0.6 0.6 0 0.3 0.3 0.6 0.6 0.6zm2.6 6c0 1.3 0.6 1.8 1.8 1.8h0.9v-0.7h-0.8c-0.8 0-1-0.3-1-1.1v-4h1.8v-0.8h-1.8v-1.6h-0.9v1.6h-0.9v0.8h0.9zm6.9-1.6c0 2.1 1.4 3.4 3.2 3.4 1.3 0 2.2-0.7 2.6-1.5v1.4h0.8v-6.5h-0.8v1.4c-0.4-0.8-1.3-1.5-2.6-1.5-1.8 0-3.2 1.3-3.2 3.3zm5.8 0.1c0 1.6-1.1 2.6-2.5 2.6-1.3 0-2.4-1-2.4-2.7 0-1.6 1.1-2.6 2.4-2.6 1.4 0 2.5 1 2.5 2.7zm12.3 3.2h0.8v-3.8c0-1.9-1.1-2.8-2.6-2.8-1 0-2 0.5-2.3 1.6-0.4-1.1-1.4-1.6-2.5-1.6-0.9 0-1.7 0.4-2.1 1.2v-1.1h-0.9v6.5h0.9v-3.5c0-1.6 0.8-2.4 2-2.4 1.2 0 1.9 0.7 1.9 2.2v3.7h0.9v-3.5c0-1.6 0.8-2.4 2-2.4 1.1 0 1.9 0.7 1.9 2.2zm5.5-5.9c1.2 0 2.3 0.7 2.3 2.3h-4.6c0.1-1.6 1.1-2.3 2.3-2.3zm3 3.8h-0.9c-0.2 0.9-1 1.5-2.1 1.5-1.2 0-2.3-0.8-2.3-2.4h5.4c0-0.2 0-0.4 0-0.6 0-1.7-1.2-3.1-3.1-3.1-1.9 0-3.2 1.3-3.2 3.4 0 2.1 1.4 3.4 3.2 3.4 1.7 0 2.7-1 3-2.2zm1.9 0.3c0 1.3 0.6 1.8 1.7 1.8h0.9v-0.7h-0.7c-0.8 0-1.1-0.3-1.1-1.1v-4.1h1.8v-0.7h-1.8v-1.6h-0.8v1.6h-0.9v0.7h0.9zm3 3.6h0.6l1.2-3.2h-0.9zm6-5c0 2.1 1.3 3.4 3.2 3.4 1.6 0 2.7-1 3-2.3h-0.9c-0.2 1-1 1.6-2.1 1.6-1.3 0-2.4-0.9-2.4-2.7 0-1.8 1.1-2.7 2.4-2.7 1.1 0 1.9 0.6 2.1 1.6h0.9c-0.3-1.4-1.4-2.3-3-2.3-1.9 0-3.2 1.3-3.2 3.4zm13.9 0c0-2.1-1.4-3.4-3.3-3.4-1.8 0-3.2 1.3-3.2 3.4 0 2.1 1.4 3.4 3.2 3.4 1.9 0 3.3-1.3 3.3-3.4zm-5.7 0c0-1.8 1.2-2.6 2.4-2.6 1.3 0 2.4 0.8 2.4 2.6 0 1.8-1.2 2.6-2.4 2.6-1.2 0-2.4-0.8-2.4-2.6zm12.1 3.3h0.9v-3.9c0-1.9-1.2-2.8-2.7-2.8-1 0-1.8 0.4-2.2 1.2v-1.1h-0.9v6.6h0.9v-3.6c0-1.6 0.8-2.4 2.1-2.4 1.2 0 1.9 0.8 1.9 2.2zm7.3-1.7c-0.1-2.3-3.9-1.4-3.9-3.2 0-0.5 0.5-1 1.4-1 1 0 1.5 0.6 1.6 1.3h0.8c-0.1-1.3-1-2-2.4-2-1.4 0-2.3 0.8-2.3 1.8 0 2.4 3.9 1.5 3.9 3.1 0 0.6-0.5 1.1-1.4 1.1-1.1 0-1.7-0.5-1.8-1.2h-0.8c0.1 1.2 1.1 1.9 2.6 1.9 1.3 0 2.3-0.8 2.3-1.8zm4.4-4.2c1.2 0 2.3 0.8 2.2 2.3h-4.6c0.1-1.5 1.2-2.3 2.4-2.3zm3 3.9h-0.9c-0.2 0.8-1 1.4-2.1 1.4-1.2 0-2.3-0.8-2.4-2.3h5.5c0-0.2 0-0.4 0-0.7 0-1.6-1.2-3-3.1-3-1.9 0-3.2 1.3-3.2 3.4 0 2 1.3 3.3 3.2 3.3 1.6 0 2.7-0.9 3-2.1zm1.2-1.2c0 2 1.4 3.3 3.2 3.3 1.7 0 2.7-0.9 3-2.2h-0.9c-0.2 1-1 1.5-2.1 1.5-1.3 0-2.3-0.9-2.3-2.6 0-1.8 1-2.7 2.3-2.7 1.1 0 1.9 0.6 2.1 1.5h0.9c-0.3-1.3-1.3-2.2-3-2.2-1.8 0-3.2 1.3-3.2 3.4zm8 1.5c0 1.3 0.6 1.7 1.8 1.7h0.9v-0.7h-0.8c-0.8 0-1-0.2-1-1v-4.1h1.8v-0.7h-1.8v-1.7h-0.9v1.7h-0.9v0.7h0.9zm6.8-4.2c1.3 0 2.4 0.8 2.3 2.3h-4.6c0.1-1.5 1.2-2.3 2.3-2.3zm3.1 3.9h-0.9c-0.2 0.9-1 1.5-2.1 1.5-1.2 0-2.3-0.9-2.4-2.4h5.5c0-0.2 0-0.4 0-0.6 0-1.7-1.2-3.1-3.1-3.1-1.9 0-3.2 1.3-3.2 3.4 0 2.1 1.3 3.4 3.2 3.4 1.6 0 2.7-1 3-2.2zm1.9 0.3c0 1.3 0.6 1.8 1.7 1.8h0.9v-0.8h-0.8c-0.7 0-1-0.2-1-1v-4.1h1.8v-0.7h-1.8v-1.6h-0.8v1.6h-1v0.7h1zm9.7-4.8h-0.9v3.6c0 1.6-0.8 2.4-2.1 2.4-1.2 0-1.9-0.8-1.9-2.2v-3.8h-0.9v3.9c0 1.9 1.2 2.8 2.7 2.8 1 0 1.8-0.4 2.2-1.3v1.2h0.9zm4.7 0.6c1.2 0 2.3 0.8 2.3 2.3h-4.7c0.1-1.5 1.2-2.3 2.4-2.3zm3 3.9h-0.9c-0.2 0.8-1 1.4-2.1 1.4-1.2 0-2.3-0.8-2.4-2.3h5.5c0-0.2 0-0.4 0-0.7 0-1.6-1.2-3-3.1-3-1.9 0-3.2 1.3-3.2 3.4 0 2 1.4 3.3 3.2 3.3 1.7 0 2.7-0.9 3-2.1zm2.5-1.6c0-1.7 0.9-2.1 2-2.1h0.2v-0.9c-1.1 0-1.9 0.5-2.2 1.3v-1.2h-0.9v6.5h0.9zm6.4 0.4c0 2.1 1.3 3.4 3.1 3.4 1.3 0 2.2-0.7 2.6-1.5v1.4h0.9v-6.5h-0.9v1.4c-0.4-0.8-1.3-1.5-2.6-1.5-1.8 0-3.1 1.3-3.1 3.3zm5.7 0c0 1.7-1.1 2.7-2.4 2.7-1.4 0-2.5-1-2.5-2.7 0-1.6 1.1-2.6 2.5-2.6 1.3 0 2.4 1 2.4 2.6zm2.4 0c0 2.1 1.3 3.4 3.1 3.4 1.3 0 2.2-0.7 2.6-1.6v1.5h0.9v-8.9h-0.9v3.8c-0.4-0.9-1.4-1.5-2.6-1.5-1.8 0-3.1 1.3-3.1 3.3zm5.7 0c0 1.7-1.1 2.7-2.4 2.7-1.4 0-2.5-1-2.5-2.7 0-1.6 1.1-2.6 2.5-2.6 1.3 0 2.4 1 2.4 2.6zm2.8 3.3h0.8v-6.5h-0.8zm0.4-7.8c0.3 0 0.6-0.3 0.6-0.7 0-0.3-0.3-0.6-0.6-0.6-0.3 0-0.6 0.3-0.6 0.6 0 0.4 0.3 0.7 0.6 0.7zm3.2 2.6v-1.4h-0.9v9.7h0.9v-4.6c0.3 0.8 1.2 1.6 2.6 1.6 1.7 0 3.1-1.4 3.1-3.4 0-2.1-1.4-3.4-3.1-3.4-1.4 0-2.3 0.7-2.6 1.5zm4.8 1.9c0 1.6-1 2.6-2.4 2.6-1.3 0-2.4-1-2.4-2.6 0-1.7 1.1-2.7 2.4-2.7 1.4 0 2.4 1 2.4 2.7zm2.4 3.3h0.9v-6.6h-0.9zm0.4-7.8c0.4 0 0.7-0.2 0.7-0.6 0-0.4-0.3-0.6-0.7-0.6-0.3 0-0.6 0.2-0.6 0.6 0 0.4 0.3 0.6 0.6 0.6zm6.9 6.1c0-2.4-3.9-1.4-3.9-3.2 0-0.6 0.5-1 1.4-1 1 0 1.6 0.5 1.6 1.3h0.8c0-1.3-0.9-2-2.4-2-1.3 0-2.3 0.8-2.3 1.7 0 2.5 4 1.5 4 3.2 0 0.6-0.5 1.1-1.5 1.1-1.1 0-1.7-0.5-1.7-1.2h-0.9c0.1 1.2 1.1 1.9 2.6 1.9 1.4 0 2.3-0.8 2.3-1.8zm1.2-1.6c0 2.1 1.3 3.4 3.2 3.4 1.6 0 2.7-0.9 3-2.2h-0.9c-0.2 0.9-1 1.5-2.1 1.5-1.3 0-2.3-0.9-2.3-2.7 0-1.7 1-2.6 2.3-2.6 1.1 0 1.9 0.6 2.1 1.5h0.9c-0.3-1.4-1.4-2.2-3-2.2-1.9 0-3.2 1.3-3.2 3.3zm7.7 3.3h0.9v-6.5h-0.9zm0.5-7.8c0.3 0 0.6-0.3 0.6-0.7 0-0.3-0.3-0.6-0.6-0.6-0.4 0-0.6 0.3-0.6 0.6 0 0.4 0.2 0.7 0.6 0.7zm7.2 7.8h0.8v-3.9c0-1.9-1.1-2.8-2.6-2.8-1 0-1.8 0.4-2.3 1.2v-1.1h-0.8v6.6h0.8v-3.6c0-1.6 0.9-2.4 2.1-2.4 1.2 0 2 0.8 2 2.2zm2.3-3.3c0 2.1 1.3 3.4 3.1 3.4 1.3 0 2.2-0.7 2.6-1.5v1.6c0 1.5-0.9 2.3-2.2 2.3-1.2 0-2-0.6-2.3-1.5h-0.8c0.2 1.4 1.4 2.2 3.1 2.2 1.8 0 3.1-1.2 3.1-3v-6.7h-0.9v1.4c-0.3-0.8-1.3-1.5-2.6-1.5-1.8 0-3.1 1.3-3.1 3.3zm5.7 0c0 1.7-1.1 2.7-2.4 2.7-1.4 0-2.4-1-2.4-2.7 0-1.6 1-2.6 2.4-2.6 1.3 0 2.4 1 2.4 2.6zm8.9-2.6c1.2 0 2.3 0.7 2.3 2.3h-4.7c0.1-1.6 1.2-2.3 2.4-2.3zm3 3.8h-0.9c-0.2 0.9-1 1.5-2.1 1.5-1.2 0-2.3-0.8-2.4-2.3h5.5c0-0.3 0-0.4 0-0.7 0-1.7-1.2-3-3.1-3-1.9 0-3.2 1.2-3.2 3.3 0 2.1 1.4 3.4 3.2 3.4 1.7 0 2.7-0.9 3-2.2zm1.6 2.1h0.9v-8.9h-0.9zm2.8 0h0.8v-6.5h-0.8zm0.4-7.8c0.3 0 0.6-0.3 0.6-0.6 0-0.4-0.3-0.6-0.6-0.6-0.3 0-0.6 0.2-0.6 0.6 0 0.3 0.3 0.6 0.6 0.6zm2.6 6c0 1.3 0.6 1.8 1.7 1.8h0.9v-0.7h-0.7c-0.8 0-1.1-0.3-1.1-1.1v-4.1h1.8v-0.7h-1.8v-1.6h-0.8v1.6h-0.9v0.7h0.9zm3 3.6h0.5l1.3-3.2h-1zm-326.9 18.5c0-2.3-3.9-1.3-3.9-3.1 0-0.6 0.5-1.1 1.4-1.1 1 0 1.5 0.6 1.6 1.3h0.8c0-1.2-1-2-2.4-2-1.3 0-2.3 0.8-2.3 1.8 0 2.5 4 1.5 4 3.1 0 0.6-0.6 1.2-1.5 1.2-1.1 0-1.7-0.6-1.8-1.3h-0.8c0.1 1.2 1.1 2 2.6 2 1.4 0 2.3-0.8 2.3-1.9zm4.4-4.2c1.2 0 2.3 0.8 2.3 2.3h-4.7c0.1-1.5 1.2-2.3 2.4-2.3zm3 3.9h-0.9c-0.2 0.9-1 1.5-2.1 1.5-1.2 0-2.3-0.9-2.4-2.4h5.5c0-0.2 0-0.4 0-0.6 0-1.7-1.2-3.1-3.1-3.1-1.9 0-3.2 1.3-3.2 3.4 0 2.1 1.3 3.4 3.2 3.4 1.7 0 2.7-1 3-2.2zm1.3-1.2c0 2 1.3 3.4 3.1 3.4 1.3 0 2.2-0.7 2.6-1.6v1.5h0.8v-8.9h-0.8v3.7c-0.4-0.8-1.4-1.5-2.6-1.5-1.8 0-3.1 1.3-3.1 3.4zm5.7 0c0 1.6-1.1 2.6-2.5 2.6-1.3 0-2.4-1-2.4-2.6 0-1.7 1.1-2.7 2.4-2.7 1.4 0 2.5 1.1 2.5 2.7zm5.6 0c0 2 1.4 3.4 3.2 3.4 1.3 0 2.2-0.7 2.6-1.6v1.5h0.8v-8.9h-0.8v3.7c-0.5-0.8-1.4-1.5-2.6-1.5-1.8 0-3.2 1.3-3.2 3.4zm5.8 0c0 1.6-1.1 2.6-2.5 2.6-1.3 0-2.4-1-2.4-2.6 0-1.7 1.1-2.7 2.4-2.7 1.4 0 2.5 1.1 2.5 2.7zm2.7 3.3h0.9v-6.6h-0.9zm0.4-7.8c0.4 0 0.7-0.2 0.7-0.6 0-0.4-0.3-0.6-0.7-0.6-0.3 0-0.6 0.2-0.6 0.6 0 0.4 0.3 0.6 0.6 0.6zm2 4.5c0 2.1 1.3 3.4 3.1 3.4 1.3 0 2.2-0.7 2.6-1.5v1.4h0.9v-6.5h-0.9v1.4c-0.4-0.8-1.3-1.5-2.6-1.5-1.8 0-3.1 1.3-3.1 3.3zm5.7 0c0 1.7-1.1 2.7-2.4 2.7-1.4 0-2.5-1-2.5-2.7 0-1.6 1.1-2.6 2.5-2.6 1.3 0 2.4 1 2.4 2.6zm12.4 3.3h0.8v-3.8c0-1.9-1.2-2.9-2.6-2.9-1.1 0-2 0.6-2.4 1.6-0.4-1-1.3-1.6-2.4-1.6-0.9 0-1.8 0.5-2.2 1.3v-1.1h-0.8v6.5h0.8v-3.5c0-1.6 0.8-2.4 2-2.4 1.2 0 2 0.7 2 2.2v3.7h0.8v-3.5c0-1.6 0.8-2.4 2-2.4 1.2 0 2 0.7 2 2.2zm10.8 0h0.9v-3.9c0-1.9-1.2-2.8-2.7-2.8-1 0-1.8 0.4-2.2 1.2v-1.1h-0.9v6.6h0.9v-3.6c0-1.6 0.8-2.4 2-2.4 1.2 0 2 0.8 2 2.2zm8.9-3.3c0-2-1.4-3.3-3.3-3.3-1.8 0-3.3 1.3-3.3 3.3 0 2.1 1.4 3.4 3.3 3.4 1.8 0 3.3-1.3 3.3-3.4zm-5.7 0c0-1.8 1.2-2.6 2.4-2.6 1.3 0 2.4 0.8 2.4 2.6 0 1.8-1.2 2.7-2.4 2.7-1.3 0-2.4-0.9-2.4-2.7zm12.1 3.3h0.9v-3.8c0-1.9-1.2-2.8-2.7-2.8-1 0-1.8 0.4-2.2 1.2v-1.1h-0.9v6.5h0.9v-3.6c0-1.5 0.8-2.3 2-2.3 1.2 0 2 0.7 2 2.2zm8.4-6.6h-0.8v3.6c0 1.6-0.9 2.4-2.1 2.4-1.2 0-2-0.8-2-2.2v-3.8h-0.8v3.9c0 1.9 1.1 2.8 2.6 2.8 1 0 1.9-0.4 2.3-1.3v1.2h0.8zm11.5 6.5h0.8v-3.8c0-1.9-1.1-2.8-2.6-2.8-1 0-2 0.5-2.3 1.6-0.4-1.1-1.4-1.6-2.5-1.6-0.9 0-1.7 0.4-2.1 1.2v-1.1h-0.9v6.5h0.9v-3.5c0-1.6 0.8-2.4 2-2.4 1.2 0 1.9 0.7 1.9 2.2v3.7h0.8v-3.5c0-1.6 0.9-2.4 2.1-2.4 1.1 0 1.9 0.7 1.9 2.2zm12.3 0h0.8v-3.9c0-1.9-1.2-2.8-2.6-2.8-1.1 0-2 0.6-2.4 1.6-0.4-1.1-1.3-1.6-2.4-1.6-0.9 0-1.8 0.4-2.2 1.3v-1.2h-0.8v6.6h0.8v-3.6c0-1.6 0.9-2.4 2.1-2.4 1.1 0 1.9 0.8 1.9 2.2v3.8h0.8v-3.6c0-1.6 0.9-2.4 2-2.4 1.2 0 2 0.8 2 2.2zm5-0.9l-2.2-5.6h-0.9l2.7 6.5-1.3 3.1h0.9l3.8-9.6h-0.8zm12.3 1h0.9v-3.9c0-1.9-1.2-2.8-2.7-2.8-1 0-1.8 0.4-2.2 1.2v-1.1h-0.9v6.6h0.9v-3.6c0-1.6 0.8-2.4 2.1-2.4 1.2 0 1.9 0.8 1.9 2.2zm2.7 0h0.9v-6.5h-0.9zm0.5-7.8c0.3 0 0.6-0.3 0.6-0.7 0-0.3-0.3-0.6-0.6-0.6-0.4 0-0.7 0.3-0.7 0.6 0 0.4 0.3 0.7 0.7 0.7zm3.1 2.7v-3.8h-0.8v8.9h0.8v-1.5c0.4 0.9 1.3 1.6 2.6 1.6 1.8 0 3.1-1.4 3.1-3.4 0-2.1-1.3-3.4-3.1-3.4-1.3 0-2.2 0.7-2.6 1.6zm4.9 1.8c0 1.6-1.1 2.6-2.5 2.6-1.3 0-2.4-1-2.4-2.6 0-1.7 1.1-2.7 2.4-2.7 1.4 0 2.5 1 2.5 2.7zm2.4 3.3h0.8v-3.6c0-1.6 0.9-2.4 2.1-2.4 1.2 0 2 0.8 2 2.2v3.8h0.8v-3.9c0-1.9-1.1-2.8-2.6-2.8-1 0-1.9 0.4-2.3 1.2v-3.4h-0.8zm13.7-6c1.2 0 2.3 0.8 2.2 2.3h-4.6c0.1-1.5 1.2-2.3 2.4-2.3zm3 3.9h-0.9c-0.2 0.9-1 1.5-2.1 1.5-1.2 0-2.3-0.8-2.4-2.4h5.5c0-0.2 0-0.4 0-0.6 0-1.7-1.2-3.1-3.1-3.1-1.9 0-3.2 1.3-3.2 3.4 0 2.1 1.3 3.4 3.2 3.4 1.6 0 2.7-1 3-2.2zm7.3-4.5h-0.8v3.6c0 1.6-0.9 2.4-2.1 2.4-1.2 0-2-0.8-2-2.2v-3.8h-0.8v3.9c0 1.9 1.1 2.8 2.6 2.8 1 0 1.9-0.4 2.3-1.3v1.2h0.8zm1.9 6.5h0.9v-6.5h-0.9zm0.4-7.8c0.4 0 0.7-0.3 0.7-0.6 0-0.4-0.3-0.6-0.7-0.6-0.3 0-0.6 0.2-0.6 0.6 0 0.3 0.3 0.6 0.6 0.6zm6.9 6c0-2.3-3.9-1.3-3.9-3.1 0-0.6 0.5-1.1 1.4-1.1 1 0 1.6 0.6 1.6 1.3h0.8c0-1.2-0.9-2-2.4-2-1.3 0-2.3 0.8-2.3 1.8 0 2.5 4 1.5 4 3.1 0 0.7-0.5 1.2-1.5 1.2-1.1 0-1.7-0.6-1.7-1.3h-0.9c0.1 1.2 1.1 2 2.6 2 1.4 0 2.3-0.8 2.3-1.9zm11.2 1.8h0.8v-3.9c0-1.9-1.2-2.8-2.6-2.8-1.1 0-2 0.5-2.4 1.6-0.4-1.1-1.3-1.6-2.4-1.6-0.9 0-1.7 0.4-2.2 1.3v-1.2h-0.8v6.6h0.8v-3.6c0-1.6 0.9-2.4 2.1-2.4 1.1 0 1.9 0.8 1.9 2.2v3.8h0.8v-3.6c0-1.6 0.9-2.4 2-2.4 1.2 0 2 0.8 2 2.2zm8.8-3.2c0-2.1-1.4-3.4-3.3-3.4-1.8 0-3.2 1.3-3.2 3.4 0 2 1.4 3.3 3.2 3.3 1.9 0 3.3-1.3 3.3-3.3zm-5.7 0c0-1.8 1.2-2.7 2.4-2.7 1.3 0 2.5 0.9 2.5 2.7 0 1.8-1.2 2.6-2.5 2.6-1.2 0-2.4-0.8-2.4-2.6zm6.9-0.1c0 2.1 1.3 3.4 3.1 3.4 1.3 0 2.2-0.7 2.6-1.5v1.4h0.8v-8.8h-0.8v3.7c-0.4-0.9-1.4-1.5-2.6-1.5-1.8 0-3.1 1.3-3.1 3.3zm5.7 0.1c0 1.6-1.1 2.6-2.4 2.6-1.4 0-2.5-1-2.5-2.7 0-1.6 1.1-2.6 2.5-2.6 1.3 0 2.4 1 2.4 2.7zm6.3 1.5c0 1.3 0.6 1.7 1.7 1.7h0.9v-0.7h-0.7c-0.8 0-1.1-0.2-1.1-1v-4.1h1.8v-0.7h-1.8v-1.7h-0.8v1.7h-0.9v0.7h0.9zm4 1.8h0.9v-6.6h-0.9zm0.4-7.8c0.4 0 0.7-0.2 0.7-0.6 0-0.4-0.3-0.6-0.7-0.6-0.3 0-0.6 0.2-0.6 0.6 0 0.4 0.3 0.6 0.6 0.6zm7.3 7.8h0.8v-3.8c0-1.9-1.2-2.9-2.7-2.9-0.9 0-1.8 0.5-2.2 1.3v-1.1h-0.8v6.5h0.8v-3.6c0-1.6 0.9-2.3 2.1-2.3 1.2 0 2 0.7 2 2.2zm2.3-3.3c0 2.1 1.3 3.4 3.2 3.4 1.6 0 2.7-1 3-2.3h-0.9c-0.3 1-1 1.6-2.1 1.6-1.3 0-2.4-0.9-2.4-2.7 0-1.8 1.1-2.7 2.4-2.7 1.1 0 1.9 0.6 2.1 1.6h0.9c-0.3-1.4-1.4-2.3-3-2.3-1.9 0-3.2 1.3-3.2 3.4zm7.7 3.3h0.9v-6.6h-0.9zm0.4-7.8c0.4 0 0.7-0.2 0.7-0.6 0-0.4-0.3-0.6-0.7-0.6-0.3 0-0.6 0.2-0.6 0.6 0 0.4 0.3 0.6 0.6 0.6zm2 4.5c0 2.1 1.3 3.4 3.1 3.4 1.3 0 2.2-0.7 2.6-1.5v1.4h0.8v-8.9h-0.8v3.8c-0.4-0.9-1.4-1.5-2.6-1.5-1.8 0-3.1 1.3-3.1 3.3zm5.7 0c0 1.7-1.1 2.7-2.4 2.7-1.4 0-2.5-1-2.5-2.7 0-1.6 1.1-2.6 2.5-2.6 1.3 0 2.4 1 2.4 2.6zm8.4-3.2h-0.8v3.5c0 1.6-0.8 2.4-2.1 2.4-1.2 0-2-0.8-2-2.2v-3.7h-0.8v3.8c0 1.9 1.2 2.8 2.7 2.8 0.9 0 1.8-0.4 2.2-1.2v1.1h0.8zm6.9 6.6h0.8v-3.9c0-1.9-1.2-2.8-2.7-2.8-0.9 0-1.8 0.4-2.2 1.2v-1.1h-0.8v6.6h0.8v-3.6c0-1.6 0.9-2.4 2.1-2.4 1.2 0 2 0.8 2 2.2zm2.9-1.8c0 1.4 0.6 1.8 1.8 1.8h0.9v-0.7h-0.8c-0.8 0-1-0.2-1-1.1v-4h1.8v-0.7h-1.8v-1.7h-0.9v1.7h-0.9v0.7h0.9zm13-4.8h-0.8v3.6c0 1.6-0.9 2.3-2.1 2.3-1.2 0-2-0.7-2-2.2v-3.7h-0.8v3.8c0 2 1.1 2.9 2.6 2.9 1 0 1.9-0.5 2.3-1.3v1.2h0.8zm2.2 4.7c0 1.3 0.6 1.8 1.7 1.8h0.9v-0.7h-0.8c-0.7 0-1-0.3-1-1.1v-4h1.8v-0.7h-1.8v-1.7h-0.8v1.7h-1v0.7h1zm7.3 1.7h0.8v-8.8h-0.8zm2.3-3.3c0 2 1.4 3.4 3.2 3.4 1.3 0 2.2-0.8 2.6-1.6v1.5h0.8v-6.6h-0.8v1.4c-0.4-0.8-1.3-1.5-2.6-1.5-1.8 0-3.2 1.3-3.2 3.4zm5.8 0c0 1.6-1.1 2.6-2.5 2.6-1.4 0-2.4-1-2.4-2.6 0-1.7 1-2.7 2.4-2.7 1.4 0 2.5 1.1 2.5 2.7zm8.9 0c0-2.1-1.4-3.4-3.3-3.4-1.8 0-3.3 1.3-3.3 3.4 0 2.1 1.4 3.4 3.3 3.4 1.8 0 3.3-1.3 3.3-3.4zm-5.7 0c0-1.8 1.2-2.7 2.4-2.7 1.3 0 2.4 0.9 2.4 2.7 0 1.8-1.2 2.6-2.4 2.6-1.3 0-2.4-0.8-2.4-2.6zm8.1-0.4c0-1.6 0.9-2.1 2-2.1h0.2v-0.9c-1.1 0-1.9 0.5-2.2 1.3v-1.2h-0.9v6.6h0.9zm6.3-2.3c1.2 0 2.3 0.8 2.2 2.3h-4.6c0.1-1.5 1.2-2.3 2.4-2.3zm3 3.8h-0.9c-0.2 0.9-1 1.5-2.1 1.5-1.2 0-2.3-0.8-2.4-2.3h5.5c0-0.3 0-0.4 0-0.7 0-1.7-1.2-3-3.1-3-1.9 0-3.2 1.3-3.2 3.3 0 2.1 1.3 3.4 3.2 3.4 1.6 0 2.7-0.9 3-2.2zm4.4-3.8c1.2 0 2.3 0.8 2.3 2.3h-4.6c0.1-1.5 1.1-2.3 2.3-2.3zm3.1 3.8h-0.9c-0.3 0.9-1 1.5-2.1 1.5-1.3 0-2.3-0.8-2.4-2.3h5.4c0.1-0.3 0.1-0.4 0.1-0.7 0-1.7-1.2-3-3.1-3-1.9 0-3.2 1.3-3.2 3.3 0 2.1 1.3 3.4 3.2 3.4 1.6 0 2.7-0.9 3-2.2zm1.8 0.3c0 1.4 0.7 1.8 1.8 1.8h0.9v-0.7h-0.8c-0.7 0-1-0.3-1-1.1v-4h1.8v-0.7h-1.8v-1.7h-0.9v1.7h-0.9v0.7h0.9zm-318.1 21.5c0 2 1.4 3.3 3.2 3.3 1.3 0 2.2-0.6 2.6-1.5v1.5h0.8v-8.9h-0.8v3.7c-0.5-0.8-1.4-1.5-2.6-1.5-1.8 0-3.2 1.3-3.2 3.4zm5.8 0c0 1.6-1.1 2.6-2.5 2.6-1.4 0-2.4-1-2.4-2.6 0-1.7 1-2.7 2.4-2.7 1.4 0 2.5 1 2.5 2.7zm8.9 0c0-2.1-1.4-3.4-3.3-3.4-1.8 0-3.3 1.3-3.3 3.4 0 2.1 1.4 3.3 3.3 3.3 1.8 0 3.3-1.2 3.3-3.3zm-5.7 0c0-1.8 1.1-2.7 2.4-2.7 1.2 0 2.4 0.9 2.4 2.7 0 1.8-1.2 2.6-2.4 2.6-1.3 0-2.4-0.8-2.4-2.6zm7.2 3.3h0.9v-8.9h-0.9zm8.9-3.3c0-2.1-1.4-3.4-3.2-3.4-1.9 0-3.3 1.3-3.3 3.4 0 2.1 1.4 3.4 3.2 3.4 1.9 0 3.3-1.3 3.3-3.4zm-5.7 0c0-1.8 1.2-2.6 2.4-2.6 1.3 0 2.5 0.8 2.5 2.6 0 1.8-1.2 2.6-2.5 2.6-1.2 0-2.4-0.8-2.4-2.6zm8.1-0.4c0-1.6 0.9-2.1 2-2.1h0.3v-0.9c-1.2 0-1.9 0.5-2.3 1.3v-1.2h-0.8v6.6h0.8zm6.3-2.3c1.2 0 2.3 0.8 2.3 2.3h-4.6c0.1-1.5 1.1-2.3 2.3-2.3zm3 3.9h-0.8c-0.3 0.8-1 1.4-2.2 1.4-1.2 0-2.2-0.8-2.3-2.3h5.4c0-0.2 0-0.4 0-0.7 0-1.6-1.1-3-3.1-3-1.8 0-3.2 1.3-3.2 3.4 0 2 1.4 3.3 3.2 3.3 1.7 0 2.7-0.9 3-2.1zm14.5 2h0.9v-3.8c0-1.9-1.2-2.8-2.6-2.8-1.1 0-2 0.5-2.4 1.6-0.4-1.1-1.3-1.6-2.4-1.6-0.9 0-1.8 0.4-2.2 1.2v-1.1h-0.8v6.5h0.8v-3.5c0-1.6 0.8-2.4 2-2.4 1.2 0 2 0.7 2 2.2v3.7h0.8v-3.5c0-1.6 0.8-2.4 2-2.4 1.2 0 1.9 0.7 1.9 2.2zm2.3-3.3c0 2.1 1.4 3.4 3.2 3.4 1.3 0 2.2-0.7 2.6-1.6v1.5h0.8v-6.6h-0.8v1.5c-0.4-0.9-1.3-1.6-2.6-1.6-1.8 0-3.2 1.3-3.2 3.4zm5.8 0c0 1.6-1.1 2.7-2.5 2.7-1.3 0-2.4-1-2.4-2.7 0-1.7 1.1-2.6 2.4-2.6 1.4 0 2.5 1 2.5 2.6zm2.3 0c0 2.1 1.4 3.4 3.2 3.4 1.3 0 2.2-0.7 2.6-1.6v1.7c0 1.4-1 2.3-2.2 2.3-1.2 0-2.1-0.6-2.4-1.5h-0.8c0.3 1.3 1.5 2.2 3.2 2.2 1.8 0 3-1.2 3-3v-6.8h-0.8v1.5c-0.4-0.9-1.3-1.6-2.6-1.6-1.8 0-3.2 1.3-3.2 3.4zm5.8 0c0 1.6-1.1 2.7-2.5 2.7-1.3 0-2.4-1-2.4-2.7 0-1.7 1.1-2.6 2.4-2.6 1.4 0 2.5 1 2.5 2.6zm7.6 3.3h0.9v-3.9c0-1.9-1.2-2.8-2.7-2.8-1 0-1.8 0.4-2.2 1.3v-1.2h-0.9v6.6h0.9v-3.6c0-1.6 0.8-2.4 2-2.4 1.2 0 2 0.8 2 2.2zm2.3-3.2c0 2 1.4 3.3 3.2 3.3 1.3 0 2.2-0.7 2.6-1.5v1.4h0.8v-6.5h-0.8v1.4c-0.4-0.8-1.3-1.5-2.6-1.5-1.8 0-3.2 1.3-3.2 3.4zm5.8 0c0 1.6-1.1 2.6-2.5 2.6-1.3 0-2.4-1-2.4-2.6 0-1.7 1.1-2.7 2.4-2.7 1.4 0 2.5 1 2.5 2.7z"/><path class="f" d="m-204.9 341.5h-126.6c-7.2 0-13-5.8-13-13v-25.7c0-7.2 5.8-13 13-13h126.6c7.2 0 13 5.8 13 13v25.7c0 7.2-5.8 13-13 13z"/><path class="b" d="m-315.5 309.2v10.8h6.1v-2h-3.5v-8.8zm12 4.2c0.9 0 1.6 0.6 1.6 1.5h-3.2c0.1-1 0.8-1.5 1.6-1.5zm4.1 3.8h-2.8c-0.2 0.4-0.6 0.8-1.3 0.8-0.9 0-1.6-0.5-1.6-1.6h5.9c0-0.3 0-0.6 0-0.8 0-2.6-1.7-4.3-4.2-4.3-2.6 0-4.4 1.7-4.4 4.4 0 2.7 1.9 4.4 4.4 4.4 2.1 0 3.6-1.3 4-2.9zm2-1.5c0 2.7 1.7 4.4 3.8 4.4 1.2 0 2.1-0.6 2.6-1.3v1.2h2.6v-8.6h-2.6v1.3c-0.4-0.8-1.4-1.4-2.6-1.4-2.1 0-3.8 1.7-3.8 4.4zm6.4 0c0 1.4-0.9 2.1-1.9 2.1-0.9 0-1.8-0.7-1.8-2.1 0-1.4 0.9-2.1 1.8-2.1 1 0 1.9 0.8 1.9 2.1zm8.1 0.3c0-1.4 0.7-1.9 1.9-1.9h0.8v-2.7c-1.2 0-2.1 0.6-2.7 1.5v-1.5h-2.6v8.6h2.6zm10.7 4h2.6v-5c0-2.3-1.3-3.7-3.3-3.7-1.1 0-2 0.5-2.6 1.3v-1.2h-2.6v8.6h2.6v-4.7c0-1.1 0.7-1.8 1.7-1.8 1 0 1.6 0.7 1.6 1.8zm9.5 0h2.7v-6.4l2.4 6.4h2.1l2.4-6.4v6.4h2.6v-10.7h-3.1l-2.9 7.4-3.1-7.4h-3.1zm23.4-4.3c0-2.7-1.9-4.4-4.4-4.4-2.5 0-4.5 1.7-4.5 4.4 0 2.7 1.9 4.4 4.4 4.4 2.5 0 4.5-1.7 4.5-4.4zm-6.2 0c0-1.5 0.8-2.1 1.8-2.1 0.9 0 1.7 0.6 1.7 2.1 0 1.4-0.8 2.1-1.8 2.1-0.9 0-1.7-0.7-1.7-2.1zm11.1 0.3c0-1.5 0.7-1.9 2-1.9h0.7v-2.8c-1.1 0-2.1 0.6-2.7 1.5v-1.4h-2.6v8.6h2.6zm8.7-2.6c0.8 0 1.6 0.5 1.6 1.4h-3.3c0.1-0.9 0.8-1.4 1.7-1.4zm4 3.7h-2.7c-0.3 0.5-0.7 0.8-1.4 0.8-0.8 0-1.5-0.5-1.6-1.6h5.9c0-0.3 0-0.5 0-0.8 0-2.6-1.7-4.2-4.2-4.2-2.6 0-4.3 1.7-4.3 4.4 0 2.7 1.8 4.4 4.3 4.4 2.1 0 3.6-1.3 4-3z"/></g><path class="d" d="m662.7 412.7c0 6.2-148.3 11.2-331.2 11.2-182.9 0-331.2-5-331.2-11.2 0-6.2 148.3-11.2 331.2-11.2 182.9 0 331.2 5 331.2 11.2z"/><path class="i" d="m567.9 323.7c-12.7-79.4 24.4-137.6 24.4-137.6 0 0 23.1 94.8-3 143.1"/><path class="j" d="m581.8 292.2c7.4-31.9 8.1-75.7 8.1-75.7"/><path class="k" d="m571.9 342c5.6-80.2 54.9-128.5 54.9-128.5 0 0 1 97.5-35.3 138.7"/><path class="j" d="m592.6 314.4c14.4-29.3 25-71.9 25-71.9"/><path class="l" d="m564.6 350.3c-31.5-73.9-9.7-139.4-9.7-139.4 0 0 45.4 86.4 31.7 139.6"/><path class="j" d="m570.4 316.4c-0.5-32.7-10.4-75.4-10.4-75.4"/><path class="b" d="m624.8 292.8h-78.8l12.2 119.9h54.3z"/><path class="i" d="m74.2 362.1c-28.2-75.3-3.4-139.7-3.4-139.7 0 0 41.4 88.3 25.4 140.8"/><path class="j" d="m81.5 328.4c0.9-32.7-7-75.8-7-75.8"/><path class="k" d="m71.5 390.7c5.5-80.2 54.8-128.5 54.8-128.5 0 0 1 97.5-35.3 138.6"/><path class="j" d="m92.1 363.1c14.4-29.3 25-71.9 25-71.9"/><path class="l" d="m90.2 388.6c-56.7-57-60.7-125.8-60.7-125.8 0 0 74.1 63.3 81.2 117.7"/><path class="j" d="m83 354.9c-12.6-30.1-37.7-66.1-37.7-66.1"/><path class="m" d="m124.3 341.5l-12.3 71.2h-54.3l-12.3-71.2z"/><path class="h" d="m124.3 341.5l-12.3 71.2h-44.7l8.7-71.2z"/><path class="h" d="m130.6 113.4l41.8 287.7c0.9 6.4 6.8 11.6 13.2 11.6h327.5c6.5 0 10.9-5.2 10-11.6l-41.8-287.7c-0.9-6.4-6.9-11.6-13.3-11.6h-327.5c-6.4 0-10.8 5.2-9.9 11.6z"/><path class="n" d="m472 113.4l-41.8 287.7c-0.9 6.4-6.8 11.6-13.2 11.6h-327.5c-6.5 0-10.9-5.2-10-11.6l41.8-287.7c0.9-6.4 6.9-11.6 13.3-11.6h327.5c6.4 0 10.8 5.2 9.9 11.6z"/><path class="m" d="m176.7 217.7h-37.6c-3.3 0-5.6-2.7-5.1-6l3.2-22c0.5-3.3 3.5-6 6.8-6h37.6c3.3 0 5.6 2.7 5.1 6l-3.2 22c-0.5 3.3-3.5 6-6.8 6z"/><path class="m" d="m238.5 217.7h-37.6c-3.3 0-5.6-2.7-5.1-6l3.2-22c0.5-3.3 3.6-6 6.9-6h37.5c3.3 0 5.6 2.7 5.1 6l-3.2 22c-0.5 3.3-3.5 6-6.8 6z"/><path class="m" d="m300.3 217.7h-37.6c-3.3 0-5.6-2.7-5.1-6l3.2-22c0.5-3.3 3.6-6 6.9-6h37.5c3.3 0 5.6 2.7 5.1 6l-3.2 22c-0.4 3.3-3.5 6-6.8 6z"/><path class="m" d="m362.1 217.7h-37.5c-3.3 0-5.6-2.7-5.2-6l3.3-22c0.4-3.3 3.5-6 6.8-6h37.6c3.3 0 5.5 2.7 5.1 6l-3.2 22c-0.5 3.3-3.6 6-6.9 6z"/><path class="m" d="m423.9 217.7h-37.5c-3.3 0-5.6-2.7-5.1-6l3.2-22c0.5-3.3 3.5-6 6.8-6h37.6c3.3 0 5.6 2.7 5.1 6l-3.2 22c-0.5 3.3-3.6 6-6.9 6z"/><path class="m" d="m170.3 261.3h-37.5c-3.3 0-5.6-2.7-5.1-6l3.2-22.1c0.4-3.3 3.5-5.9 6.8-5.9h37.6c3.3 0 5.6 2.6 5.1 5.9l-3.2 22.1c-0.5 3.3-3.6 6-6.9 6z"/><path class="c" d="m232.2 261.3h-37.6c-3.3 0-5.6-2.7-5.1-6l3.2-22.1c0.5-3.3 3.5-5.9 6.8-5.9h37.6c3.3 0 5.6 2.6 5.1 5.9l-3.2 22.1c-0.5 3.3-3.5 6-6.8 6z"/><path class="m" d="m294 261.3h-37.6c-3.3 0-5.6-2.7-5.1-6l3.2-22.1c0.5-3.3 3.5-5.9 6.8-5.9h37.6c3.3 0 5.6 2.6 5.1 5.9l-3.2 22.1c-0.5 3.3-3.5 6-6.8 6z"/><path class="m" d="m355.8 261.3h-37.6c-3.3 0-5.6-2.7-5.1-6l3.2-22.1c0.5-3.3 3.6-5.9 6.9-5.9h37.5c3.3 0 5.6 2.6 5.1 5.9l-3.2 22.1c-0.4 3.3-3.5 6-6.8 6z"/><path class="m" d="m417.6 261.3h-37.5c-3.3 0-5.6-2.7-5.2-6l3.2-22.1c0.5-3.3 3.6-5.9 6.9-5.9h37.6c3.3 0 5.5 2.6 5.1 5.9l-3.2 22.1c-0.5 3.3-3.6 6-6.9 6z"/><path class="m" d="m164 304.9h-37.6c-3.3 0-5.5-2.7-5.1-6l3.2-22.1c0.5-3.3 3.6-6 6.9-6h37.5c3.3 0 5.6 2.7 5.2 6l-3.3 22.1c-0.4 3.3-3.5 6-6.8 6z"/><path class="m" d="m225.8 304.9h-37.5c-3.3 0-5.6-2.7-5.1-6l3.2-22.1c0.4-3.3 3.5-6 6.8-6h37.6c3.3 0 5.6 2.7 5.1 6l-3.2 22.1c-0.5 3.3-3.6 6-6.9 6z"/><path class="m" d="m287.6 304.9h-37.5c-3.3 0-5.6-2.7-5.1-6l3.2-22.1c0.5-3.3 3.5-6 6.8-6h37.6c3.3 0 5.6 2.7 5.1 6l-3.2 22.1c-0.5 3.3-3.6 6-6.9 6z"/><path class="m" d="m349.5 304.9h-37.6c-3.3 0-5.6-2.7-5.1-6l3.2-22.1c0.5-3.3 3.5-6 6.8-6h37.6c3.3 0 5.6 2.7 5.1 6l-3.2 22.1c-0.5 3.3-3.5 6-6.8 6z"/><path class="m" d="m411.3 304.9h-37.6c-3.3 0-5.6-2.7-5.1-6l3.2-22.1c0.5-3.3 3.6-6 6.9-6h37.5c3.3 0 5.6 2.7 5.1 6l-3.2 22.1c-0.4 3.3-3.5 6-6.8 6z"/><path class="k" d="m157.7 348.4h-37.6c-3.3 0-5.6-2.6-5.1-5.9l3.2-22.1c0.5-3.3 3.6-6 6.9-6h37.5c3.3 0 5.6 2.7 5.1 6l-3.2 22.1c-0.5 3.3-3.5 5.9-6.8 5.9z"/><path class="m" d="m219.5 348.4h-37.6c-3.3 0-5.5-2.6-5.1-5.9l3.2-22.1c0.5-3.3 3.6-6 6.9-6h37.5c3.3 0 5.6 2.7 5.1 6l-3.2 22.1c-0.4 3.3-3.5 5.9-6.8 5.9z"/><path class="m" d="m281.3 348.4h-37.5c-3.3 0-5.6-2.6-5.1-5.9l3.2-22.1c0.4-3.3 3.5-6 6.8-6h37.6c3.3 0 5.5 2.7 5.1 6l-3.2 22.1c-0.5 3.3-3.6 5.9-6.9 5.9z"/><path class="f" d="m343.1 348.4h-37.5c-3.3 0-5.6-2.6-5.1-5.9l3.2-22.1c0.5-3.3 3.5-6 6.8-6h37.6c3.3 0 5.6 2.7 5.1 6l-3.2 22.1c-0.5 3.3-3.6 5.9-6.9 5.9z"/><path class="m" d="m405 348.4h-37.6c-3.3 0-5.6-2.6-5.1-5.9l3.2-22.1c0.5-3.3 3.5-6 6.8-6h37.6c3.3 0 5.6 2.7 5.1 6l-3.2 22.1c-0.5 3.3-3.5 5.9-6.8 5.9z"/><path class="m" d="m151.4 392h-37.6c-3.3 0-5.6-2.7-5.1-6l3.2-22c0.5-3.3 3.5-6 6.8-6h37.6c3.3 0 5.6 2.7 5.1 6l-3.2 22c-0.5 3.3-3.5 6-6.8 6z"/><path class="m" d="m213.2 392h-37.6c-3.3 0-5.6-2.7-5.1-6l3.2-22c0.5-3.3 3.6-6 6.9-6h37.5c3.3 0 5.6 2.7 5.1 6l-3.2 22c-0.5 3.3-3.5 6-6.8 6z"/><path class="m" d="m275 392h-37.6c-3.3 0-5.6-2.7-5.1-6l3.2-22c0.5-3.3 3.6-6 6.9-6h37.5c3.3 0 5.6 2.7 5.1 6l-3.2 22c-0.4 3.3-3.5 6-6.8 6z"/><path class="m" d="m336.8 392h-37.5c-3.3 0-5.6-2.7-5.2-6l3.2-22c0.5-3.3 3.6-6 6.9-6h37.6c3.3 0 5.5 2.7 5.1 6l-3.2 22c-0.5 3.3-3.6 6-6.9 6z"/><path class="m" d="m398.6 392h-37.5c-3.3 0-5.6-2.7-5.1-6l3.2-22c0.5-3.3 3.5-6 6.8-6h37.6c3.3 0 5.6 2.7 5.1 6l-3.2 22c-0.5 3.3-3.6 6-6.9 6z"/><path class="h" d="m154.1 155.1l0.3-2.5h-10.2l-1.9 13.5h3.1l0.7-4.9h6.3l0.3-2.5h-6.2l0.5-3.6zm10.9 5.8c0.5-3.3-1.5-5.3-4.6-5.3-3.1 0-5.8 2.2-6.3 5.3-0.4 3.1 1.6 5.3 5.2 5.3 1.8 0 3.4-0.5 4.5-1.6l-1.4-1.8c-0.8 0.7-1.6 1-2.7 1-1.6 0-2.6-0.8-2.7-2.1h7.9c0-0.2 0.1-0.5 0.1-0.8zm-4.9-3.1c1.4 0 2.2 0.9 2.3 2.2h-5.2c0.5-1.3 1.6-2.2 2.9-2.2zm13.9-2.2c-1.3 0-2.4 0.4-3.3 1.2l0.7-5h-3l-2.1 14.3h2.9l0.2-1.2c0.6 0.9 1.6 1.3 3 1.3 2.9 0 5.5-2 6-5.3 0.4-3.3-1.5-5.3-4.4-5.3zm-1.8 8.2c-1.5 0-2.4-1.1-2.2-2.9 0.3-1.8 1.6-2.9 3.1-2.9 1.5 0 2.5 1.1 2.2 2.9-0.3 1.8-1.5 2.9-3.1 2.9zm11.6-6.7l0.2-1.4h-2.9l-1.5 10.4h3l0.7-4.9c0.3-2 1.5-2.9 3.2-2.9 0.2 0 0.4 0 0.7 0l0.4-2.7c-1.6 0-2.9 0.5-3.8 1.5zm13.1-1.4l-0.8 5.1c-0.3 1.9-1.4 2.8-2.8 2.8-1.3 0-2-0.7-1.7-2.5l0.8-5.4h-3l-0.9 5.9c-0.5 3.2 1.2 4.6 3.8 4.6 1.2 0 2.5-0.4 3.4-1.4l-0.2 1.3h2.9l1.5-10.4zm10-0.1c-1.7 0-3.4 0.4-4.7 1.2l0.8 2.1c0.8-0.6 2-0.9 3.1-0.9 1.6 0 2.3 0.7 2.1 2h-2.4c-3.1 0-4.6 1.3-4.9 3.1-0.2 1.8 1 3.1 3.4 3.1 1.6 0 2.7-0.5 3.4-1.4l-0.2 1.3h2.8l0.9-5.9c0.4-3.2-1.2-4.6-4.3-4.6zm-1.5 8.6c-1.1 0-1.6-0.5-1.5-1.2 0.1-0.7 0.6-1.3 2-1.3h2.1l-0.2 1.1c-0.5 1-1.4 1.4-2.4 1.4zm11.8-7.1l0.2-1.4h-2.8l-1.6 10.4h3.1l0.7-4.9c0.3-2 1.5-2.9 3.1-2.9 0.3 0 0.5 0 0.7 0l0.4-2.7c-1.6 0-2.9 0.5-3.8 1.5zm13.3-1.4l-3.9 7-1.9-7h-3.1l3 10.5-0.1 0.1c-0.5 0.9-1 1.2-1.9 1.2-0.6 0-1.2-0.2-1.6-0.6l-1.4 2.1c0.6 0.6 1.7 1 2.8 1 1.9 0 3.4-0.8 4.8-3.3l6.2-11z"/><path class="o" d="m206.3 243l6 6.9 12.9-11.3"/><path class="m" d="m196.3 101.8l-3 20.8h-7l3-20.8z"/><path class="h" d="m189 125.9c-12.2-2-19.9-13.5-16.5-26.9 2.8-11.1 13.2-20.2 24.5-21.4 14.9-1.6 25.7 9.8 23.7 24.2h-7.1c1.4-9.7-5.5-17.6-15.3-17.3-9.1 0.2-17.7 7.8-19.3 16.8-1.5 8.8 3.8 16.2 11.9 17.6 1.6 0.3 2.7 1.6 2.4 3.2v0.5c-0.3 2-2.4 3.6-4.3 3.3z"/><path class="m" d="m255.7 101.8l-3 20.8h-7l3-20.8z"/><path class="h" d="m248.4 125.9c-12.2-2-19.9-13.5-16.5-26.9 2.9-11.1 13.2-20.2 24.5-21.4 15-1.6 25.8 9.8 23.7 24.2h-7c1.4-9.7-5.5-17.6-15.4-17.3-9.1 0.2-17.7 7.8-19.2 16.8-1.6 8.8 3.7 16.2 11.9 17.6 1.6 0.3 2.6 1.6 2.4 3.2l-0.1 0.5c-0.3 2-2.3 3.6-4.3 3.3z"/><path class="m" d="m315.2 101.8l-3.1 20.8h-7l3.1-20.8z"/><path class="h" d="m307.9 125.9c-12.3-2-20-13.5-16.6-26.9 2.9-11.1 13.3-20.2 24.6-21.4 14.9-1.6 25.7 9.8 23.6 24.2h-7c1.4-9.7-5.5-17.6-15.3-17.3-9.1 0.2-17.7 7.8-19.3 16.8-1.5 8.8 3.7 16.2 11.9 17.6 1.6 0.3 2.6 1.6 2.4 3.2l-0.1 0.5c-0.3 2-2.3 3.6-4.2 3.3z"/><path class="m" d="m374.6 101.8l-3 20.8h-7l3-20.8z"/><path class="h" d="m367.3 125.9c-12.2-2-19.9-13.5-16.5-26.9 2.8-11.1 13.2-20.2 24.5-21.4 14.9-1.6 25.7 9.8 23.7 24.2h-7.1c1.4-9.7-5.5-17.6-15.3-17.3-9.1 0.2-17.7 7.8-19.3 16.8-1.5 8.8 3.8 16.2 11.9 17.6 1.6 0.3 2.7 1.6 2.4 3.2v0.5c-0.3 2-2.4 3.6-4.3 3.3z"/><path class="p" d="m464.8 205.8l1.4 190h48l-6-136 17.9 136h48.2l-28-190z"/><path class="q" d="m471.9 210.9l1.6 174.1"/><path class="q" d="m536.9 206.2l26.7 181.3"/><path class="r" d="m514.2 405h-50.9l-5.5-5.5 8.4-3.7h48z"/><path class="f" d="m514.2 405v2.8c0 2.7-2.2 4.9-4.9 4.9h-74.7c-1.7 0-2.1-2.3-0.6-3l23.8-10.2 5.5 5.5z"/><path class="r" d="m526.3 405h50.9l5.5-5.5-8.4-3.7h-48z"/><path class="f" d="m526.3 405v2.8c0 2.7 2.2 4.9 4.9 4.9h74.7c1.7 0 2.1-2.3 0.6-3l-23.8-10.2-5.5 5.5z"/><path class="q" d="m494.4 246.9l13.8 12.9 13.9 105.6"/><path class="g" d="m490.5 40.9c-13.5-0.9-10.3 16.9-9.4 25.7 0.9 8.7-23.8 33.6 3.9 44.4 27.7 10.8 59.6 4.4 60.9-10.5 1.2-14.8-10.7-20.2-10.2-34.4 0.5-14.2-4.5-24.9-13.1-26.9-8.6-2-15.3-9.7-24.6-7.2-9.2 2.5-7.5 8.9-7.5 8.9z"/><path class="s" d="m378.3 178.3l-16-1 9.7-17.9 14.1 0.8"/><path class="t" d="m381.7 156.6c0 18.1-14.6 32.7-32.7 32.7-18 0-32.6-14.6-32.6-32.7 0-18 14.6-32.6 32.6-32.6 18.1 0 32.7 14.6 32.7 32.6z"/><path class="o" d="m337.6 156.6l8.1 8.1 15-15.1"/><path class="r" d="m460 163.8l-14.7 28.1c-4.4 8.4-14.5 11.7-23 7.6l-44-21.2 2.1-15.6-1.7-8.6c0 0-4.7 0.7-8-0.6-3.4-1.2-3.9-5.2-1.7-5.6 2.3-0.4 13.5-3.6 15-2.7 1.5 0.8 7.6 14.1 7.6 14.1l33.7 13.5 9.7-23.8z"/><path class="u" d="m425.3 172.8l11.2 4.5"/><path class="f" d="m542.4 166.4c-0.3 3.3-0.4 6.7-0.2 9.9q0 0.3 0.1 0.7 0 0.6 0.1 1.4c0.2 3 0.7 6.5 1.1 9.8q0.2 1.1 0.3 2.1c1.2 8.2 2.5 15.5 2.5 15.5h-81.5c-0.2-3.8 0.6-9.5 1.4-15.5q0.2-1 0.3-2.1c0.5-3.2 1-6.6 1.2-9.8q0.1-1.1 0.2-2.1c0.2-3.7 0.2-7.1-0.4-9.9q0-0.2-0.1-0.4-0.2-0.9-0.4-1.7c-2-9.2-1.8-10.6-1.8-10.6l-5.2 10.1-25-14.8 11.6-28.4c2.8-6.7 8.2-11.9 15-14.2l28.7-9.7 7.5-2.6h19.7l8.3 2.3 20.4 5.6c7.6 2.1 13.8 7.8 16.6 15.2l12.4 32.7-26.5 12.2-4-11.6c0 0-1.4 6.3-2.1 13.8q-0.1 1.1-0.2 2.1z"/><path class="v" d="m525.8 96.4c-2 4.7-7.3 13.1-18.6 13.1-11.7 0-15.7-8.4-16.9-12.8l7.5-2.6h19.7z"/><path class="v" d="m543.8 190.3h-77.6q0.2-1 0.3-2.1h77q0.2 1.1 0.3 2.1z"/><path class="v" d="m542.4 178.4h-74.7q0.1-1.1 0.2-2.1h74.3q0 0.3 0.1 0.7 0 0.6 0.1 1.4z"/><path class="v" d="m542.6 164.3q-0.1 1.1-0.2 2.1h-74.9q0-0.2-0.1-0.4-0.2-0.9-0.4-1.7z"/><path class="w" d="m465.2 153.7c-0.2-12.9 5.2-24.6 5.2-24.6"/><path class="w" d="m544.7 150.5l-7.8-18.9"/><path class="x" d="m521.2 229.4l-34.4 6.3c-2.4 0.4-5-1.1-6-3.3l-18.4-44.6c-1-2.2 0.2-4.4 2.5-4.8l34.4-6.3c2.3-0.4 5 1.1 5.9 3.3l18.5 44.6c1 2.2-0.2 4.4-2.5 4.8z"/><path class="g" d="m490.5 178.3c0.4 1.1-0.1 2-1.2 2.2l-12.9 2.4c-1.1 0.2-2.3-0.5-2.7-1.5-0.4-1.1 0.1-2.1 1.2-2.3l4.9-0.9-0.2-0.5c-0.4-0.8 0-1.6 0.9-1.8 0.8-0.1 1.8 0.4 2.1 1.2l0.2 0.6 5-0.9c1.1-0.2 2.3 0.5 2.7 1.5z"/><path class="r" d="m548.7 162.1l10.1 23.1-32.8 12.3c0 0-13.9-7.1-16.1-6.8-2.2 0.3-4.2 3-2.4 5.5 1.8 2.4 6.6 7.1 6.6 7.1 0 0-12.3 3.9-15.5 4-3.1 0.2-11.5-2.4-12.4 0-0.9 2.5 3.5 5.6 3.5 5.6 0 0 0.2 5.3 4.7 6.8 1.2 4.2 8 7.4 14.2 6.7 6.3-0.7 17.6-5.6 17.6-5.6l43.8-11.1c13.7-3.5 21.3-18.2 16.2-31.3l-11-28.5z"/><path class="u" d="m489.7 212.9c12.8 2.1 22.3-2 22.3-2"/><path class="u" d="m494.4 219.7c11.4 3.2 19.8-1.7 19.8-1.7"/><path class="u" d="m558.8 185.2l9.6-4"/><path class="r" d="m519.4 74.2v21.8c0 0-1 8.2-12.6 8.2-11.6 0-11.6-8.6-11.6-8.6 0 0 0-0.3 0-0.8-0.1-2-0.5-7.7-0.8-12.8z"/><path class="s" d="m519.4 74.2v4.8c-4.4 6.9-14 14.1-24.2 15.1-0.1-2-0.5-7.4-0.8-12.4z"/><path class="r" d="m488.3 51.8c-1.5 5.6 0.6 6.6-0.4 11.7-1 5.2-1.7 23.2 14.6 23.2 16.4 0 18.5-15.3 18.5-15.3 0 0 3.6 1.9 6-1.8 2.3-3.8-0.1-6.9-3.2-7.2-3-0.4-3.2 1.6-3.2 1.6l-0.8 3.3c0 0-2.9-2.2-3.6-5.2-0.8-3-1.1-5.4-1.1-5.4 0 0-2.5-0.5-8.5 0.1-6.1 0.7-13.1 0.6-18.3-5z"/><path class="u" d="m524.7 65.5c-2.1-0.6-2.7 2.9-1.6 3.7"/><path class="u" d="m500 65l-1.9 6.8c-0.3 0.8 0.2 1.8 1.1 2l1.4 0.4"/><path class="g" d="m506.6 66.6c0 0.6-0.5 1-1 1-0.6 0-1.1-0.4-1.1-1 0-0.6 0.5-1.1 1.1-1.1 0.5 0 1 0.5 1 1.1z"/><path class="g" d="m492.6 66.6c0 0.6-0.5 1-1.1 1-0.5 0-1-0.4-1-1 0-0.6 0.5-1.1 1-1.1 0.6 0 1.1 0.5 1.1 1.1z"/><path class="y" d="m504.9 60.3c0 0 2.4-2 5.5 0"/><path class="y" d="m489.8 60.3c0 0 2.5-2 5.5 0"/><path class="z" d="m512.5 67.3c0 3-2.4 5.3-5.3 5.3-3 0-5.4-2.3-5.4-5.3 0-2.9 2.4-5.3 5.4-5.3 2.9 0 5.3 2.4 5.3 5.3z"/><path class="z" d="m497.9 67.3c0 3-2.4 5.3-5.3 5.3-3 0-5.3-2.3-5.3-5.3 0-2.9 2.3-5.3 5.3-5.3 2.9 0 5.3 2.4 5.3 5.3z"/><path class="z" d="m497.8 66.6c0 0 1.8-2.2 4 0"/><path class="z" d="m512 65.2h7.4"/><path class="b" d="m507 77.1c0.3 1.8-0.8 3.5-2.6 3.8-1.8 0.3-3.5-0.9-3.8-2.6"/><path class="f" d="m148.4 190.3c0 18.4-15 33.4-33.5 33.4-18.4 0-33.4-15-33.4-33.4 0-18.5 15-33.4 33.4-33.4 18.5 0 33.5 14.9 33.5 33.4z"/><path fill-rule="evenodd" class="b" d="m128.1 187.6c0 3.3-1.3 6.7-3.9 9.3l-9.2 9.2-9.3-9.2c-5.2-5.2-5.2-13.5 0-18.6 2.5-2.6 5.9-3.9 9.2-3.9 3.4 0 6.8 1.3 9.3 3.9 2.6 2.5 3.9 5.9 3.9 9.3zm-9.3 0c0-2.1-1.7-3.8-3.8-3.8-2.2 0-3.9 1.7-3.9 3.8 0 2.1 1.7 3.8 3.9 3.8 2.1 0 3.8-1.7 3.8-3.8z"/><path class="e" d="m352.4 16l-5.8 1c-2.7 0.4-5.3-1.4-5.7-4.2l-0.9-5.7c-0.5-2.7 1.4-5.3 4.1-5.8l5.7-0.9c2.8-0.5 5.4 1.4 5.8 4.1l0.9 5.8c0.5 2.7-1.4 5.3-4.1 5.7z"/><path class="h" d="m386.4 34.1c3 18.3-9.4 35.5-27.7 38.5-18.4 3-35.6-9.4-38.6-27.7-3-18.4 9.4-35.6 27.8-38.6 18.3-3 35.5 9.4 38.5 27.8z"/><path class="n" d="m380.7 35c2.5 15.2-7.8 29.5-23 31.9-15.1 2.5-29.4-7.8-31.9-23-2.5-15.1 7.8-29.4 23-31.9 15.2-2.5 29.5 7.8 31.9 23z"/><path class="m" d="m372.1 36.4c1.7 10.4-5.4 20.2-15.8 21.9-10.4 1.7-20.2-5.4-21.9-15.8-1.7-10.4 5.4-20.2 15.8-21.9 10.4-1.7 20.2 5.4 21.9 15.8z"/><path class="g" d="m355.6 39.1c0.2 1.3-0.6 2.5-2 2.7-1.3 0.3-2.5-0.6-2.7-2-0.2-1.3 0.6-2.5 2-2.7 1.3-0.2 2.5 0.7 2.7 2z"/><path class="g" d="m352.6 35.3c-0.6 0.1-1.2-0.4-1.3-1l-2.7-16.5c-0.1-0.6 0.3-1.2 0.9-1.3 0.6-0.1 1.2 0.3 1.3 0.9l2.7 16.6c0.1 0.6-0.3 1.2-0.9 1.3z"/><path class="g" d="m356.8 41.8c0.4-0.5 1.1-0.7 1.6-0.3l9 5.9c0.5 0.4 0.6 1.1 0.3 1.6-0.4 0.5-1 0.6-1.6 0.3l-9-5.9c-0.5-0.4-0.6-1.1-0.3-1.6z"/></svg>