<svg version="1.2" xmlns="http://www.w3.org/2000/svg" viewBox="0 0 2362 1701" width="2362" height="1701"><defs><linearGradient id="P" gradientUnits="userSpaceOnUse"/><linearGradient id="g1" x2="1" href="#P" gradientTransform="matrix(0,379.427,-817.924,0,1671.554,645.97)"><stop stop-color="#ededed"/><stop offset="1" stop-color="#fff"/></linearGradient><linearGradient id="g2" x2="1" href="#P" gradientTransform="matrix(0,317.333,-1459.504,0,1442.612,808.636)"><stop stop-color="#d4d4d4"/><stop offset="1" stop-color="#fff"/></linearGradient><linearGradient id="g3" x2="1" href="#P" gradientTransform="matrix(0,395.327,-395.328,0,370.869,323.863)"><stop stop-color="#40d5e6"/><stop offset="1" stop-color="#57f"/></linearGradient><linearGradient id="g4" x2="1" href="#P" gradientTransform="matrix(0,395.328,-349.105,0,419.459,326.862)"><stop stop-color="#40d5e6"/><stop offset="1" stop-color="#57f"/></linearGradient><linearGradient id="g5" x2="1" href="#P" gradientTransform="matrix(0,346.187,-346.187,0,499.99,349.431)"><stop stop-color="#d3dae0"/><stop offset="1" stop-color="#fff"/></linearGradient><linearGradient id="g6" x2="1" href="#P" gradientTransform="matrix(853.35,0,0,34.229,701.825,1163.082)"><stop stop-color="#40d5e6"/><stop offset="1" stop-color="#57f"/></linearGradient><linearGradient id="g7" x2="1" href="#P" gradientTransform="matrix(369.798,369.798,-339.728,339.728,1021.418,132.906)"><stop stop-color="#40d5e6"/><stop offset="1" stop-color="#57f"/></linearGradient><linearGradient id="g8" x2="1" href="#P" gradientTransform="matrix(207.13,207.13,-190.287,190.287,449.949,630.195)"><stop stop-color="#40d5e6"/><stop offset="1" stop-color="#57f"/></linearGradient><linearGradient id="g9" x2="1" href="#P" gradientTransform="matrix(666.795,0,0,207.27,1544.224,1370.552)"><stop stop-color="#5c5a56"/><stop offset="1" stop-color="#42413e"/></linearGradient><linearGradient id="g10" x2="1" href="#P" gradientTransform="matrix(0,-1195.299,2396.252,0,1865.744,2106.419)"><stop stop-color="#40d5e6"/><stop offset="1" stop-color="#57f"/></linearGradient><linearGradient id="g11" x2="1" href="#P" gradientTransform="matrix(0,206.906,-58.127,0,2396.41,1522.576)"><stop stop-color="#5c5a56"/><stop offset="1" stop-color="#42413e"/></linearGradient><linearGradient id="g12" x2="1" href="#P" gradientTransform="matrix(0,206.906,-58.127,0,1761.386,1522.576)"><stop stop-color="#5c5a56"/><stop offset="1" stop-color="#42413e"/></linearGradient><linearGradient id="g13" x2="1" href="#P" gradientTransform="matrix(703.943,0,0,34.238,630.084,1163.073)"><stop stop-color="#40d5e6"/><stop offset="1" stop-color="#57f"/></linearGradient></defs><style>.a{display:none;fill:#fafafa}.b{display:none;fill:url(#g1)}.c{display:none;fill:url(#g2)}.d{fill:#fff}.e{mix-blend-mode:hard-light;fill:#d6f5e1}.f{fill:#b8d6ff}.g{fill:#d6d6d6}.h{fill:url(#g3)}.i{fill:url(#g4)}.j{fill:url(#g5)}.k{fill:#c9e0ff}.l{fill:#ff6559}.m{fill:#eea987}.n{fill:#fccca2}.o{fill:#dbdff0}.p{fill:#3b3b40}.q{fill:#6f5be0}.r{fill:#d6c5be}.s{fill:#eea886}.t{fill:#fae6de}.u{fill:#a77860}.v{fill:#db9c7c}.w{fill:url(#g6)}.x{fill:url(#g7)}.y{fill:url(#g8)}.z{fill:url(#g9)}.A{fill:url(#g10)}.B{fill:url(#g11)}.C{fill:url(#g12)}.D{fill:#cfbfb8}.E{fill:#25354d}.F{fill:#2f4563}.G{fill:#eddad3}.H{fill:#323657}.I{fill:#eb4747}.J{fill:#c4c4c4}.K{fill:#e2d2ca}.L{fill:#706865}.M{fill:#ccbdb7}.N{fill:#998e89}.O{fill:url(#g13)}.P{fill:#424773}.Q{fill:#292c47}.R{fill:#3a3f47}.S{fill:#918783}.T{fill:#5e5854}.U{fill:#bfb2ac}.V{fill:#b8aba5}.W{fill:#f5f7ff}.X{fill:#918681}.Y{fill:#dfe1e8}.Z{fill:#49abf1}</style><path class="a" d="m2810.3-155v2000h-2864.3v-2000z"/><path class="b" d="m2741.6 716.2v1090.3h-2726.8v-836.4-217.4h88.2v110.7h112.3l44.5 51.8h45.1v-268.1h103.7v69.1h88.1v133.3h118.2v-167.3h93.4v70.4h48.5l42-48.9h47.9v-162.1h133.6v240.6h136.6v58h53v-87.5h201.9v96.8h77.2v-133.3h117.8v199h6.9v-268.1h103.8v69.1h88v133.3h118.2v-167.3h93.4v70.4h48.6l42-48.9h47.8v-162.1h133.6v240.6h136.7v58h53v-87.5h106.3v96.8h172.7v-133.3z"/><path class="c" d="m14.8 1421.6v-545.2h102.7v99.6h118l36 36.1h391.5l61-61h122.9v-102.3h107.6v138h198l76.3-76.3h244.9v128.6h108.8l53-53h134l37.9 37.9h165.9v-142.5h118v47h93.5v-99.7h85.8v150.7h240.6l22.5 22.5h207.9v419.6z"/><path class="d" d="m1197 388.7h-133.7v-22.2h133.7z"/><path class="e" d="m1336.1 739.2h-1177.6c-37.4 0-67.8-30.4-67.8-67.8v-352c0-37.4 30.4-67.8 67.8-67.8h1177.6c37.4 0 67.8 30.4 67.8 67.8v352c0 37.4-30.4 67.8-67.8 67.8z"/><path class="f" d="m1291.9 407.7h-160.5v-16.1h160.5z"/><path class="f" d="m1315.9 457.5h-184.5v-16.1h184.5z"/><path class="f" d="m1226.6 507.1h-95.5v-16.1h95.5z"/><path class="f" d="m1278.2 556.7h-147.1v-16.1h147.1z"/><path class="g" d="m405.1 712h-143v-17.6h143z"/><path class="g" d="m439.8 680.6h-212.4v-17.6h212.4z"/><path class="h" d="m370.9 421.1c0 20.4-16.6 36.9-37 36.9-20.4 0-36.9-16.5-36.9-36.9 0-20.4 16.5-36.9 36.9-36.9 20.4 0 37 16.5 37 36.9z"/><path class="i" d="m400.6 544.5v70.2c-20.4 9.3-43.1 14.5-67 14.5-23.9 0-46.5-5.2-66.9-14.5v-70.2c0-37 29.9-66.9 66.9-66.9 37 0 67 29.9 67 66.9z"/><path class="d" d="m908.8 388.7h-344.1v-22.2h344.1z"/><path class="d" d="m726.3 338.2h-161.6v-22.2h161.6z"/><path fill-rule="evenodd" class="j" d="m333.6 630.6c-24 0-47.1-5-68.8-14.9-59.2-26.9-97.6-86.4-97.6-151.5 0-91.8 74.7-166.4 166.4-166.4 91.8 0 166.4 74.6 166.4 166.4 0 65.1-38.3 124.6-97.6 151.5-21.7 9.9-44.8 14.9-68.8 14.9zm0-324c-86.9 0-157.6 70.7-157.6 157.6 0 61.7 36.3 118 92.5 143.5 20.5 9.4 42.4 14.1 65.1 14.1 22.7 0 44.7-4.7 65.1-14.1 56.2-25.5 92.5-81.8 92.5-143.5 0-86.9-70.7-157.6-157.6-157.6z"/><path class="k" d="m598 643.7h-8.8v-213h8.8z"/><path class="k" d="m638.3 643.7h-8.8v-213h8.8z"/><path class="k" d="m678.7 643.7h-8.8v-213h8.8z"/><path class="k" d="m719.1 643.7h-8.8v-213h8.8z"/><path class="k" d="m759.4 643.7h-8.8v-213h8.8z"/><path class="k" d="m799.8 643.7h-8.8v-213h8.8z"/><path class="k" d="m840.1 643.7h-8.8v-213h8.8z"/><path class="k" d="m880.5 643.7h-8.8v-213h8.8z"/><path class="k" d="m920.9 643.7h-8.8v-213h8.8z"/><path class="k" d="m961.2 643.7h-8.8v-213h8.8z"/><path class="k" d="m1001.6 643.7h-8.8v-213h8.8z"/><path class="k" d="m1041.9 643.7h-8.7v-213h8.7z"/><path class="l" d="m598 643.7h-8.8v-149.3h8.8z"/><path class="l" d="m638.3 643.7h-8.8v-97.7h8.8z"/><path class="l" d="m678.7 643.7h-8.8v-182.3h8.8z"/><path class="l" d="m719.1 643.7h-8.8v-53.1h8.8z"/><path class="l" d="m759.4 643.7h-8.8v-106.5h8.8z"/><path class="l" d="m799.8 643.7h-8.8v-146.4h8.8z"/><path class="l" d="m840.1 643.7h-8.8v-94.4h8.8z"/><path class="l" d="m880.5 643.7h-8.8v-160h8.8z"/><path class="l" d="m920.9 643.7h-8.8v-87.9h8.8z"/><path class="l" d="m961.2 643.7h-8.8v-140.6h8.8z"/><path class="l" d="m1001.6 643.7h-8.8v-70.3h8.8z"/><path class="l" d="m1041.9 643.7h-8.7v-140.6h8.7z"/><g style="opacity:.9"><path class="m" d="m807.9 947.3c0 0-23.2 16.6-30.1 14.5-6.8-2-18.4 1.3-24.9 0.6-6.5-0.6-23.6-8.8-30.4-7.1-2.8 0.7-18.4 11.8-24.2 12.7-5.8 0.8-17.9 1.1-17.1 6 0.9 5 11.7 7.7 11.7 7.7 0 0-5.3 1.1-6 5.7-1.3 8.9 3.4 12.1 3.4 12.1 0 0-4.7 4.5-4.3 8.4 1 8.5 5.6 11.4 5.6 11.4 0 0-2 4.4-0.1 9.9 2.4 7 9.8 8.1 9.8 8.1 0 0 1 9.5 6.2 10.7 5.2 1.3 9.8-0.5 14.1-0.6 4.3-0.2 41.5-13 63.6-32.3 22.1-19.4 47.7-30.7 47.7-30.7z"/><path class="n" d="m1284.2 311.9c0 0 34.6-22.3 65.9 17.3 31.3 39.5 20 77.6 13.5 113.1-6.5 35.2-38 115.7-24.6 151.2 13.4 35.5-3.7 54-3.7 54 0 0-107.6 27.5-95-134.2 12.5-161.7 43.9-201.4 43.9-201.4z"/><path class="o" d="m1238.1 617.3c0 0-40.9-5.6-68.4 15-27.5 20.6-46.3 59.2-54.7 71.3-8.4 12.1-106.5 120.4-111.4 122.3-4.9 2-66 35.7-107.1 62.9-41.1 27.3-105.9 60.1-105.9 60.1l35.1 43.1c0 0 173.2-62 209.2-95.6 38.5-35.8 216.5-213.5 216.5-213.5 0 0 44.7-36.1-13.3-65.6z"/><path class="p" d="m1446.3 1197.3h-333.3c2.4-11.3 4.8-22.9 7.2-34.2 11-51.5 21-98.2 21-98.2 0 0 193.1-314.5 282.6 24.7 7.3 27.4 12.9 51.5 17 73.5 2.2 12 4.1 23.3 5.5 34.2z"/><path class="q" d="m1239.6 593.8c0 0-39.7 18.7-53.4 21.5-13.8 2.7-67.3 72.1-76.6 97.5-9.4 25.3 0 63.3 19.3 108 19.2 44.6 1.1 59.5 9.9 104.1 8.8 44.6 0.4 149.2-1.2 174-1.7 24.8 202.7 56.3 281.3-22.9 0 0-42.7-80-49.3-91.1-6.6-11-1.1-71 5-86.5 6-15.4 46.4-146.6 46.4-146.6 0 0 33-100.7 3.2-123.9-25.9-20.1-96.5-27.2-109.2-31.6-12.6-4.5-49.5-6.4-75.4-2.5z"/><path class="r" d="m1226.9 682.2l-24.1-28.2 21-74.3c0 0 7 41.3 3.1 102.5z"/><path class="s" d="m1220.7 548c0 0 7.9 72.8 6.2 96.5 0 0 41.2 41.3 88.1-48.2 0 0-19.7-36.9-4.9-87.2 14.9-50.3-89.4 38.9-89.4 38.9z"/><path class="s" d="m1226.9 644.5v37.7l47.5-35.4z"/><path class="r" d="m1226.9 682.2l19.7-24.4 66.4-66.1 21.4 20.7z"/><path class="t" d="m1202.8 654l-30.3 8.4 51.3-82.7z"/><path class="t" d="m1246.6 657.8l27.8 36.4 56.6-96.8-19.7-10.1z"/><path class="u" d="m1222.3 564l1.3 14.3c0 0 32.8 6.4 75.7-45.8 0 0-30.4 37-77 31.5z"/><path class="m" d="m1230.6 565.1c-12.9-0.5-48.9-4.7-66.7-87.7-21.7-101.4 26.3-154 67.4-163.7 41-9.8 78.9 4.5 100 57.5 0 0 15.3 41.3-9.6 114.9-25 73.6-77.3 79.5-91.1 79z"/><path class="n" d="m1263.6 379.4c0 0-55.2 3.5-106.5 80.5 0 0-24-92.7 38.8-135 62.7-42.3 106.6-5.9 121.9 12.5 0 0 22 5.1 22.7 46.7 0.7 41.7 28.7 104.5-32.8 134.3 0 0 5.9-47.5 0.5-58.4-5.4-10.9-24.2-3.5-44.6-80.6z"/><path class="m" d="m1305.2 441.6c2.7-7.3 10.3-10.2 14.5-2.4 4.2 7.7-0.8 37.7-11.9 41-11.2 3.2-8.3-24-2.6-38.6z"/><path class="o" d="m1447.2 1197.3h-165.5c-0.9-11.3-1.9-22.8-2.8-34.2-10.7-133.5-19.5-266.3-16.7-334.4 6.5-156.8 68.8-231.3 68.8-231.3 0 0 4.9 3.2 48.9 10.4 46.8 7.6 49.8 91.6 49.8 91.6-6.6 114.7-78.8 171.5-15.4 357.9 11 32.4 19.9 68.6 26.9 105.8 2.2 11.3 4.2 22.8 6 34.2z"/><path class="o" d="m1158.5 1011.3c0.2 22.7-6.7 81.9-16.3 151.8-1.6 11.1-3.2 22.6-4.9 34.2h-40.9c2.1-11.5 4-23 6-34.2 14.5-83.6 26.9-154.6 28.7-166.9 4.4-31.8 9.9-111.2-11.7-182.1-24-79.2-12.4-91.8-8.7-108.9 3.7-17 53.7-74.7 61.8-84.1 8-9.5 33.3-12.5 33.3-12.5-75.7 121-48 331.8-47.3 402.7z"/><path class="v" d="m695.8 979.4c0 0 32-10.4 41.5-4.4 9.4 6-1.9 10.4-1.9 10.4 0 0 11.1-4.6 15.5 3.8 4.5 8.3-9.1 12.8-9.1 12.8 0 0 9.3-1.2 10.5 8.6 1.2 9.7-10.8 10.9-10.8 10.9 0 0 13.9 5.5 5.1 14.5-14.8 15-38.8 12.5-38.8 12.5 0 0-6.5-1.5-6.9-11 0 0-14.8-2.3-10-18.1 0 0-12.3-11.3-1.3-19.9 0 0-11.9-13.9 6.2-20.1z"/><path class="o" d="m1340.6 601.8c0 0 64.5-3.9 96.9 33.7 32.3 37.7 30.6 82.4 38.8 101.8 8.3 19.5 27.1 103 31.2 116.6 4.1 13.5 8.1 89.6 14 150.8 5.9 61.2 4.7 175.5 4.7 175.5l-61.7-11.2c0 0-2.5-109-4.1-172.1-1.5-63.2-52.9-174.8-72.4-223.7-19.4-48.8-96.7-140.7-47.4-171.4z"/><path class="w" d="m1555.2 1163.1v34.2h-853.4v-34.2z"/></g><path class="x" d="m1096.8 430.8l-44.5-44.5h-247.3v-211.5h291.8z"/><path class="y" d="m492.2 797.1l-25-25h-138.5v-118.5h163.5z"/><path class="z" d="m2211 1577.8h-666.8v-207.2h666.8z"/><path class="A" d="m2330.9 1092.8l-20.5-9.8c-27.1-12.9-59.6-1.4-72.6 25.8-16.2 33.9-16.2 33.9-16.2 33.9l-95.1 199.8h-559.3v131.7h643.8l145.7-308.7c13-27.2 1.4-59.8-25.8-72.7z"/><path class="B" d="m2179.2 1690.9v-113.1h31.8v113.1z"/><path class="C" d="m1544.2 1690.9v-113.1h31.8v113.1z"/><path class="D" d="m1647.6 1334.8c0 0-8.1-12.2-9.4-19.4-1.3-7.1-5.3-11.2-5.3-11.2 0 0-30.5-4.4-42.2-15.3-11.8-10.9-36.6-40.5-48.3-31.6-11.7 8.8 8.5 46.2 20.4 57.5 12 11.3 28.2 31.1 42.9 29.6 14.7-1.5 34.8-8.4 41.9-9.6z"/><path class="E" d="m1647.6 1332.9l-14.7-28.7c0 0 70.4-12.9 91-25.3 5.2-3.1 10.3-6.2 15.1-9.2 10.8-6.7 19.9-12.5 23-15.2 10.2-8.7 51-37.5 62-48.1 11-10.6 24-4.2 41.2-4 17.1 0.2 79.3 17.4 97.9 19.9 18.6 2.4 85.8 14.9 85.8 14.9-11.9 32.3-401.3 95.7-401.3 95.7z"/><path class="F" d="m2052.8 1236.2c0 0-37.9 5.4-47.6 6.2-10 0.7-66.5 5.3-93.7 7.9-27.2 2.6-80.6 1-91.2 5.7-10.6 4.7-71.9 25.4-92 31.9-20.1 6.5-150.4 30.3-150.4 30.3 0 0-2.2 17.7 9.3 31.3 0 0 57.5-5.2 87.8-0.7 30.3 4.4 83.3-2.3 115.4-16.9 32.1-14.6 83.1-1.3 111.6 8.7 28.4 10 137.3 18 150.9 15 13.6-3.1 40.7-16.1 60.3-37.5 19.6-21.3-60.4-81.9-60.4-81.9z"/><path class="G" d="m1587.2 1349.5c0 0-4.9-13.8-4.4-21.1 0.5-7.3-1.8-10.7-1.8-10.7 0 0-29.2-13.2-37.9-26.6-8.8-13.3-25.7-48.1-39.2-42.3-13.5 5.8-3 46.9 5.9 60.8 8.9 13.8 14.4 50.7 29 52.8 14.6 2.1 41.2-13.5 48.4-12.9z"/><path class="F" d="m2138 1211.9c0 0 47.9 108.7-26.5 135-59.3 21.1-168.6 1.7-168.6 1.7l67.3-106z"/><path class="H" d="m2014.7 801.8c18.2 4 7.4 49.8 19.6 113.8 12.2 64 50.8 74 50.8 74 0 0-17.1-28.3-15.3-58 1.5-23.2 29.6-86.5 1.8-127.8-21.4-32-59.2-3-59.2-3z"/><path class="s" d="m2042.1 935l-35.4 36.5c-0.3-6.7-2.8-14.8-5.3-21.6-1.3-3.3-2.5-6.3-3.5-8.7-1.4-3-2.3-4.9-2.3-4.9l31.6-33.5z"/><path class="I" d="m1999.9 968c0 0-1.3 17.5-10.9 33.7-9.6 16.2-25.3 43.1-23.1 60.5 2.2 17.5 9.7 23.9 16.4 30.1 6.7 6.3 25.1 51.7 27.4 69.2 2.2 17.5 3.6 53.8-0.6 80.5 0 0 124.3 14.4 136.8-7.3 0 0-15.4-69.9-22.7-87.4-7.3-17.5-22.5-122.2-29-140-6.6-17.8-22-35.1-31.4-47.4-8.4-11-23.8-31.6-23.8-31.6z"/><path class="s" d="m1984.4 805.5c-16.4 1.1-51.7 13.5-52.3 57.4 0 0 2.7 11.5 6.6 20.3 3.9 8.8-1.2 36.8 1.1 37.9 2.3 1.1 11.3 1.7 11.3 1.7 0 0 13 28.5 23.3 27 10.3-1.4 48.6-14.1 62.8-52.9 14.3-38.9 13.5-95.8-52.8-91.4z"/><path class="H" d="m1932.1 862.9c0 0 28.6 15 55.3 15.6 26.8 0.6 48.7 43.4 48.7 43.4 0 0 32.3-72.6-4.7-109.4-37-36.7-110.8 0.6-99.3 50.4z"/><path class="s" d="m1993.7 878.2c-0.5-5.1 4.3-13.4 13.5-7.4 9.1 6 0.7 31.5-6.4 29.9-7.1-1.6-6.7-17.2-7.1-22.5z"/><path class="u" d="m2023.2 920.9c-0.5 0.9-13.5 22.2-21.8 29-1.3-3.3-2.5-6.3-3.5-8.7 0 0 18.5-11.1 25.3-20.3z"/><path class="J" d="m1758.4 1277.6l173.7-32.9-2.8-15.1-173.8 32.8z"/><path class="J" d="m1658.3 1131.7l100 145.9 12.7-8.7-100-145.9z"/><path class="s" d="m1791.6 1255.6c-0.9-3.8 0-10.3 12.2-16.8 12.1-6.5 38.4-21.3 47.6-21.7 9.3-0.3 27.4 1.1 31.2 1.1 3.7 0-5.9 22-5.9 22z"/><path class="s" d="m1878.3 1219.9c0 0 50.7-20 58.9-23.9 8.3-4 46.7-16.9 50.1-18.6 3.4-1.7 19.4-97.6 20.8-121.7 1.5-24.1 2.9-75.2 30.1-73 27.3 2.3 33.8 20.2 30.4 55.4-3.4 35.2-23.6 161.2-32.1 165.5-8.5 4.2-106.2 26.1-157.8 36.4-49.3 9.8-0.4-20.1-0.4-20.1z"/><path class="G" d="m2005.4 1063.2c0 0 39.2 7.3 61.9 9.6 0 0 28.1-80.3-10.2-93.1-45.5-15.2-55.6 47-51.7 83.5z"/><path class="K" d="m878.4 1152h-182.7v10.9h182.7z"/><path class="L" d="m720.1 1684.6h16.1v-493.5h-16.1z"/><path class="M" d="m976.9 1149h-127.1v15.5h127.1z"/><path class="N" d="m937.4 1162.9h-48.1v-146.1h48.1z"/><path class="O" d="m1334 1197.3h-703.9v-34.2h703.9z"/><path class="I" d="m495 993.3c0 0-7.7 107.9 13.4 120.8 13.2 8.1 65.9 35.4 64.3 40.6-1.5 5.1-29.7 45.5-29.7 45.5 0 0-101.2-66.6-104.5-87.6-3.2-20.6 5-158.1 18.9-164.5 10.4-4.7 15.9-0.8 29 9 18.5 13.7 8.6 36.2 8.6 36.2z"/><path class="P" d="m619.5 1617.2c0 0-3.1 21.8-3.5 25.1-0.4 3.3-35-1.9-35-1.9l-2.8-26c0 0 37-0.3 41.3 2.8z"/><path class="Q" d="m616.3 1639.6c0 0 11 13.1 21.6 18.9 10.6 5.7 27.3 8 33.6 13.9 4.5 4.3 16.5 22.7-27.6 22.4-44.1-0.4-65.3 2.6-70-4.5-4.7-7.1 6.8-52.2 6.8-52.2 0 0 10.4 3.7 35.6 1.5z"/><path class="P" d="m841.3 1617.4c0 0-3.1 21.9-3.5 25.1-0.4 3.3-35-1.9-35-1.9l-2.8-26c0 0 37-0.3 41.3 2.8z"/><path class="Q" d="m838.1 1639.8c0 0 11 13.1 21.6 18.9 10.6 5.7 49.7 10.4 55.9 16.4 4.6 4.2 12.1 21.5-49.9 19.9-44-1.2-65.3 2.6-70-4.5-4.7-7.1 6.8-52.2 6.8-52.2 0 0 9.8 4 35.6 1.5z"/><path class="Q" d="m507.8 1239.8c0 0 125.9 21.3 154.3 25.8 28.5 4.5 182.6 42.8 201.9 54.5 15.3 9.3-8.1 232.7-13.5 318h-60.7l-4.4-255.7c-72.9 1.8-124.9-17.1-177.9-9-53.1 8-97.3 19.5-131-25.7 0 0-1.3-98 31.3-107.9z"/><path class="Q" d="m631.9 1638.3l-59.2-3.7-5.7-252.2c-31.4 0.8-42.1-1.2-67.5-4.3l-47.8-111c41.9 8.3 176 42.2 193.9 53 15.3 9.3-8.2 232.9-13.7 318.2z"/><path class="s" d="m565.8 768.1c0 0 46.1-12.8 63.7 23 17.6 35.8 9.7 103.7-13.6 110.1-23.3 6.4-56.7-0.9-66.3-23.2-9.7-22.3-17.4-54-15.1-74.5 2.3-20.5 19-30.5 31.3-35.4z"/><path class="s" d="m603.8 894.1c0 0-0.5 27.2 2.5 33 3 5.8-64.2 4.4-64.2 4.4 0 0 10.6-32.7 4.6-60.6-6-27.6 57.1 23.2 57.1 23.2z"/><path class="R" d="m543.1 860.6c0 0 3.5 7.3 21 6.1 17.4-1.2 40.3-22.2 47.7-24 7.4-1.9 7.8-6.1 7.8-6.1l4 6.9 7.5 1.2c0 0-5.1-21.1 6.1-28.5 11.2-7.4-5.1-67.1-61.8-52.7 0 0-43.3 8-43.9 32.1-0.6 24.2 3.1 52.2 11.6 65z"/><path class="K" d="m609.9 926.4c0 0-0.2-11.1-5.2-12.1-5.1-1.1-52.9-7.7-59.1-5.2l-2.6 14.6c0 0 11.9 7.3 66.9 2.7z"/><path class="s" d="m623.7 831.6c-1.3-9.1-11.6-19.5-17.5-5.4-6 14.2 4 34.8 10.6 33.7 6.6-1.1 8.7-15.9 6.9-28.3z"/><path class="H" d="m810.2 1057.5q0 0-0.1 0c0.4 0.2 0.4 0.2 0.1 0z"/><path class="R" d="m552.3 774.6c0 0-56.2-2.7-9.8 85.1z"/><path class="S" d="m427 1668.2l4.2 11.8 176.8-54.8-8.5-23.8z"/><path class="S" d="m614.1 1616.8h-20.1v-192.2h20.1z"/><path class="T" d="m663.3 1425.7h-118.6v-11.4h118.6z"/><path class="S" d="m782.6 1668.2l-4.2 11.8-176.8-54.8 7.7-25.3z"/><path class="S" d="m658 1678.7v13.7l-56.4-67.2 7.7-25.3z"/><path class="U" d="m799.1 1684.6c0 9.1-7.4 16.5-16.5 16.5-9.1 0-16.5-7.4-16.5-16.5 0-9.1 7.4-16.5 16.5-16.5 9.1 0 16.5 7.4 16.5 16.5z"/><path class="U" d="m659.4 1684.6c0 9.1-7.4 16.5-16.5 16.5-9.1 0-16.5-7.4-16.5-16.5 0-9.1 7.4-16.5 16.5-16.5 9.1 0 16.5 7.4 16.5 16.5z"/><path class="U" d="m443.5 1684.6c0 9.1-7.4 16.5-16.5 16.5-9.1 0-16.5-7.4-16.5-16.5 0-9.1 7.4-16.5 16.5-16.5 9.1 0 16.5 7.4 16.5 16.5z"/><path class="K" d="m725.9 1414.3h-242.2c-10.7 0-19.3-8.6-19.3-19.3v-4.2c0-10.7 8.6-19.4 19.3-19.4h242.2c10.6 0 19.3 8.7 19.3 19.4v4.2c0 10.7-8.7 19.3-19.3 19.3z"/><path class="L" d="m1244 1684.6h-16.1v-487.3h16.1z"/><path class="V" d="m1101.8 1087.2h-376.9c-10.6 0-19.3-8.7-19.3-19.3v-254.5c0-10.7 8.7-19.3 19.3-19.3h376.9c10.6 0 19.3 8.6 19.3 19.3v254.5c0 10.6-8.7 19.3-19.3 19.3z"/><path class="W" d="m1104.8 1041.2h-382.9v-231.3h382.9z"/><path class="X" d="m1087.8 1063c0 6.6-6.9 12-15.4 12-8.6 0-15.5-5.4-15.5-12 0-6.5 6.9-11.9 15.5-11.9 8.5 0 15.4 5.4 15.4 11.9z"/><path class="N" d="m999.4 1163.4v-5.2c0 0-7.4-32.4-59.2-32.4-51.9 0-50.8 37.6-50.8 37.6z"/><path class="s" d="m888.7 1130.6c0 0 11.3-0.9 15.4-3.4 4.1-2.4 28.8-19.1 34.6-16.4 5.8 2.7 44.4 14.5 43.1 20.1-1.3 5.7-4.9 5.1-7.6 4.1-2.8-1-30.8-6.8-33.3-5.9 0 0 27.6 10.1 27.7 17.4 0.1 7.3-5.8 9.1-8.4 11.9-2.6 2.8-5.7 9.7-12.8 10.2-7.1 0.5-41.7-11.5-48.9-12.1-7.1-0.5-20.3 0.5-21.2-0.7-0.9-1.2 11.4-25.2 11.4-25.2z"/><path class="I" d="m683.6 941.8c-35.9-6.3-73.7-15.4-73.7-15.4l-66.9-2.7c0 0-61.4 13.5-85.6 24.4-2.3 1.1-2.3 54.8-8.6 68.9l20 42.3c0 0 11.6 83.8 14 121.1 1.1 17.1-3.1 165.3-3.1 165.3 0 0 6 2.9 51.7 8 45.6 5 159.7-1.8 160.4-7.2 0.8-5.4-22.1-200.9-23.1-211-1.5-15.5 4.5-87.3 4.5-87.3 8.6 11.6 30.6 63.8 53.4 88.6 13.5 14.6 80 23.6 92.6 24 27.3 0.9 77.2 6.3 78.6 3.7 1.2-1.6 4.4-44.3 1.2-45.3-2.7-0.9-95.2-6.3-119-18.8-8.6-4.6-34.6-61.2-34.6-61.2 0 0-42-88.5-61.8-97.4z"/><path class="K" d="m555.3 1341.4h-119.4c-20.5 0-37.1-16.6-37.1-37.1v-194c0-20.5 16.6-37.1 37.1-37.1h119.4c20.5 0 37.1 16.6 37.1 37.1v194c0 20.5-16.6 37.1-37.1 37.1z"/><path class="K" d="m558.1 1403.7c-28.5 0-51.7-9.6-68.8-28.5-38.7-42.8-31.8-117.9-31.5-121.1 0.6-5.9 5.9-10.2 11.8-9.6 5.9 0.5 10.3 5.8 9.7 11.7-0.1 0.9-6.3 69 26 104.5 13 14.4 30.3 21.4 52.8 21.4 6 0 10.8 4.8 10.8 10.8 0 5.9-4.8 10.8-10.8 10.8z"/><path class="Y" d="m858.4 840.6h-106.6c-1.5 0-2.8-1.3-2.8-2.8v-6.7c0-1.5 1.3-2.8 2.8-2.8h106.6c1.6 0 2.8 1.3 2.8 2.8v6.7c0 1.5-1.2 2.8-2.8 2.8z"/><path class="Y" d="m858.4 866.8h-106.6c-1.5 0-2.8-1.3-2.8-2.8v-6.7c0-1.5 1.3-2.7 2.8-2.7h106.6c1.6 0 2.8 1.2 2.8 2.7v6.7c0 1.5-1.2 2.8-2.8 2.8z"/><path class="Y" d="m851.9 1022.8h-93.6c-5.1 0-9.3-4.2-9.3-9.3v-119.6c0-5.1 4.2-9.3 9.3-9.3h93.6c5.1 0 9.3 4.2 9.3 9.3v119.6c0 5.1-4.2 9.3-9.3 9.3z"/><path class="Y" d="m1068.9 1022.8h-170.3c-8.2 0-14.7-6.6-14.7-14.7v-165c0-8.2 6.5-14.8 14.7-14.8h170.3c8.1 0 14.7 6.6 14.7 14.8v165c0 8.1-6.6 14.7-14.7 14.7z"/><path fill-rule="evenodd" class="Z" d="m294.1 1082.1l-45.6-45.6c-4.6-4.5-4.6-11.8 0-16.4l80.8-80.8c4.6-4.6 11.9-4.6 16.4 0l45.7 45.6c4.5 4.5 4.5 11.9 0 16.4l-80.9 80.8c-4.5 4.6-11.9 4.6-16.4 0zm49.8-141c-3.5-3.5-9.2-3.5-12.7 0l-80.9 80.9c-3.5 3.5-3.5 9.2 0 12.7l45.6 45.6c3.5 3.5 9.2 3.5 12.7 0l80.9-80.9c3.5-3.5 3.5-9.2 0-12.7z"/><path fill-rule="evenodd" class="Z" d="m269.7 1033.9c-5.1-5-5.1-13.2 0-18.3 5-5 13.2-5 18.2 0 5.1 5.1 5.1 13.3 0 18.3-5 5-13.2 5-18.2 0zm16.4-16.4c-4-4.1-10.6-4.1-14.6 0-4 4-4 10.5 0 14.6 4 4 10.6 4 14.6 0 4-4.1 4-10.6 0-14.6z"/><path fill-rule="evenodd" class="Z" d="m297.2 1006.3c-5-5-5-13.2 0-18.3 5.1-5 13.3-5 18.3 0 5.1 5.1 5.1 13.3 0 18.3-5 5-13.2 5-18.3 0zm16.5-16.4c-4-4.1-10.6-4.1-14.6 0-4.1 4-4.1 10.6 0 14.6 4 4 10.6 4 14.6 0 4-4 4-10.6 0-14.6z"/><path fill-rule="evenodd" class="Z" d="m324.8 978.7c-5-5-5-13.2 0-18.2 5.1-5.1 13.3-5.1 18.3 0 5 5 5 13.2 0 18.2-5 5.1-13.2 5.1-18.3 0zm16.5-16.4c-4.1-4.1-10.6-4.1-14.6 0-4.1 4-4.1 10.6 0 14.6 4 4 10.5 4 14.6 0 4-4 4-10.6 0-14.6z"/><path fill-rule="evenodd" class="Z" d="m324.7 1033.7c-5.1-5-5.1-13.2 0-18.3 5-5 13.2-5 18.2 0 5.1 5.1 5.1 13.3 0 18.3-5 5.1-13.2 5.1-18.2 0zm16.4-16.4c-4-4.1-10.6-4.1-14.6 0-4.1 4-4.1 10.6 0 14.6 4 4 10.6 4 14.6 0 4-4 4-10.6 0-14.6z"/><path fill-rule="evenodd" class="Z" d="m297.1 1061.3c-5.1-5-5.1-13.2 0-18.3 5-5 13.2-5 18.2 0 5.1 5.1 5.1 13.3 0 18.3-5 5-13.2 5-18.2 0zm16.4-16.4c-4-4.1-10.6-4.1-14.6 0-4 4-4 10.5 0 14.6 4 4 10.6 4 14.6 0 4-4.1 4-10.6 0-14.6z"/><path fill-rule="evenodd" class="Z" d="m352.2 1006.1c-5-5-5-13.2 0-18.2 5.1-5.1 13.3-5.1 18.3 0 5.1 5 5.1 13.2 0 18.2-5 5.1-13.2 5.1-18.3 0zm16.5-16.4c-4-4-10.6-4-14.6 0-4.1 4-4.1 10.6 0 14.6 4 4 10.6 4 14.6 0 4-4 4-10.6 0-14.6z"/><path fill-rule="evenodd" class="Z" d="m319.5 139.6h-72.7c-8.2 0-14.8-6.6-14.8-14.7v-105.1h102.2v105.1c0 8.1-6.6 14.7-14.7 14.7zm-85-117.4v102.7c0 6.7 5.5 12.2 12.3 12.2h72.7c6.8 0 12.3-5.5 12.3-12.2v-102.7z"/><path fill-rule="evenodd" class="Z" d="m341.4 22.2h-116.5v-21.3h116.5zm-114-2.5h111.5v-16.4h-111.5z"/><path fill-rule="evenodd" class="Z" d="m334.2 121.5h-102.2v-78.5h102.2zm-99.7-2.5h97.3v-73.5h-97.3z"/><path fill-rule="evenodd" class="Z" d="m54.1 893h-15.1c-21.3 0-38.6-17.3-38.6-38.6v-65.7c0-21.3 17.3-38.6 38.6-38.6h15.1c21.3 0 38.6 17.3 38.6 38.6v65.7c0 21.3-17.3 38.6-38.6 38.6zm-15.1-141c-20.2 0-36.7 16.5-36.7 36.7v65.7c0 20.2 16.5 36.7 36.7 36.7h15.1c20.2 0 36.6-16.5 36.6-36.7v-65.7c0-20.2-16.4-36.7-36.6-36.7z"/><path fill-rule="evenodd" class="Z" d="m65.3 752h-37.5v-26.1h37.5zm-35.6-2h33.7v-22.3h-33.7z"/><path fill-rule="evenodd" class="Z" d="m92.7 855.4h-92.3v-67.7h92.3zm-90.4-2h88.4v-63.8h-88.4z"/><path fill-rule="evenodd" class="Z" d="m685.7 186.2c-0.6 0-1.2-0.2-1.7-0.6l-23.2-17.1-6.3 6-80.8-86.3-2.2 2.1-6.9-7.4 10.4-9.7-22.8-24.3-5.7 5.3-6.9-7.3 19.4-18.2 6.9 7.3-5.7 5.4 22.8 24.3 10.4-9.8 6.9 7.4-2.3 2.1 80.8 86.3-6.3 5.9 15.5 24.2c0.8 1.2 0.6 2.6-0.4 3.6-0.6 0.5-1.3 0.8-1.9 0.8zm-25.1-22.3l22.4 16.6-15.1-23.5 6-5.5-80.9-86.3 2.3-2.1-2.1-2.2-10.4 9.8-27.6-29.5 5.7-5.3-2-2.2-14.3 13.3 2.1 2.2 5.7-5.3 27.6 29.5-10.4 9.7 2 2.2 2.2-2.1 80.8 86.3z"/></svg>