<svg xmlns="http://www.w3.org/2000/svg" width="60" height="60" viewBox="0 0 60 60" fill="none">
  <rect width="60" height="60" rx="20" fill="#1A9FB2"/>
  <path d="M27.0932 39C27.7983 39.6224 28.7246 40 29.739 40C30.7535 40 31.6797 39.6224 32.3849 39M35.739 26C35.739 24.4087 35.1069 22.8826 33.9817 21.7574C32.8565 20.6321 31.3303 20 29.739 20C28.1477 20 26.6216 20.6321 25.4964 21.7574C24.3712 22.8826 23.739 24.4087 23.739 26C23.739 29.0902 22.9595 31.206 22.0887 32.6054C21.3542 33.7859 20.9869 34.3761 21.0004 34.5408C21.0153 34.7231 21.0539 34.7926 21.2008 34.9016C21.3335 35 21.9316 35 23.1279 35H36.3502C37.5464 35 38.1446 35 38.2773 34.9016C38.4242 34.7926 38.4628 34.7231 38.4777 34.5408C38.4912 34.3761 38.1239 33.7859 37.3894 32.6054C36.5186 31.206 35.739 29.0902 35.739 26Z" stroke="white" stroke-width="2" stroke-linecap="round" stroke-linejoin="round"/>
  <circle cx="36" cy="24" r="5" fill="#E30000"/>
</svg>