<svg width="201" height="153" viewBox="0 0 201 153" fill="none" xmlns="http://www.w3.org/2000/svg">
<g clip-path="url(#clip0_821_1536)">
<path d="M149.325 28.8257C149.837 28.2565 150.309 27.6525 150.738 27.0182L141.763 24.9191L151.573 25.6501C152.652 23.6642 153.315 21.479 153.52 19.2283C153.725 16.9775 153.469 14.7085 152.768 12.5601L139.141 18.5096L151.884 10.3953C150.878 8.35259 149.462 6.53895 147.725 5.06736C145.988 3.59577 143.966 2.49775 141.786 1.8417C139.605 1.18566 137.314 0.985638 135.053 1.25411C132.792 1.52258 130.61 2.25379 128.645 3.40218C126.679 4.55058 124.97 6.09156 123.626 7.92912C122.281 9.76668 121.329 11.8615 120.829 14.083C120.33 16.3045 120.293 18.6051 120.721 20.8416C121.149 23.078 122.032 25.2024 123.317 27.0823C122.519 27.9681 121.819 28.9375 121.228 29.9734L132.599 36.8845L120.32 31.826C119.263 34.3745 118.858 37.1464 119.142 39.8908C119.426 42.6352 120.39 45.2655 121.946 47.5436C120.038 49.6619 118.708 52.2364 118.084 55.0186C117.461 57.8009 117.565 60.6969 118.387 63.4272C119.208 66.1574 120.72 68.6297 122.776 70.6054C124.831 72.581 127.361 73.9933 130.122 74.706C129.862 75.3083 129.707 75.951 129.666 76.6057C129.591 77.574 129.776 78.5446 130.201 79.4176C129.672 80.2303 129.36 81.1652 129.295 82.1329C129.23 83.1006 129.415 84.0687 129.831 84.9448C129.302 85.7575 128.99 86.6923 128.925 87.66C128.86 88.6277 129.044 89.5959 129.461 90.4719C128.931 91.2846 128.619 92.2195 128.554 93.1872C128.49 94.1549 128.674 95.123 129.09 95.9991C128.552 96.8075 128.239 97.7448 128.184 98.7143C128.017 101.212 129.427 103.34 131.335 103.468C133.243 103.596 134.925 101.675 135.092 99.1774C135.166 98.2091 134.982 97.2385 134.556 96.3655C135.086 95.5528 135.398 94.6179 135.462 93.6502C135.527 92.6825 135.343 91.7144 134.927 90.8383C135.456 90.0257 135.768 89.0908 135.833 88.1231C135.898 87.1554 135.713 86.1872 135.297 85.3112C135.826 84.4985 136.138 83.5636 136.203 82.5959C136.268 81.6282 136.084 80.6601 135.667 79.784C136.205 78.9756 136.518 78.0383 136.574 77.0688C136.621 76.4049 136.551 75.7379 136.368 75.098C139.184 74.7374 141.86 73.66 144.14 71.9688C146.421 70.2776 148.229 68.0292 149.391 65.439C150.554 62.8488 151.032 60.0034 150.781 57.1753C150.529 54.3472 149.556 51.6311 147.954 49.287C150.443 46.524 151.931 43.0044 152.18 39.2937C152.429 35.5829 151.423 31.8962 149.325 28.8257Z" fill="#F2F2F2"/>
<path d="M167.44 101.956C167.44 104.402 150.2 112.78 129.661 112.78C109.122 112.78 93.0625 104.402 93.0625 101.956C93.0625 99.5111 109.122 103.924 129.661 103.924C150.2 103.924 167.44 99.5111 167.44 101.956Z" fill="#3F3D56"/>
<path opacity="0.1" d="M167.44 101.956C167.44 104.402 150.2 112.78 129.661 112.78C109.122 112.78 93.0625 104.402 93.0625 101.956C93.0625 99.5111 109.122 103.924 129.661 103.924C150.2 103.924 167.44 99.5111 167.44 101.956Z" fill="black"/>
<path d="M130.251 106.384C150.79 106.384 167.44 104.402 167.44 101.956C167.44 99.511 150.79 97.5286 130.251 97.5286C109.712 97.5286 93.0625 99.511 93.0625 101.956C93.0625 104.402 109.712 106.384 130.251 106.384Z" fill="#3F3D56"/>
<path opacity="0.1" d="M131.13 106.134C138.096 106.134 143.743 104.52 143.743 102.53C143.743 100.539 138.096 98.9255 131.13 98.9255C124.164 98.9255 118.518 100.539 118.518 102.53C118.518 104.52 124.164 106.134 131.13 106.134Z" fill="black"/>
<path d="M133.897 78.5953C134.38 77.7527 134.63 76.7966 134.62 75.8256C134.62 73.3224 133.07 71.2932 131.158 71.2932C129.246 71.2932 127.697 73.3224 127.697 75.8256C127.687 76.7966 127.936 77.7527 128.419 78.5953C127.945 79.4416 127.697 80.3952 127.697 81.3651C127.697 82.335 127.945 83.2886 128.419 84.1349C127.945 84.9811 127.697 85.9348 127.697 86.9047C127.697 87.8745 127.945 88.8282 128.419 89.6744C127.945 90.5207 127.697 91.4743 127.697 92.4442C127.697 93.4141 127.945 94.3677 128.419 95.214C127.936 96.0566 127.687 97.0127 127.697 97.9837C127.697 100.487 129.246 102.516 131.158 102.516C133.07 102.516 134.62 100.487 134.62 97.9837C134.63 97.0127 134.38 96.0566 133.897 95.214C134.371 94.3677 134.62 93.4141 134.62 92.4442C134.62 91.4743 134.371 90.5207 133.897 89.6744C134.371 88.8282 134.62 87.8745 134.62 86.9047C134.62 85.9348 134.371 84.9811 133.897 84.1349C134.371 83.2886 134.62 82.335 134.62 81.3651C134.62 80.3952 134.371 79.4416 133.897 78.5953Z" fill="#3F3D56"/>
<path d="M131.159 74.8184C133.071 74.8184 134.621 72.7892 134.621 70.286C134.621 67.7829 133.071 65.7537 131.159 65.7537C129.247 65.7537 127.697 67.7829 127.697 70.286C127.697 72.7892 129.247 74.8184 131.159 74.8184Z" fill="#3F3D56"/>
<path d="M131.159 69.2788C133.071 69.2788 134.621 67.2496 134.621 64.7465C134.621 62.2433 133.071 60.2141 131.159 60.2141C129.247 60.2141 127.697 62.2433 127.697 64.7465C127.697 67.2496 129.247 69.2788 131.159 69.2788Z" fill="#3F3D56"/>
<path d="M144.118 26.8375C144.591 26.2354 145.022 25.6012 145.407 24.9396L136.311 23.4455L146.149 23.5187C147.092 21.4651 147.607 19.2405 147.662 16.9811C147.716 14.7216 147.309 12.4748 146.465 10.3782L133.267 17.2257L145.439 8.27725C144.299 6.30642 142.765 4.59155 140.933 3.23946C139.101 1.88738 137.01 0.927046 134.791 0.418291C132.572 -0.0904627 130.272 -0.13674 128.034 0.282343C125.796 0.701426 123.668 1.57689 121.784 2.8542C119.899 4.13151 118.297 5.7833 117.079 7.70667C115.86 9.63004 115.05 11.7838 114.7 14.0337C114.35 16.2837 114.467 18.5817 115.044 20.7845C115.62 22.9873 116.644 25.0478 118.052 26.8375C117.314 27.7748 116.68 28.7888 116.16 29.8619L127.968 35.997L115.378 31.7711C114.494 34.3846 114.275 37.1774 114.742 39.8966C115.209 42.6159 116.346 45.1758 118.052 47.3447C116.128 49.7909 114.931 52.7292 114.598 55.8236C114.265 58.918 114.81 62.0437 116.169 64.8432C117.529 67.6427 119.649 70.003 122.286 71.6544C124.924 73.3058 127.973 74.1816 131.085 74.1816C134.196 74.1816 137.246 73.3058 139.883 71.6544C142.521 70.003 144.641 67.6427 146 64.8432C147.36 62.0437 147.904 58.918 147.571 55.8236C147.238 52.7292 146.042 49.7909 144.118 47.3447C146.417 44.4214 147.666 40.8102 147.666 37.0911C147.666 33.372 146.417 29.7609 144.118 26.8375Z" fill="#0082C0"/>
<path opacity="0.1" d="M114.503 37.0913C114.497 40.8113 115.748 44.4244 118.052 47.3449C116.128 49.7911 114.931 52.7294 114.598 55.8238C114.265 58.9182 114.81 62.0438 116.169 64.8433C117.529 67.6428 119.649 70.0032 122.286 71.6546C124.924 73.306 127.973 74.1818 131.085 74.1818C134.197 74.1818 137.246 73.306 139.883 71.6546C142.521 70.0032 144.641 67.6428 146 64.8433C147.36 62.0438 147.904 58.9182 147.571 55.8238C147.238 52.7294 146.042 49.7911 144.118 47.3449C146.34 44.5231 114.503 35.2299 114.503 37.0913Z" fill="black"/>
<path d="M190.206 53.3998L193.941 50.0689C186.527 48.6893 179.086 55.2129 177.144 64.7099C177.079 64.7225 177.015 64.7385 176.952 64.7576L172.741 50.9429C172.431 52.586 172.293 54.2569 172.33 55.9286L169.046 49.5498C167.718 56.6853 170.879 63.3155 176.184 64.9046C175.741 64.9052 175.299 64.8734 174.86 64.8094C174.84 64.8065 174.826 64.8044 174.826 64.8044C174.792 65.1566 174.802 65.5115 174.856 65.8611C174.879 66.057 174.963 66.2407 175.095 66.3867C175.258 66.5321 175.714 66.7327 176.313 66.9399C176.359 66.9559 176.406 66.9718 176.453 66.9878C176.835 67.1157 177.265 67.2447 177.709 67.3634C178.265 67.5118 178.841 67.644 179.37 67.7379C179.428 67.7481 179.48 67.7546 179.53 67.7587C179.546 67.76 179.56 67.7598 179.575 67.7604C179.607 67.7619 179.639 67.7628 179.668 67.7616C179.683 67.761 179.698 67.7593 179.713 67.7579C179.737 67.7557 179.761 67.7523 179.785 67.7477C179.798 67.745 179.811 67.7418 179.823 67.7383C179.844 67.7327 179.864 67.7257 179.883 67.7174C179.893 67.7129 179.903 67.7086 179.913 67.7036C179.931 67.6939 179.948 67.6827 179.964 67.67C179.97 67.6649 179.977 67.6604 179.983 67.655C180.002 67.6382 180.018 67.6195 180.032 67.599C180.034 67.597 180.035 67.5954 180.037 67.5934C180.053 67.5692 180.065 67.5432 180.075 67.5159C180.076 67.5141 180.076 67.512 180.077 67.5102C180.085 67.4838 180.092 67.4568 180.096 67.4293C180.097 67.4274 180.097 67.4258 180.098 67.4239L180.097 67.4249C180.193 66.788 179.301 65.4404 179.29 65.059C179.279 64.6941 178.384 64.596 177.653 64.6454L191.395 53.5502C191.002 53.4773 190.605 53.4271 190.206 53.3998Z" fill="#F2F2F2"/>
<path d="M201 66.6993C201 68.3574 189.31 74.0382 175.384 74.0382C161.458 74.0382 150.568 68.3574 150.568 66.6993C150.568 65.0412 161.458 68.0336 175.384 68.0336C189.31 68.0336 201 65.0412 201 66.6993Z" fill="#3F3D56"/>
<path opacity="0.1" d="M201 66.6993C201 68.3574 189.31 74.0382 175.384 74.0382C161.458 74.0382 150.568 68.3574 150.568 66.6993C150.568 65.0412 161.458 68.0336 175.384 68.0336C189.31 68.0336 201 65.0412 201 66.6993Z" fill="black"/>
<path d="M175.784 69.7016C189.71 69.7016 201 68.3574 201 66.6993C201 65.0412 189.71 63.697 175.784 63.697C161.858 63.697 150.568 65.0412 150.568 66.6993C150.568 68.3574 161.858 69.7016 175.784 69.7016Z" fill="#3F3D56"/>
<path opacity="0.1" d="M175.775 68.4908C178.76 68.4908 181.18 67.684 181.18 66.6888C181.18 65.6935 178.76 64.8867 175.775 64.8867C172.789 64.8867 170.369 65.6935 170.369 66.6888C170.369 67.684 172.789 68.4908 175.775 68.4908Z" fill="black"/>
<path d="M164.535 51.7527C164.535 59.4038 169.334 65.595 175.265 65.595L164.535 51.7527Z" fill="#3F3D56"/>
<path d="M175.266 65.595C175.266 57.8579 180.621 51.5972 187.24 51.5972L175.266 65.595Z" fill="#6C63FF"/>
<path d="M168.424 52.4463C168.424 59.714 171.484 65.595 175.266 65.595L168.424 52.4463Z" fill="#6C63FF"/>
<path d="M175.266 65.5951C175.266 55.7088 181.456 47.709 189.106 47.709L175.266 65.5951Z" fill="#3F3D56"/>
<path d="M173.009 65.6925C173.009 65.6925 174.531 65.6456 174.989 65.319C175.448 64.9924 177.33 64.6024 177.444 65.1262C177.557 65.65 179.73 67.7314 178.012 67.7453C176.294 67.7592 174.021 67.4777 173.563 67.1988C173.105 66.9199 173.009 65.6925 173.009 65.6925Z" fill="#A8A8A8"/>
<path opacity="0.2" d="M178.043 67.5631C176.325 67.577 174.051 67.2955 173.594 67.0166C173.245 66.8042 173.106 66.0422 173.06 65.6907C173.027 65.6921 173.009 65.6927 173.009 65.6927C173.009 65.6927 173.105 66.9201 173.563 67.199C174.021 67.4778 176.294 67.7593 178.012 67.7454C178.508 67.7414 178.68 67.565 178.67 67.3036C178.601 67.4615 178.412 67.5601 178.043 67.5631Z" fill="black"/>
<path d="M41.1893 45.6818L43.1194 48.7395C42.4732 49.6041 42.0145 50.5436 42.3087 51.165C43.0337 52.6965 44.6994 54.6764 45.5878 55.7323C46.4762 56.7882 46.6001 59.6147 52.6273 59.2767C58.6545 58.9386 61.0927 56.2103 61.0927 56.2103C61.0927 56.2103 61.6268 61.1597 64.1892 62.9309C63.972 63.2308 63.6806 63.4692 63.3435 63.6225C60.636 64.8866 57.6809 74.9846 55.6328 80.5317C53.3982 86.5831 56.794 85.5288 56.794 85.5288C57.9314 85.5475 58.9767 85.6078 59.9358 85.6988C61.0515 88.6536 62.8212 94.9714 60.7458 101.478C59.2944 106.029 59.5996 110.826 60.2485 114.438L58.8934 115.888C57.383 116.37 56.9348 117.311 56.9348 117.311L53.4577 122.153L54.0338 122.57L56.118 119.689C56.118 119.689 56.5727 120.095 57.1971 121.373C57.8215 122.651 56.0456 127.64 56.0142 128.005C55.9828 128.37 57.5962 130.957 59.8526 131.764C60.0067 131.822 60.1714 131.847 60.3359 131.837L60.1294 134.236L61.3549 134.219L61.7315 129.844C61.7315 129.844 62.6771 135.924 62.8678 136.553C63.0585 137.181 65.0236 137.106 67.0788 137.405C69.134 137.705 71.1763 135.31 69.0833 134.027C66.9902 132.745 66.7279 128.683 66.7279 128.683C67.7185 125.707 65.4807 121.842 65.4807 121.842L65.2248 119.126C65.1759 119.236 65.1031 119.334 65.0117 119.412C64.9202 119.491 64.8124 119.547 64.6962 119.579L65.0021 116.025C67.3377 113.339 70.3906 109.752 71.9714 107.587C74.7468 103.786 74.5979 102.671 74.5979 102.671L77.4431 90.0523C78.3879 90.124 79.3375 90.1064 80.2791 89.9995C82.2047 89.7091 81.4862 83.3828 80.3727 78.282C80.6648 77.0737 81.127 75.4105 81.8541 73.124C82.2035 72.0232 82.4337 70.888 82.5408 69.738C82.9807 65.0823 81.3727 61.1893 80.6737 59.7518L80.9156 59.1415C80.9156 59.1415 83.1393 56.7129 81.3989 52.603C81.4986 52.1684 81.5674 51.7274 81.605 51.2831C81.7611 49.3195 81.3268 47.3539 80.3577 45.639C80.3461 45.619 80.3345 45.5987 80.3222 45.5809L80.3097 45.5611L80.3063 45.5608C80.2903 45.5378 80.2729 45.5159 80.2542 45.4951C79.5473 44.7752 75.9419 43.4121 75.2077 43.1393C75.1673 43.1142 75.1222 43.0975 75.0751 43.0903C74.8049 43.0671 75.089 41.8803 75.3945 40.8311C75.7744 40.5359 76.1111 40.189 76.3946 39.8003C77.9072 39.1834 79.2407 38.1964 80.2727 36.9298C81.3046 35.6633 82.0019 34.1578 82.3006 32.5516C82.5994 30.9454 82.4899 29.2898 81.9823 27.7369C81.4747 26.184 80.5853 24.7834 79.3956 23.6638C79.8152 23.0778 80.1065 22.4098 80.2504 21.7035C80.3944 20.9972 80.3877 20.2685 80.231 19.565C80.0742 18.8615 79.7708 18.1989 79.3406 17.6206C78.9104 17.0423 78.3631 16.5612 77.7344 16.2089C78.7193 17.0253 79.3633 18.1808 79.5397 19.448C79.7161 20.7153 79.4121 22.0027 78.6876 23.0571C78.5782 22.9722 78.4671 22.8894 78.3543 22.8088C78.6255 22.0695 78.7226 21.2776 78.6381 20.4946C78.5536 19.7117 78.2898 18.9587 77.8671 18.2943C77.4444 17.6299 76.8743 17.0719 76.201 16.6636C75.5276 16.2553 74.7693 16.0078 73.9848 15.9403C73.2003 15.8727 72.4108 15.987 71.6776 16.2741C70.9444 16.5613 70.2873 17.0136 69.7573 17.596C69.2273 18.1784 68.8387 18.8752 68.6216 19.6321C68.4046 20.3891 68.3649 21.186 68.5058 21.9608C66.998 22.6803 65.7002 23.7751 64.7368 25.1402C63.7735 26.5053 63.1769 28.095 63.0041 29.757C62.8314 31.4189 63.0884 33.0974 63.7504 34.6315C64.4125 36.1656 65.4574 37.5039 66.785 38.5181C65.8092 38.9731 64.7393 39.1897 63.6633 39.1501C62.5874 39.1106 61.5363 38.816 60.5965 38.2906C61.5803 39.1047 62.7733 39.6254 64.0391 39.793C65.305 39.9607 66.5924 39.7686 67.7542 39.2387C68.1889 40.0347 68.8264 40.7015 69.6019 41.1717C69.5197 41.4048 69.4094 41.627 69.2734 41.8334L68.9618 41.5845L67.6108 43.0598L64.1248 43.739C64.1248 43.739 61.8958 44.0368 59.357 46.5116C56.8182 48.9864 52.5509 50.2105 52.5509 50.2105L49.2009 49.3099C49.2009 49.3099 45.348 47.1417 45.3899 46.6556C45.3965 46.5782 45.304 46.6017 45.1475 46.7008L43.263 42.9221C43.263 42.9221 39.732 34.1706 37.4677 36.3017C35.2033 38.4329 41.1893 45.6818 41.1893 45.6818ZM66.064 103.689L66.151 102.678C67.2934 101.065 67.9344 97.0847 68.292 93.3958L67.7724 102.328C67.1248 102.674 66.5458 103.135 66.064 103.689ZM61.4016 122.586L61.3831 123.938C61.0139 124.599 60.7366 125.307 60.5589 126.043C60.4523 125.398 60.8977 123.946 61.4016 122.586Z" fill="#F2F2F2"/>
<path d="M123.357 135.049C123.357 139.104 94.7639 153 60.6997 153C26.6355 153 0 139.104 0 135.049C0 130.993 26.6355 138.312 60.6997 138.312C94.7639 138.312 123.357 130.993 123.357 135.049Z" fill="#3F3D56"/>
<path opacity="0.1" d="M123.357 135.049C123.357 139.104 94.7639 153 60.6997 153C26.6355 153 0 139.104 0 135.049C0 130.993 26.6355 138.312 60.6997 138.312C94.7639 138.312 123.357 130.993 123.357 135.049Z" fill="black"/>
<path d="M61.6787 142.392C95.7429 142.392 123.357 139.104 123.357 135.049C123.357 130.993 95.7429 127.705 61.6787 127.705C27.6145 127.705 0 130.993 0 135.049C0 139.104 27.6145 142.392 61.6787 142.392Z" fill="#3F3D56"/>
<path opacity="0.1" d="M62.0619 138.17C73.3398 138.17 82.4822 136.198 82.4822 133.765C82.4822 131.332 73.3398 129.36 62.0619 129.36C50.7841 129.36 41.6416 131.332 41.6416 133.765C41.6416 136.198 50.7841 138.17 62.0619 138.17Z" fill="black"/>
<path d="M59.9832 38.0665C60.8372 37.4173 61.5254 36.5751 61.9915 35.6088C62.4576 34.6425 62.6884 33.5795 62.6649 32.5069C62.6414 31.4343 62.3644 30.3825 61.8564 29.4375C61.3485 28.4925 60.624 27.6813 59.7424 27.0701C60.6029 27.4591 61.3728 28.0231 62.0032 28.7263C62.6335 29.4295 63.1104 30.2564 63.4035 31.1542C63.6965 32.052 63.7992 33.001 63.7051 33.9407C63.6109 34.8804 63.322 35.7902 62.8567 36.612C62.3915 37.4338 61.76 38.1497 61.0027 38.7138C60.2454 39.278 59.3789 39.6781 58.4584 39.8886C57.5378 40.0991 56.5835 40.1155 55.6564 39.9366C54.7292 39.7577 53.8494 39.3875 53.0732 38.8496C54.1887 39.3539 55.4197 39.5473 56.636 39.4094C57.8523 39.2716 59.0088 38.8076 59.9832 38.0665Z" fill="#2F2E41"/>
<path d="M72.2393 44.4023H73.337C74.1481 45.5587 74.699 46.8772 74.9517 48.267C75.2043 49.6568 75.1527 51.0848 74.8005 52.4527C73.5809 57.0878 74.5566 57.9417 74.5566 57.9417C74.5566 57.9417 78.9471 64.1624 77.2396 71.7249C75.5322 79.2874 76.0201 80.1413 76.0201 80.1413L72.9711 74.0425L71.2637 57.9417L72.2393 44.4023Z" fill="#6C63FF"/>
<path opacity="0.1" d="M72.2393 44.4084H73.337C74.1481 45.5648 74.699 46.8833 74.9517 48.2731C75.2043 49.6629 75.1527 51.0909 74.8005 52.4588C73.5809 57.0939 74.5566 57.9478 74.5566 57.9478C74.5566 57.9478 78.9471 64.1685 77.2396 71.731C75.5322 79.2935 76.0201 80.1474 76.0201 80.1474L72.9711 74.0486L71.2637 57.9478L72.2393 44.4084Z" fill="black"/>
<path d="M64.495 40.072C69.8834 40.072 74.2517 35.7032 74.2517 30.314C74.2517 24.9247 69.8834 20.5559 64.495 20.5559C59.1065 20.5559 54.7383 24.9247 54.7383 30.314C54.7383 35.7032 59.1065 40.072 64.495 40.072Z" fill="#2F2E41"/>
<path d="M68.3982 38.4865C68.3982 38.4865 67.4225 42.3897 67.9103 42.3897C68.3982 42.3897 70.1056 44.4633 70.1056 44.4633L71.2032 48.4885L70.3495 51.4159L67.4225 50.806L63.7637 46.7808L62.6661 45.683L61.6904 42.1457C61.6904 42.1457 62.91 40.682 62.0563 39.4623C61.2026 38.2425 68.3982 38.4865 68.3982 38.4865Z" fill="#FBBEBE"/>
<path opacity="0.1" d="M68.3982 38.4865C68.3982 38.4865 67.4225 42.3897 67.9103 42.3897C68.3982 42.3897 70.1056 44.4633 70.1056 44.4633L71.2032 48.4885L70.3495 51.4159L67.4225 50.806L63.7637 46.7808L62.6661 45.683L61.6904 42.1457C61.6904 42.1457 62.91 40.682 62.0563 39.4623C61.2026 38.2425 68.3982 38.4865 68.3982 38.4865Z" fill="black"/>
<path d="M38.8841 49.3423L36.201 44.9512C36.201 44.9512 33.3047 38.5421 31.2314 40.8596C29.1581 43.1771 34.3716 47.8786 34.3716 47.8786L37.0547 51.4159L38.8841 49.3423Z" fill="#FBBEBE"/>
<path d="M74.4959 87.5208L72.5446 101.792C72.5446 101.792 72.7885 102.89 70.3493 106.915C67.9102 110.94 61.3244 119.722 61.3244 119.722L59.373 116.063C59.373 116.063 61.6903 104.475 65.7149 102.036L65.2271 84.4714L74.4959 87.5208Z" fill="#FBBEBE"/>
<path opacity="0.1" d="M74.4959 87.5208L72.5446 101.792C72.5446 101.792 72.7885 102.89 70.3493 106.915C67.9102 110.94 61.3244 119.722 61.3244 119.722L59.373 116.063C59.373 116.063 61.6903 104.475 65.7149 102.036L65.2271 84.4714L74.4959 87.5208Z" fill="black"/>
<path d="M59.3732 114.599L62.0563 119.722C62.0563 119.722 59.8611 125.943 60.7148 126.553C61.5685 127.163 62.6661 132.652 60.3489 132.042C58.0317 131.432 56.2023 128.993 56.2023 128.627C56.2023 128.261 57.5438 123.138 56.8121 121.918C56.0803 120.698 55.5925 120.332 55.5925 120.332L53.7631 123.382L53.1533 123.016L56.2023 117.893C56.2023 117.893 56.5682 116.917 58.0317 116.307L59.3732 114.599Z" fill="#2F2E41"/>
<path opacity="0.1" d="M59.3732 114.599L62.0563 119.722C62.0563 119.722 59.8611 125.943 60.7148 126.553C61.5685 127.163 62.6661 132.652 60.3489 132.042C58.0317 131.432 56.2023 128.993 56.2023 128.627C56.2023 128.261 57.5438 123.138 56.8121 121.918C56.0803 120.698 55.5925 120.332 55.5925 120.332L53.7631 123.382L53.1533 123.016L56.2023 117.893C56.2023 117.893 56.5682 116.917 58.0317 116.307L59.3732 114.599Z" fill="black"/>
<path d="M65.255 85.4958C65.255 85.4958 66.2022 98.9863 64.1289 102.524V120.088L61.3239 120.454C61.3239 120.454 56.5675 110.94 58.6408 101.792C60.7141 92.6436 55.5918 84.4712 55.5918 84.4712L65.255 85.4958Z" fill="#FBBEBE"/>
<path d="M64.5559 41.4747C67.3848 41.4747 69.6781 39.1811 69.6781 36.3517C69.6781 33.5224 67.3848 31.2288 64.5559 31.2288C61.7269 31.2288 59.4336 33.5224 59.4336 36.3517C59.4336 39.1811 61.7269 41.4747 64.5559 41.4747Z" fill="#FBBEBE"/>
<path d="M69.7397 49.8302L64.6175 43.3654L61.6904 41.4138L60.4709 42.9995L57.056 43.9753C57.056 43.9753 54.8608 44.4632 52.5435 47.1467C50.2263 49.8302 46.0797 51.4158 46.0797 51.4158L42.6649 50.806C42.6649 50.806 38.6403 48.9763 38.6403 48.4884C38.6403 48.0005 35.1035 51.7818 35.9572 53.2455C36.8109 54.7092 38.6403 56.5388 39.6159 57.5146C40.5916 58.4905 40.9575 61.2959 46.9335 60.4421C52.9094 59.5882 55.1047 56.6608 55.1047 56.6608C55.1047 56.6608 56.2023 62.2717 59.3732 63.3695C62.5442 64.4673 72.9107 65.1991 72.9107 65.1991L75.1059 57.8806C75.1059 57.8806 77.5451 54.7092 74.2522 50.0741C74.2522 50.0741 74.189 47.4818 73.835 45.7569C73.6973 45.0859 73.5156 44.5462 73.2765 44.3412C72.4228 43.6094 67.9104 42.3896 67.9104 42.3896C67.9104 42.3896 68.6421 44.8291 69.008 44.9511C69.3739 45.0731 70.2276 49.2203 69.7397 49.8302Z" fill="#006DA0"/>
<path d="M53.3354 86.2399C59.4772 85.813 63.053 86.8193 64.6482 87.5865C64.9448 87.7207 65.2241 87.8903 65.48 88.0915C65.5971 88.1903 65.6532 88.2671 65.6532 88.3135C65.6532 88.6794 74.0683 89.4113 77.1173 88.6794C80.1663 87.9476 75.044 72.2127 73.7025 70.8709C72.3609 69.5292 73.0841 64.6185 73.0841 64.6185C73.0841 64.6185 70.4096 64.0403 69.6778 64.2842C68.9461 64.5282 65.1654 63.9183 63.8238 63.1865C62.4822 62.4546 60.7748 62.9425 59.6772 62.6986C59.1869 62.59 58.9394 62.773 58.8162 63.0096C58.6244 63.3646 58.3349 63.6571 57.982 63.8525C55.3928 65.3442 53.3146 75.6585 51.7499 81.3609C50.0425 87.5816 53.3354 86.2399 53.3354 86.2399Z" fill="#2F2E41"/>
<path d="M64.6175 118.99L65.1053 121.674C65.1053 121.674 67.6664 125.333 66.9347 128.383C66.9347 128.383 67.5445 132.408 69.7397 133.506C71.935 134.603 70.1056 137.165 68.0323 137.043C65.959 136.921 64.0077 137.165 63.7638 136.555C63.5199 135.945 62.0564 129.968 62.0564 129.968V134.359L60.8368 134.481V128.992C60.8368 128.992 59.8611 127.163 61.2026 124.113L60.8641 119.433C60.8641 119.433 64.2516 120.21 64.6175 118.99Z" fill="#2F2E41"/>
<path d="M64.4953 25.6788C67.3243 25.6788 69.6176 23.3852 69.6176 20.5558C69.6176 17.7265 67.3243 15.4329 64.4953 15.4329C61.6664 15.4329 59.373 17.7265 59.373 20.5558C59.373 23.3852 61.6664 25.6788 64.4953 25.6788Z" fill="#2F2E41"/>
<path d="M68.4356 23.6689C69.0795 23.1794 69.5983 22.5445 69.9497 21.8161C70.301 21.0876 70.475 20.2863 70.4573 19.4777C70.4396 18.6691 70.2307 17.8762 69.8478 17.1639C69.4649 16.4515 68.9188 15.8399 68.2541 15.3792C68.9028 15.6724 69.4832 16.0976 69.9584 16.6277C70.4336 17.1578 70.7931 17.7812 71.014 18.458C71.2349 19.1348 71.3123 19.8502 71.2414 20.5586C71.1704 21.267 70.9526 21.9529 70.6019 22.5724C70.2511 23.1919 69.7751 23.7315 69.2042 24.1568C68.6333 24.5821 67.9801 24.8837 67.2861 25.0424C66.5922 25.2011 65.8728 25.2135 65.1738 25.0786C64.4749 24.9438 63.8117 24.6647 63.2266 24.2593C64.0675 24.6394 64.9954 24.7852 65.9124 24.6812C66.8293 24.5773 67.7011 24.2275 68.4356 23.6689Z" fill="#2F2E41"/>
<path d="M64.6173 36.4128C67.5136 36.4128 69.8615 34.556 69.8615 32.2656C69.8615 29.9752 67.5136 28.1184 64.6173 28.1184C61.721 28.1184 59.373 29.9752 59.373 32.2656C59.373 34.556 61.721 36.4128 64.6173 36.4128Z" fill="#2F2E41"/>
<path opacity="0.1" d="M64.6484 87.5866C64.945 87.7208 65.2243 87.8904 65.4802 88.0916C65.5448 86.9389 65.918 79.968 65.4704 80.0802L64.6484 87.5866Z" fill="black"/>
<path d="M21.6214 46.466C31.1302 46.466 38.8386 38.7565 38.8386 29.2464C38.8386 19.7363 31.1302 12.0269 21.6214 12.0269C12.1127 12.0269 4.4043 19.7363 4.4043 29.2464C4.4043 38.7565 12.1127 46.466 21.6214 46.466Z" fill="#FF6584"/>
<path d="M33.1027 43.4518C33.2424 43.1509 32.7865 42.6428 32.0845 42.3169C31.3825 41.9909 30.7002 41.9707 30.5605 42.2716C30.4208 42.5725 30.8767 43.0806 31.5787 43.4065C32.2808 43.7325 32.9631 43.7527 33.1027 43.4518Z" fill="#FBBEBE"/>
</g>
<defs>
<clipPath id="clip0_821_1536">
<rect width="201" height="153" fill="white"/>
</clipPath>
</defs>
</svg>
